<?xml version="1.0" encoding="UTF-8" standalone="no"?>
<!-- Generator: Adobe Illustrator 16.0.0, SVG Export Plug-In . SVG Version: 6.00 Build 0)  -->

<svg
   xmlns:dc="http://purl.org/dc/elements/1.1/"
   xmlns:cc="http://creativecommons.org/ns#"
   xmlns:rdf="http://www.w3.org/1999/02/22-rdf-syntax-ns#"
   xmlns:svg="http://www.w3.org/2000/svg"
   xmlns="http://www.w3.org/2000/svg"
   xmlns:sodipodi="http://sodipodi.sourceforge.net/DTD/sodipodi-0.dtd"
   xmlns:inkscape="http://www.inkscape.org/namespaces/inkscape"
   version="1.1"
   x="0px"
   y="0px"
   width="1700.79px"
   height="850.39px"
   viewBox="0 0 1700.79 850.39"
   enable-background="new 0 0 1700.79 850.39"
   xml:space="preserve"
   id="svg274"
   sodipodi:docname="deathstar.svg"
   inkscape:version="0.92.1 r15371"><metadata
     id="metadata280"><rdf:RDF><cc:Work
         rdf:about=""><dc:format>image/svg+xml</dc:format><dc:type
           rdf:resource="http://purl.org/dc/dcmitype/StillImage" /></cc:Work></rdf:RDF></metadata><defs
     id="defs278" /><sodipodi:namedview
     pagecolor="#ffffff"
     bordercolor="#666666"
     borderopacity="1"
     objecttolerance="10"
     gridtolerance="10"
     guidetolerance="10"
     inkscape:pageopacity="0"
     inkscape:pageshadow="2"
     inkscape:window-width="1920"
     inkscape:window-height="1051"
     id="namedview276"
     showgrid="false"
     inkscape:zoom="0.70742488"
     inkscape:cx="8.0348528"
     inkscape:cy="310.79923"
     inkscape:window-x="0"
     inkscape:window-y="0"
     inkscape:window-maximized="1"
     inkscape:current-layer="Engraved_Line" /><g
     id="Engraved_Line"><path
       style="fill:none;stroke:#ed2024;stroke-miterlimit:10"
       d="M 615.41797 21.765625 C 388.41597 21.765625 204.39453 205.78706 204.39453 432.78906 C 204.39453 606.44979 312.09196 754.95088 464.33984 815.1543 L 464.33984 845.04297 L 766.49414 845.04297 L 766.49414 815.1543 C 918.74186 754.95088 1026.4414 606.44979 1026.4414 432.78906 C 1026.4414 205.78706 842.41797 21.765625 615.41797 21.765625 z "
       id="cut-out" /><path
       style="fill:none;stroke:#231f20;stroke-miterlimit:10"
       inkscape:connector-curvature="0"
       stroke-miterlimit="10"
       d="m 365.82366,754.45904 c 58.058,-27.457 482.715,-10.22 496.47,3.608 -131.414,102.97 -350.64,115.4 -496.47,-3.608 z"
       id="path4" /><path
       style="fill:none;stroke:#231f20;stroke-miterlimit:10"
       inkscape:connector-curvature="0"
       stroke-miterlimit="10"
       d="m 223.01266,543.69704 c -8.17,-25.952 -11.304,-49.468 -14.32,-76.595 -0.264,-2.371 0.595,-5.186 -1.797,-6.938 0,-9.641 0,-19.283 0,-28.926 4.086,-3.939 6.862,-9.335 11.678,-12.448 1.701,-1.1 3.099,-3.682 5.423,-2.312 2.18,1.283 1.443,4.007 1.638,6.183 2.292,25.635 2.572,51.504 7.696,76.797 1.457,7.203 2.533,14.531 4.525,21.55 2.091,7.369 0.883,12.546 -5.67,16.21 -3.719,2.072 -5.574,2.23 -9.173,6.479 z"
       id="path6" /><path
       style="fill:none;stroke:#231f20;stroke-miterlimit:10"
       inkscape:connector-curvature="0"
       stroke-miterlimit="10"
       d="m 781.82666,93.513044 c 87.133,17.016996 133.035,93.596996 142.113,131.830996 2.575,12.892 2.638,26.174 -2.461,38.578 -9.007,21.91 -26.982,31.398 -49.783,32.948 -35.02,2.384 -65.71,-10.088 -94.188,-28.642 -25.46,-16.587 -46.115,-37.921 -60.622,-64.775 -9.523,-17.629 -14.98,-36.29 -13.139,-56.369 0.599,-32.05 21.351,-63.874996 78.08,-53.570996 z"
       id="path8" /><path
       style="fill:none;stroke:#231f20;stroke-miterlimit:10"
       inkscape:connector-curvature="0"
       stroke-miterlimit="10"
       d="m 875.14266,410.00504 c -1.307,28.092 -5.941,61.169 -11.037,94.194 -1.032,6.701 -4.091,8.676 -11.063,8.066 -21.872,-1.918 -43.814,-3.094 -65.737,-4.441 -21.357,-1.314 -42.72,-2.543 -64.088,-3.66 -7.437,-0.387 -10.03,-3.303 -9.633,-11.223 1.756,-35.044 4.391,-70.077 3.91,-105.215 -0.044,-3.085 0.692,-6.179 1.075,-9.27 0.569,-4.565 3.085,-5.727 7.695,-5.626 45.767,0.975 91.02,7.143 136.297,13.006 12.956,1.678 12.92,1.939 12.581,24.169 z"
       id="path10" /><path
       style="fill:none;stroke:#231f20;stroke-miterlimit:10"
       inkscape:connector-curvature="0"
       stroke-miterlimit="10"
       d="m 595.41666,253.58904 c 0,16.991 -0.228,33.987 0.094,50.972 0.157,8.053 -3.104,11.046 -11.158,11.02 -29.978,-0.095 -59.956,0.144 -89.927,0.472 -4.657,0.049 -5.766,-1.617 -5.767,-5.986 -0.004,-35.468 4.272,-70.566 8.743,-105.668 0.8,-6.302 3.783,-9.188 9.808,-9.365 27.089,-0.804 54.182,-1.496 81.273,-2.328 6.798,-0.209 7.08,4.257 7.083,9.061 0.013,17.274 0.005,34.55 0.005,51.823 -0.05,-10e-4 -0.104,-10e-4 -0.154,-10e-4 z"
       id="path12" /><path
       style="fill:none;stroke:#231f20;stroke-miterlimit:10"
       inkscape:connector-curvature="0"
       stroke-miterlimit="10"
       d="m 382.32666,327.25304 c -8.019,1.592 -9.433,-1.341 -8.82,-8.271 2.989,-33.913 7.698,-67.485 16.353,-100.507 2.001,-7.639 5.124,-10.993 13.378,-12.403 20.58,-3.519 41.343,-5.131 62.024,-7.577 2.825,-0.334 5.703,-0.221 8.556,-0.347 6.276,-0.276 8.969,2.61 8.099,8.829 -3.175,22.725 -5.427,45.537 -6.961,68.431 -0.699,10.44 -2.294,20.828 -2.947,31.27 -0.493,7.93 -3.389,12.458 -12.099,13.202 -26.158,2.222 -52.272,4.932 -77.583,7.373 z"
       id="path14" /><path
       style="fill:none;stroke:#231f20;stroke-miterlimit:10"
       inkscape:connector-curvature="0"
       stroke-miterlimit="10"
       d="m 549.29266,435.10204 c 0,18.113 -0.178,36.228 0.089,54.339 0.105,7.311 -2.838,10.361 -10.161,9.947 -16.557,-0.926 -33.038,1.092 -49.564,1.568 -7.549,0.209 -10.575,-2.688 -10.88,-10.4 -1.346,-34.171 -3.149,-68.314 -4.879,-102.471 -0.688,-13.563 0.694,-15.495 14.094,-16.163 17.079,-0.85 34.182,-1.189 51.26,-2.021 7.449,-0.364 10.166,2.802 10.063,10.017 -0.255,18.39 -0.081,36.787 -0.081,55.184 0.019,0 0.039,0 0.059,0 z"
       id="path16" /><path
       style="fill:none;stroke:#231f20;stroke-miterlimit:10"
       inkscape:connector-curvature="0"
       stroke-miterlimit="10"
       d="m 666.48666,500.92804 c -7.708,0 -15.414,0.061 -23.122,-0.015 -10.983,-0.118 -12.041,-0.874 -11.715,-11.556 0.936,-31.108 2.087,-62.207 1.738,-93.338 -0.072,-6.213 -0.174,-12.42 0.955,-18.62 0.917,-5.037 3.443,-7.493 8.641,-7.329 19.09,0.608 38.182,1.155 57.275,1.756 5.219,0.165 6.752,3.368 6.546,7.982 -1.66,37.844 -3.347,75.687 -4.923,113.539 -0.223,5.336 -2.75,7.674 -7.998,7.641 -9.13,-0.053 -18.266,-0.014 -27.396,-0.014 -10e-4,-0.015 -10e-4,-0.031 -10e-4,-0.046 z"
       id="path18" /><path
       style="fill:none;stroke:#231f20;stroke-miterlimit:10"
       inkscape:connector-curvature="0"
       stroke-miterlimit="10"
       d="m 1014.9007,361.60304 c 0.629,4.232 2.128,10.322 -2.431,9.919 -9.028,-0.794 -11.083,-2.892 -11.883,-7.02 -1.11004,-20.459 -25.82504,-103.611 -26.31304,-104.626 -1.159,-2.422 -6.459,-2.325 -5.697,0 6.115,18.659 23.615,84.147 25.478,97.613 0.877,6.354 -1.873,7.512 -6.863,5.51 -1.326,-0.533 -9.163,-2.16 -10.534,-2.439 -4.606,-0.94 -7.118,-1.436 -8.453,-9.137 -0.689,-24.98 -7.36,-61.421 -15.159,-85.22 -9.462,-28.884 -20.257,-57.28 -36.541,-83.202 -21.259,-33.841 -33.556,-50.123 -80.894,-93.590996 50.178,32.769996 83.181,79.242996 104.009,109.202996 3.151,4.531 7.725,3.841 6.343,1.813 -17.916,-22.522 -27.876,-41.594 -46.475,-62.338 104.47704,104.543 114.85004,217.601 115.41304,223.515 z"
       id="path20" /><path
       style="fill:none;stroke:#231f20;stroke-miterlimit:10"
       inkscape:connector-curvature="0"
       stroke-miterlimit="10"
       d="m 232.25866,421.90304 c -0.335,-9.468 10.712,-16.309 19.468,-12.186 4.156,1.959 41.297,-5.922 44.054,-9.431 0.68,-0.865 1.049,-2.004 1.423,-3.063 1.05,-2.994 2.863,-5.008 6.314,-4.405 3.198,0.555 3.745,3.295 3.975,5.835 1.124,12.394 2.397,24.788 3.085,37.21 1.307,23.505 4.101,46.824 8.669,69.91 1.386,7.002 0.386,10.117 -7.752,10.953 -18.456,1.893 -36.814,4.879 -54.629,10.297 -6.015,1.828 -9.064,-0.135 -10.578,-6.074 -6.725,-26.428 -11.309,-53.168 -12.769,-80.423 -0.332,-6.213 -0.836,-12.413 -1.26,-18.623 z"
       id="path22" /><path
       style="fill:none;stroke:#231f20;stroke-miterlimit:10"
       inkscape:connector-curvature="0"
       stroke-miterlimit="10"
       d="m 382.41066,416.00604 c 0,-8.219 0.097,-16.439 -0.034,-24.655 -0.093,-6.049 2.295,-9.703 8.729,-10.22 17.632,-1.414 35.258,-2.892 52.889,-4.333 6.717,-0.549 9.182,2.81 9.051,9.17 -0.75,36.597 1.651,73.036 5.976,109.353 0.552,4.648 -0.902,7.021 -5.686,7.379 -18.78,1.4 -37.559,2.865 -56.338,4.301 -4.172,0.32 -5.183,-2.51 -6.046,-5.742 -3.308,-12.381 -5.036,-25.072 -6.041,-37.742 -1.255,-15.786 -3.182,-31.599 -2.5,-47.511 z"
       id="path24" /><path
       style="fill:none;stroke:#231f20;stroke-miterlimit:10"
       inkscape:connector-curvature="0"
       stroke-miterlimit="10"
       d="m 635.29266,669.54104 c 34.527,0.41 69.028,2.26 103.577,1.748 8.696,-0.123 9.918,1.699 7.46,9.545 -4.316,13.788 -9.004,27.47 -13.208,41.298 -1.828,6.009 -5.031,8.811 -11.645,8.673 -38.518,-0.76 -77.041,-1.287 -115.563,-1.803 -5.462,-0.071 -8.45,-1.965 -8.797,-7.84 -0.84,-14.115 -2.012,-28.202 -3.138,-42.299 -0.513,-6.389 2.009,-9.512 8.762,-9.377 10.848,0.203 21.704,0.055 32.552,0.055 z"
       id="path26" /><path
       style="fill:none;stroke:#231f20;stroke-miterlimit:10"
       inkscape:connector-curvature="0"
       stroke-miterlimit="10"
       d="m 878.58766,745.04404 c -17.772,-6.054 -84.26,-11.216 -100.877,-11.095 -5.868,0.044 -5.136,-4.155 -3.469,-7.199 8.47,-15.47 14.725,-32.043 21.345,-48.35 2.264,-5.566 6.563,-5.73 11.211,-5.438 22.224,1.396 44.441,2.9 66.552,5.742 14.754,1.9 52.887,8.741 56.698,13.204 -5.054,10.063 -44.186,48.457 -51.46,53.136 z"
       id="path28" /><path
       style="fill:none;stroke:#231f20;stroke-miterlimit:10"
       inkscape:connector-curvature="0"
       stroke-miterlimit="10"
       d="m 499.40166,730.67604 c -16.576,0.596 -34.733,-0.453 -52.902,0.742 -6.583,0.945 -11.688,-2.163 -14.471,-6.572 -9.233,-14.627 -18.816,-29.042 -26.56,-44.533 -3.831,-7.664 -3.064,-8.701 5.341,-9.15 39.063,-2.127 78.163,-1.598 117.254,-1.846 7.564,-0.047 11.334,2.323 12.842,10.079 2.805,14.437 6.383,28.739 10.174,42.96 1.729,6.487 -0.838,8.328 -6.62,8.324 -14.559,-0.012 -29.119,-0.004 -45.058,-0.004 z"
       id="path30" /><path
       style="fill:none;stroke:#231f20;stroke-miterlimit:10"
       inkscape:connector-curvature="0"
       stroke-miterlimit="10"
       d="m 1022.8647,454.37504 c -0.168,29.399 -6.965,57.934 -13.723,86.359 -0.924,3.889 -2.021,5.735 -7.247,2.186 -15.14104,-7.321 -26.49404,-9.46 -42.53004,-13.355 -10.316,-2.512 -10.356,-2.469 -7.663,-12.214 8.48,-30.69 13.95,-61.914 16.095,-93.662 1.1,-16.292 2.178,-17.335 17.406,-11.629 8.812,3.297 17.22504,7.622 26.04704,10.899 14.637,5.429 12.484,1.176 11.615,31.416 z"
       id="path32" /><path
       style="fill:none;stroke:#231f20;stroke-miterlimit:10"
       inkscape:connector-curvature="0"
       stroke-miterlimit="10"
       d="m 789.37066,304.67704 c 0.075,19.847 0.049,20.31 -19.451,19.217 -21.36,-1.194 -42.663,-3.402 -63.998,-5.064 -4.696,-0.363 -7.351,-2.696 -8.253,-7.141 -0.34,-1.663 -0.711,-3.364 -0.688,-5.042 0.481,-33.163 -1.836,-66.219 -3.559,-99.304 -0.208,-3.932 -2.085,-9.495 3.11,-11.313 5.876,-2.057 9.644,2.522 12.364,6.952 11.343,18.478 24.679,35.352 39.715,51.027 9.157,9.549 19.629,17.552 30.65,24.422 8.435,5.258 11.006,11.415 10.128,20.298 -0.194,1.965 -0.028,3.964 -0.018,5.948 z"
       id="path34" /><path
       style="fill:none;stroke:#231f20;stroke-miterlimit:10"
       inkscape:connector-curvature="0"
       stroke-miterlimit="10"
       d="m 609.27966,253.41404 c 0.011,-16.437 -0.059,-32.874 0.035,-49.309 0.054,-10.2 0.94,-10.995 11.436,-11.064 12.277,-0.083 24.534,0.02 36.78,1.455 5.544,0.651 8.16,2.589 8.429,8.305 1.627,34.785 3.202,69.567 3.433,104.4 0.05,7.288 -2.134,9.908 -10.099,9.18 -12.193,-1.116 -24.532,-0.707 -36.811,-0.859 -12.761,-0.157 -13.179,-0.482 -13.204,-12.793 -0.042,-16.439 -0.01,-32.878 0.001,-49.315 z"
       id="path36" /><path
       style="fill:none;stroke:#231f20;stroke-miterlimit:10"
       inkscape:connector-curvature="0"
       stroke-miterlimit="10"
       d="m 321.05666,408.95304 c -0.278,-20.2 -0.282,-20.227 17.52,-22.076 8.251,-0.857 16.9,-4.588 24.088,3.065 0.308,0.331 1.14,0.418 1.644,0.292 13.73,-3.47 12.638,6.956 12.894,14.487 1.07,31.441 2.783,62.815 7.076,94.007 0.853,6.207 -1.76,9.777 -8.185,10.428 -11.934,1.197 -23.867,2.424 -35.799,3.641 -6.701,0.686 -9.847,-2.249 -10.72,-8.967 -4.228,-32.604 -6.791,-65.345 -8.518,-94.877 z"
       id="path38" /><path
       style="fill:none;stroke:#231f20;stroke-miterlimit:10"
       inkscape:connector-curvature="0"
       stroke-miterlimit="10"
       d="m 235.09166,355.17004 c 5.066,-32.746 10.019,-66.986 21.792,-99.773 1.623,-4.52 4.406,-7.797 8.6,-10.122 15.808,-8.771 32.854,-14.431 50.027,-19.806 6.599,-2.067 8.467,-0.066 6.426,6.417 -3.399,10.812 -5.35,22.585 -19.855,24.67 -2.289,0.331 -4.044,2.289 -4.59,4.65 -2.165,9.39 -4.211,18.805 -6.27,28.218 -0.308,1.399 -0.509,2.993 1.217,3.585 1.903,0.65 3.659,-0.387 4.254,-1.967 1.391,-3.683 2.382,-7.522 3.418,-11.329 0.76,-2.785 1.544,-5.516 4.338,-7.002 1.536,-0.819 3.204,-1.35 4.908,-0.533 1.932,0.92 1.843,2.723 1.592,4.415 -2.898,19.61 -5.869,39.212 -8.729,58.827 -0.624,4.292 -3.194,6.325 -7.164,7.362 -18.51,4.85 -36.972,9.844 -54.442,17.832 -4.093,1.875 -6.838,1.521 -5.522,-5.444 z"
       id="path40" /><path
       style="fill:none;stroke:#231f20;stroke-miterlimit:10"
       inkscape:connector-curvature="0"
       stroke-miterlimit="10"
       d="m 566.28466,433.76504 c 0,-17.563 -0.03,-35.13 0.01,-52.699 0.029,-12.312 0.476,-12.715 13.22,-12.742 8.001,-0.017 16.004,0.15 23.999,-0.025 5.941,-0.131 9.091,2.041 9.077,8.344 -0.086,38.537 -0.069,77.072 -0.037,115.609 0.004,6.111 -3.055,8.689 -9.018,8.629 -9.424,-0.078 -18.857,-0.148 -28.283,0.059 -6.695,0.141 -9.057,-3.025 -8.999,-9.361 0.167,-19.268 0.06,-38.539 0.06,-57.813 -0.011,-10e-4 -0.02,-10e-4 -0.029,-10e-4 z"
       id="path42" /><path
       style="fill:none;stroke:#231f20;stroke-miterlimit:10"
       inkscape:connector-curvature="0"
       stroke-miterlimit="10"
       d="m 606.21266,35.992044 c 1.983,-12.298 3.069,-11.887 15.234,-12.19 23.516,-0.587 24.806,1.584 27.787,9.989 5.868,19.328 12.295,71.456996 14.518,84.187996 1.102,6.296 -2.152,8.808 -8.267,8.704 -7.989,-0.133 -40.09,-2.696 -48.323,-2.674 -5.016,0.013 -6.814,-3.139 -7.098,-7.064 -0.341,-4.697 2.585,-58.848996 6.149,-80.952996 z"
       id="path44" /><path
       style="fill:none;stroke:#231f20;stroke-miterlimit:10"
       inkscape:connector-curvature="0"
       stroke-miterlimit="10"
       d="m 927.11266,405.25004 c -0.213,34.691 -7.644,70.148 -14.31,105.725 -1.121,5.971 -3.487,8.998 -10.378,7.732 -7.823,-1.43 -15.835,-1.898 -23.779,-2.627 -6.54,-0.598 -9.351,-2.73 -7.929,-10.305 6.723,-35.85 13.343,-71.755 13.054,-108.438 -0.043,-5.648 1.792,-8.528 8.159,-7.295 9.511,1.838 19.115,3.194 28.658,4.875 4.758,0.836 6.905,2.911 6.525,10.333 z"
       id="path46" /><path
       style="fill:none;stroke:#231f20;stroke-miterlimit:10"
       inkscape:connector-curvature="0"
       stroke-miterlimit="10"
       d="m 495.03766,193.02604 c -10.981,0.103 -10.898,0.123 -7.209,-15.236 2.847,-11.849 5.605,-23.725 8.108,-35.651 1.233,-5.868 4.281,-8.783 10.448,-9.033 22.231,-0.903 44.456,-2 66.681,-3.055 6.156,-0.29 9.104,2.531 8.652,8.646 -1.087,14.674 -2.26,29.339 -3.304,44.017 -0.362,5.051 -3.317,6.66 -7.963,6.861 -23.376,1.01 -46.746,2.127 -75.413,3.451 z"
       id="path48" /><path
       style="fill:none;stroke:#231f20;stroke-miterlimit:10"
       inkscape:connector-curvature="0"
       stroke-miterlimit="10"
       d="m 730.64866,577.53904 c -6.016,0.027 -7.915,-2.541 -7.093,-8.498 2.277,-16.521 4.212,-33.104 6.036,-49.682 0.808,-7.322 4.388,-10.507 11.859,-9.865 16.478,1.424 33.008,1.699 49.543,2.031 10.231,0.207 11.21,1.748 10.353,11.703 -0.313,3.656 -1.053,7.275 -1.43,10.934 -0.287,2.809 -1.107,6.248 0.815,8.264 10.918,11.49 0.512,22.822 -0.047,34.156 -0.168,3.42 -3.77,3.572 -6.82,3.381 -5.971,-0.389 -48.126,-2.494 -63.216,-2.424 z"
       id="path50" /><path
       style="fill:none;stroke:#231f20;stroke-miterlimit:10"
       inkscape:connector-curvature="0"
       stroke-miterlimit="10"
       d="m 586.81966,616.69804 c -0.006,-9.913 0.221,-19.826 -0.097,-29.728 -0.168,-5.324 1.425,-7.83 7.176,-7.748 14.839,0.221 29.686,0.197 44.522,0.061 6.25,-0.051 8.959,2.828 8.53,8.818 -1.656,23.119 -3.369,46.234 -5.009,69.348 -0.352,4.984 -3.174,6.879 -7.897,6.866 -12.274,-0.028 -24.55,-0.075 -36.818,0.065 -5.549,0.059 -8.028,-2.215 -8.916,-7.838 -2.103,-13.267 -0.783,-26.573 -1.491,-39.844 z"
       id="path52" /><path
       style="fill:none;stroke:#231f20;stroke-miterlimit:10"
       inkscape:connector-curvature="0"
       stroke-miterlimit="10"
       d="m 535.25666,574.19904 c -8.28,0 -16.561,-0.164 -24.832,0.063 -5.79,0.154 -9.222,-1.9 -9.927,-7.908 -1.967,-16.861 -4.083,-33.696 -6.085,-50.555 -0.819,-6.895 2.378,-9.637 9.359,-9.699 17.387,-0.166 34.819,0.873 52.156,-1.519 7.042,-0.968 10.315,1.843 10.587,9.411 0.566,15.813 1.918,31.592 3.073,47.383 0.817,11.135 -0.525,12.686 -12.067,12.76 -7.419,0.049 -14.845,0.01 -22.265,0.01 10e-4,0.017 10e-4,0.035 10e-4,0.054 z"
       id="path54" /><path
       style="fill:none;stroke:#231f20;stroke-miterlimit:10"
       inkscape:connector-curvature="0"
       stroke-miterlimit="10"
       d="m 533.56966,664.35404 c -1.142,0 -2.285,0.015 -3.427,-0.002 -26.114,-0.386 -21.946,3.638 -27.85,-22.269 -3.83,-16.809 -5.457,-34.111 -8.278,-51.166 -0.88,-5.295 0.421,-8.064 6.329,-8.236 13.977,-0.395 27.952,-0.973 41.911,-1.707 7.067,-0.371 10.061,2.085 10.577,9.6 1.447,21.174 3.493,42.318 5.941,63.398 0.876,7.559 -1.284,10.692 -8.917,10.37 -5.418,-0.234 -10.858,-0.052 -16.286,-0.052 0,0.019 0,0.044 0,0.064 z"
       id="path56" /><path
       style="fill:none;stroke:#231f20;stroke-miterlimit:10"
       inkscape:connector-curvature="0"
       stroke-miterlimit="10"
       d="m 455.99166,666.00304 c -23.301,0.049 -23.521,0.13 -31.504,-21.071 -5.996,-15.914 -11.455,-32.035 -16.919,-48.143 -3.003,-8.854 -1.703,-10.742 7.773,-10.58 13.167,0.211 26.24,-0.963 39.34,-1.813 6.523,-0.416 9.738,2.219 11.176,8.768 4.622,21.035 9.65,41.98 14.866,62.883 1.751,7.025 0.032,10.304 -7.592,9.995 -5.703,-0.233 -11.426,-0.052 -17.14,-0.039 z"
       id="path58" /><path
       style="fill:none;stroke:#231f20;stroke-miterlimit:10"
       inkscape:connector-curvature="0"
       stroke-miterlimit="10"
       d="m 440.52666,509.47404 c -0.026,0 2.27,0.141 4.541,-0.029 6.159,-0.477 9.467,1.834 10.367,8.309 2.264,16.257 4.975,32.466 7.592,48.68 0.941,5.84 -0.954,9.389 -7.303,9.829 -14.218,0.978 -28.434,2.013 -42.656,2.962 -4.723,0.318 -7.463,-1.91 -8.416,-6.57 -3.637,-17.766 -7.411,-35.508 -11.025,-53.266 -1.107,-5.44 1.595,-7.877 6.983,-8.098 12.541,-0.508 25.072,-1.135 39.917,-1.817 z"
       id="path60" /><path
       style="fill:none;stroke:#231f20;stroke-miterlimit:10"
       inkscape:connector-curvature="0"
       stroke-miterlimit="10"
       d="m 847.10866,584.99004 c -9.759,-0.713 -21.397,-1.639 -33.046,-2.385 -4.756,-0.301 -8.172,-2.316 -7.322,-7.226 3.278,-18.911 6.903,-37.772 10.616,-56.603 0.752,-3.83 4.337,-4.263 7.556,-4.01 15.046,1.213 30.083,2.518 45.11,3.9 6.345,0.586 9.02,3.523 7.208,10.279 -2.562,9.549 -4.389,19.307 -6.621,28.947 -1.319,5.715 -1.959,11.652 -8.938,14.242 -2.968,1.102 -3.26,5.117 -4.285,8.018 -1.431,4.046 -3.942,6.135 -10.278,4.838 z"
       id="path62" /><path
       style="fill:none;stroke:#231f20;stroke-miterlimit:10"
       inkscape:connector-curvature="0"
       stroke-miterlimit="10"
       d="m 683.36166,666.30704 c -18.03,-0.236 -18.472,-0.265 -17.376,-18.188 1.226,-20.022 3.416,-39.998 5.045,-60.008 0.398,-4.891 2.747,-6.982 7.614,-7.131 12.009,-0.354 23.949,0.348 35.868,1.759 4.721,0.56 6.637,3.152 5.788,7.53 -4.515,23.344 -9.152,46.668 -13.754,69.996 -0.654,3.313 -3.014,4.688 -6.124,4.927 -5.682,0.435 -11.374,0.747 -17.061,1.115 z"
       id="path64" /><path
       style="fill:none;stroke:#231f20;stroke-miterlimit:10"
       inkscape:connector-curvature="0"
       stroke-miterlimit="10"
       d="m 341.19066,309.74604 c 0.629,-5.438 0.087,-9.766 -7.33,-9.032 -5.76,0.569 -4.557,-3.84 -4.298,-7.019 1.508,-18.385 9.692,-53.635 12.772,-71.718 7.19,-6.567 28.516,-8.347 37.975,-8.319 -8.047,33.358 -14.379,80.738 -17.536,114.869 -5.425,1.313 -10.283,1.936 -20.134,3.874 -5.028,0.989 -1.903,-18.725 -1.449,-22.655 z"
       id="path66" /><path
       style="fill:none;stroke:#231f20;stroke-miterlimit:10"
       inkscape:connector-curvature="0"
       stroke-miterlimit="10"
       d="m 424.63566,199.50904 c -5.825,0.627 -9.712,-0.702 -7.975,-7.851 3.62,-14.887 7.524,-29.659 13.677,-43.785 2.179,-5 5.282,-7.268 10.899,-7.79 15.059,-1.397 30.088,-3.253 45.066,-5.369 6.025,-0.851 7.086,1.41 5.979,6.505 -3.431,15.787 -6.797,31.588 -10.138,47.395 -0.743,3.522 -2.83,5.448 -6.395,5.807 -17.039,1.706 -34.077,3.394 -51.113,5.088 z"
       id="path68" /><path
       style="fill:none;stroke:#231f20;stroke-miterlimit:10"
       inkscape:connector-curvature="0"
       stroke-miterlimit="10"
       d="m 961.52466,411.59004 c -2.214,25.478 -5.589,50.984 -10.555,76.273 -2.02,10.277 -4.18,20.52 -6.06,30.809 -0.947,5.172 -3.437,7.232 -8.873,6.281 -23.889,-4.148 -22.664,0.113 -17.408,-23.75 6.836,-31.047 9.999,-62.545 13.116,-94.07 0.914,-9.251 2.005,-10.236 11.168,-7.702 4.396,1.219 8.75,2.578 13.122,3.881 4.053,1.207 6.494,3.517 5.49,8.278 z"
       id="path70" /><path
       style="fill:none;stroke:#231f20;stroke-miterlimit:10"
       inkscape:connector-curvature="0"
       stroke-miterlimit="10"
       d="m 469.14766,50.636044 c 5.074,-2.772 22.745,-9.251 25.634,-9.968 2.607,-0.646 13.779,-5.414 12.819,-0.259 -0.491,2.612 -3.939,3.919 -7.949,5.596 -36.836,17.311 -65.697,79.461996 -67.326,83.440996 -2.601,6.362 -6.501,9.289 -13.064,10.376 -10.144,1.683 -35.652,8.057 -37.535,5.761 -2.364,-2.882 40.756,-69.437996 87.421,-94.946996 z"
       id="path72" /><path
       style="fill:none;stroke:#231f20;stroke-miterlimit:10"
       inkscape:connector-curvature="0"
       stroke-miterlimit="10"
       d="m 969.98566,636.22104 c -10.91,19.378 -23.738,37.008 -38.342,53.013 -5.817,-6.762 -13.751,-8.842 -21.33,-11.504 -5.846,-2.053 -6.511,-5.425 -3.344,-10.925 10.839,-18.794 21.66,-37.61 32.378,-56.495 2.105,-3.714 4.739,-4.288 8.162,-3.346 8.374,2.318 15.749,6.834 22.679,12.383 3.032,2.425 3.788,5.404 1.748,9.202 -1.261,2.344 -2.777,4.677 -1.951,7.672 z"
       id="path74" /><path
       style="fill:none;stroke:#231f20;stroke-miterlimit:10"
       inkscape:connector-curvature="0"
       stroke-miterlimit="10"
       d="m 667.76666,130.08904 c 29.88,0.117 32.649,-0.728 31.787,8.949 -0.768,8.628 -1.896,14.943 2.485,47.16 0.455,5.406 -1.938,6.81 -7.127,6.345 -13.604,-1.215 -27.238,-2.149 -40.877,-2.869 -5.388,-0.284 -8.581,-1.887 -8.749,-7.835 -0.394,-13.83 -0.906,-27.66 -1.704,-41.47 -0.446,-7.738 2.762,-10.935 10.507,-10.35 4.534,0.343 9.115,0.063 13.678,0.07 z"
       id="path76" /><path
       style="fill:none;stroke:#231f20;stroke-miterlimit:10"
       inkscape:connector-curvature="0"
       stroke-miterlimit="10"
       d="m 908.35666,591.68304 c -7.889,-1.271 -15.759,-2.695 -23.676,-3.758 -5.832,-0.785 -7.974,-3.307 -6.205,-9.211 4.631,-15.476 9.104,-31.008 13.403,-46.582 1.646,-5.957 4.658,-8.453 11.15,-7.141 9.507,1.912 19.127,3.313 28.737,4.695 5.743,0.824 7.163,3.721 5.346,8.904 -5.635,16.049 -11.291,32.102 -16.751,48.213 -2.228,6.578 -7.106,5.263 -12.004,4.88 z"
       id="path78" /><path
       style="fill:none;stroke:#231f20;stroke-miterlimit:10"
       inkscape:connector-curvature="0"
       stroke-miterlimit="10"
       d="m 852.49166,672.86104 c -20.009,-0.286 -20.186,-0.553 -11.85,-18.396 8.29,-17.739 15.869,-35.767 21.498,-54.513 1.896,-6.305 5.09,-8.768 11.833,-7.416 6.125,1.223 12.437,1.693 18.69,2.095 5.702,0.376 7.805,2.644 5.701,8.196 -8.534,22.586 -18.985,44.239 -31.57,64.898 -3.561,5.843 -8.911,5.156 -14.302,5.136 z"
       id="path80" /><path
       style="fill:none;stroke:#231f20;stroke-miterlimit:10"
       inkscape:connector-curvature="0"
       stroke-miterlimit="10"
       d="m 616.16866,189.59204 c -1.712,0 -3.424,0.001 -5.136,0 -19.619,-0.015 -19.948,-0.038 -18.676,-19.792 0.675,-10.446 1.713,-20.86 1.553,-31.338 -0.081,-5.497 2.195,-8.536 8.076,-8.471 9.419,0.101 18.836,0.102 28.257,0.068 5.152,-0.019 7.961,2.098 8.146,7.512 0.479,13.847 0.987,27.695 1.79,41.524 0.438,7.546 -2.371,11.178 -10.312,10.583 -4.542,-0.338 -9.127,-0.06 -13.698,-0.06 0,-0.008 0,-0.017 0,-0.026 z"
       id="path82" /><path
       style="fill:none;stroke:#231f20;stroke-miterlimit:10"
       inkscape:connector-curvature="0"
       stroke-miterlimit="10"
       d="m 575.75266,126.64004 c -16.362,0.006 -16.171,0.035 -13.637,-15.804 3.586,-22.422996 8.827,-44.389996 15.179,-66.234996 3.75,-12.905 13.393,-15.523 23.625,-18.614 4.121,-1.244 3.219,2.104 2.66,4.131 -5.295,19.244 -6.832,39.039 -8.778,58.764 -0.689,7.038 -0.666,14.139996 -1.24,21.191996 -1.32,16.192 -1.787,16.56 -17.809,16.566 z"
       id="path84" /><path
       style="fill:none;stroke:#231f20;stroke-miterlimit:10"
       inkscape:connector-curvature="0"
       stroke-miterlimit="10"
       d="m 366.36266,514.50004 c 9.078,-1.648 12.952,2.68 14.629,11.158 2.959,14.971 6.535,29.82 10.099,44.672 1.73,7.211 0.027,11.41 -8.175,11.819 -6.818,0.348 -13.616,1.118 -20.413,1.815 -4.643,0.465 -6.8,-2.006 -7.804,-6.061 -4.424,-17.836 -8.807,-35.688 -13.306,-53.505 -1.391,-5.505 0.585,-7.856 6.267,-8.126 6.248,-0.292 12.471,-1.155 18.703,-1.772 z"
       id="path86" /><path
       style="fill:none;stroke:#231f20;stroke-miterlimit:10"
       inkscape:connector-curvature="0"
       stroke-miterlimit="10"
       d="m 610.88666,537.22604 c 0,7.064 -0.278,14.143 0.079,21.186 0.366,7.361 -2.13,11.199 -10.169,10.813 -5.702,-0.279 -11.439,0.539 -16.696,2.924 -4.827,2.197 -6.92,0.424 -7.599,-4.277 -0.359,-2.518 -1.037,-5.012 -1.163,-7.537 -0.754,-15.218 -1.288,-30.451 -2.119,-45.674 -0.385,-7.031 2.098,-10.672 9.716,-10.275 6.533,0.332 13.097,0.166 19.644,0.07 5.699,-0.08 8.375,2.512 8.305,8.193 -0.105,8.193 -0.026,16.385 -0.026,24.578 0.009,-10e-4 0.02,-10e-4 0.028,-10e-4 z"
       id="path88" /><path
       style="fill:none;stroke:#231f20;stroke-miterlimit:10"
       inkscape:connector-curvature="0"
       stroke-miterlimit="10"
       d="m 889.00566,675.95404 c -18.85,-3.292 -22.681,0.909 -10.892,-19.026 9.963,-16.834 19.316,-34.018 27.12,-51.957 2.447,-5.629 6.285,-7.689 12.176,-6.585 2.241,0.417 4.493,0.813 6.757,1.079 15.301,1.824 15.821,2.373 8.361,15.373 -10.573,18.422 -19.454,37.836 -32.336,54.921 -4.374,5.792 -5.738,6.447 -11.186,6.195 z"
       id="path90" /><path
       style="fill:none;stroke:#231f20;stroke-miterlimit:10"
       inkscape:connector-curvature="0"
       stroke-miterlimit="10"
       d="m 550.62066,30.530044 c -5.568,9.562 -15.888,26.579 -21.234,36.309 -9.118,16.593 -14.786,34.334996 -19.86,52.357996 -2.465,8.761 -18.513,11.437 -28.609,12.025 -4.375,0.253 -1.688,-4.9 -0.828,-7.36 9.77,-27.937996 46.85,-89.783996 54.701,-91.395996 3.616,-0.743 16.955,-3.867 15.83,-1.936 z"
       id="path92" /><path
       style="fill:none;stroke:#231f20;stroke-miterlimit:10"
       inkscape:connector-curvature="0"
       stroke-miterlimit="10"
       d="m 1006.8117,552.05004 c -6.44,19.007 -16.11904,42.672 -25.72904,59.604 -5.86,-4.065 -13.65,-5.366 -19.973,-9.501 -2.204,-1.438 -1.007,-5.939 -0.043,-8.436 6.182,-15.973 12.385,-31.94 18.507,-47.952 1.843,-4.823 4.45,-6.025 8.225,-4.251 6.926,3.251 13.83504,3.801 19.01304,10.536 z"
       id="path94" /><path
       style="fill:none;stroke:#231f20;stroke-miterlimit:10"
       inkscape:connector-curvature="0"
       stroke-miterlimit="10"
       d="m 536.21466,128.04904 c -5.592,0.328 -8.183,-2.254 -7.016,-7.719 6.368,-29.777996 14.976,-58.742996 31.936,-84.586996 1.07,-1.634 2.313,-3.433 3.934,-4.387 4.106,-2.414 9.417,-3.375 12.948,-0.825 3.194,2.309 -0.792,6.081 -2.082,8.97 -9.931,22.252 -14.339,45.813 -17.637,69.733996 -2.915,21.147 -1.596,15.616 -22.083,18.814 z"
       id="path96" /><path
       style="fill:none;stroke:#231f20;stroke-miterlimit:10"
       inkscape:connector-curvature="0"
       stroke-miterlimit="10"
       d="m 692.53066,507.72204 c 19.896,0.153 16.724,-1.353 15.97,17.046 -0.515,12.713 -2.321,25.361 -3.139,38.074 -0.373,5.848 -3.161,7.699 -8.681,7.976 -7.242,0.363 -14.552,-1.399 -21.728,2.712 -4.174,2.384 -3.934,-2.881 -3.835,-5.238 0.589,-13.568 1.489,-27.125 2.311,-40.688 0.066,-1.127 0.372,-2.238 0.513,-3.363 2.093,-16.643 2.092,-16.643 18.589,-16.519 z"
       id="path98" /><path
       style="fill:none;stroke:#231f20;stroke-miterlimit:10"
       inkscape:connector-curvature="0"
       stroke-miterlimit="10"
       d="m 323.31166,519.02704 c 3.615,-0.215 5.777,-0.168 6.64,2.066 1.1,2.838 -0.853,4.355 -3.189,4.967 -5.612,1.473 -5.111,5.221 -3.842,9.328 1.588,5.143 3.375,10.227 4.801,15.418 1.43,5.189 2.671,9.787 10.081,8.195 4.126,-0.895 4.631,3.367 5.683,6.181 6.193,16.622 6.187,16.692 -11.08,19.55 -21.515,3.559 -18.75,8.453 -27.357,-16.643 -4.226,-12.33 -8.222,-24.738 -12.553,-37.02 -1.634,-4.633 -1.633,-7.459 4.4,-8.15 9.349,-1.068 18.629,-2.712 26.416,-3.892 z"
       id="path100" /><path
       style="fill:none;stroke:#231f20;stroke-miterlimit:10"
       inkscape:connector-curvature="0"
       stroke-miterlimit="10"
       d="m 357.74366,162.07604 c -0.978,2.541 -1.86,4.931 -2.814,7.292 -5.52,13.64 -11.17,27.229 -16.524,40.936 -1.729,4.427 -4.647,6.855 -9.164,7.921 -9.718,2.291 -19.335,4.898 -28.383,9.25 -1.726,0.83 -3.874,2.139 -5.566,0.495 -1.776,-1.733 -0.109,-3.737 0.676,-5.432 7.146,-15.408 14.466,-30.738 21.511,-46.191 3.085,-6.77 8.194,-10.503 15.334,-12.168 6.657,-1.551 13.204,-3.563 19.832,-5.238 2.674,-0.679 5.26,-0.727 5.098,3.135 z"
       id="path102" /><path
       style="fill:none;stroke:#231f20;stroke-miterlimit:10"
       inkscape:connector-curvature="0"
       stroke-miterlimit="10"
       d="m 616.26466,538.64204 c 0,-8.494 0.042,-16.988 -0.014,-25.484 -0.04,-6.003 2.877,-8.434 8.91,-8.785 23.566,-1.381 23.328,-1.51 23.613,21.992 0.149,12.219 -1.359,24.297 -1.721,36.451 -0.152,5.173 -2.363,7.518 -7.722,7.988 -23.289,2.067 -23.278,2.174 -23.233,-20.266 0.006,-3.967 10e-4,-7.93 10e-4,-11.896 0.054,0 0.112,0 0.166,0 z"
       id="path104" /><path
       style="fill:none;stroke:#231f20;stroke-miterlimit:10"
       inkscape:connector-curvature="0"
       stroke-miterlimit="10"
       d="m 763.03866,667.80104 c -12.433,-0.072 -12.481,-0.146 -9.395,-11.429 5.683,-20.772 12.315,-44.437 17.574,-65.313 4.35,-4.469 22.695,-4.607 25.769,-0.904 -6.21,22.682 -13.244,48.999 -19.548,71.655 -2.298,8.256 -9.519,5.283 -14.4,5.991 z"
       id="path106" /><path
       style="fill:none;stroke:#231f20;stroke-miterlimit:10"
       inkscape:connector-curvature="0"
       stroke-miterlimit="10"
       d="m 389.17066,671.50804 c 5.394,-0.062 7.279,3.963 11.508,12.611 6.85,14.018 16.079,26.685 24.745,39.646 4.723,7.063 4.34,6.734 -10.672,8.488 -14.76,1.566 -16.159,0.818 -21.271,-6.192 -8.299,-11.196 -21.67,-29.804 -28.148,-42.114 -4.41,-8.389 -3.496,-9.912 6.18,-10.81 3.107,-0.287 13.897,-1.629 17.658,-1.629 z"
       id="path108" /><path
       style="fill:none;stroke:#231f20;stroke-miterlimit:10"
       inkscape:connector-curvature="0"
       stroke-miterlimit="10"
       d="m 385.25666,118.43504 c -3.22,0.735 -15.1,17.128 -18.038,23.188 -6.112,12.609 -8.376,10.501 -30.214,15.468 16.148,-23.785 32.51,-47.325 53.613,-66.403996 19.685,-13.041 28.028,-17.777 50.865,-28.27 -4.5,8.379 -13.172,8.648 -15.805,16.62 l 0.039,-0.038 c -4.281,3.003 -31.892,37.477996 -40.46,39.435996 z"
       id="path110" /><path
       style="fill:none;stroke:#231f20;stroke-miterlimit:10"
       inkscape:connector-curvature="0"
       stroke-miterlimit="10"
       d="m 349.50966,675.61704 c 5.6,-1.242 7.834,4.07 10.303,8.346 6.822,11.819 14.607,22.984 22.495,34.092 1.475,2.085 3.313,3.904 4.829,5.955 2.247,3.043 7.426,7.099 3.265,8.705 -3.458,1.333 -7.225,1.365 -10.976,2.252 -10.852,2.71 -9.673,1.661 -16.468,-4.24 -13.45,-13.631 -25.183,-28.521 -35.805,-44.364 -3.751,-5.59 -2.655,-7.796 4.142,-8.478 6.068,-0.606 11.33,-1.381 18.215,-2.268 z"
       id="path112" /><path
       style="fill:none;stroke:#231f20;stroke-miterlimit:10"
       inkscape:connector-curvature="0"
       stroke-miterlimit="10"
       d="m 706.02866,116.56104 c -1.244,2.721 -4.137,10.823 -7.103,10.892 -14.562,0.333 -13.516,-3.77 -14.513,-8.994 -5.252,-27.517996 -12.392,-54.545996 -23.133,-80.557996 -1.016,-2.458 -4.429,-6.18 -0.94,-8.152 2.952,-1.666 7.526,-0.702 10.429,1.821 2.735,2.38 4.999,5.416 7.038,8.452 15.154,22.593 28.291,74.567996 28.222,76.538996 z"
       id="path114" /><path
       style="fill:none;stroke:#231f20;stroke-miterlimit:10"
       inkscape:connector-curvature="0"
       stroke-miterlimit="10"
       d="m 411.14266,667.52504 c -4.824,0.564 -7.277,-2.59 -8.915,-6.955 -7.89,-20.975 -15.871,-41.918 -23.666,-62.928 -1.028,-2.775 -3.049,-6.525 0.099,-8.643 3.766,-2.538 8.971,-4.143 12.982,-1.58 5.351,3.418 10.529,7.212 12.718,14.168 5.441,17.309 11.579,34.405 17.561,51.543 4.133,11.85 2.273,14.547 -10.779,14.395 z"
       id="path116" /><path
       style="fill:none;stroke:#231f20;stroke-miterlimit:10"
       inkscape:connector-curvature="0"
       stroke-miterlimit="10"
       d="m 817.58866,671.08804 c -12.938,0 -13.839,-1.293 -8.301,-11.99 9.695,-18.723 17.281,-38.201 22.593,-58.596 2.287,-8.777 15.677,-13.166 23.002,-7.986 2.583,1.824 1.493,4.031 0.857,6.105 -7.056,23.088 -16.137,45.373 -26.914,67.008 -2.751,5.537 -7.309,5.576 -11.237,5.459 z"
       id="path118" /><path
       style="fill:none;stroke:#231f20;stroke-miterlimit:10"
       inkscape:connector-curvature="0"
       stroke-miterlimit="10"
       d="m 285.53466,593.94504 c -5.273,0.422 -7.547,-1.5 -8.743,-4.73 -4.74,-12.768 -9.417,-25.553 -14.08,-38.346 -1.052,-2.887 -1.393,-5.865 2.31,-7.016 5.091,-1.575 6.466,-4.801 5.73,-9.762 -1.006,-6.773 4.676,-6.613 8.87,-7.885 4.531,-1.383 7.082,0.59 8.346,4.811 5.128,17.109 10.238,34.238 15.421,51.334 1.481,4.879 -0.229,7.53 -5.215,8.549 -4.75,0.985 -9.435,2.264 -12.639,3.045 z"
       id="path120" /><path
       style="fill:none;stroke:#231f20;stroke-miterlimit:10"
       inkscape:connector-curvature="0"
       stroke-miterlimit="10"
       d="m 293.87066,683.28904 c -19.142,-22.998 -33.605,-46.453 -46.343,-73.451 24.343,-13.068 20.444,-8.401 29.637,10.736 7.771,16.176 23.168,41.111 33.926,55.447 -5.803,2.092 -15.149,5.786 -17.22,7.268 z"
       id="path122" /><path
       style="fill:none;stroke:#231f20;stroke-miterlimit:10"
       inkscape:connector-curvature="0"
       stroke-miterlimit="10"
       d="m 209.05366,387.02604 c 2.799,-33.928 10.825,-67.029 23.198,-98.866 3.063,0.842 3.614,-1.852 4.422,-4.015 7.872,-21.035 8.718,-26.668 30.641,-64.084 -13.399,20.425 -37.997,119.76 -39.916,140.227 -0.318,3.4 -1.276,6.643 -4.144,9.057 -4.241,3.571 -3,2.493 -3.154,-3.377 -0.147,-11.808 3.792,-25.47 6.388,-41.945 -2.193,12.183 -9.304,38.932 -10.53,51.268 -0.195,1.976 -0.772,6.28 -6.905,11.735 z"
       id="path124" /><path
       style="fill:none;stroke:#231f20;stroke-miterlimit:10"
       inkscape:connector-curvature="0"
       stroke-miterlimit="10"
       d="m 559.67466,669.56604 c 14.832,-0.118 14.596,-0.108 15.373,14.695 0.617,11.832 1.949,23.62 2.854,35.438 0.34,4.427 1.645,10.139 -5.004,10.543 -7.762,0.484 -15.431,1.769 -17.693,-5.291 -5.276,-16.466 -6.647,-33.764 -9.575,-50.725 -0.569,-3.295 1.707,-4.547 4.649,-4.639 3.128,-0.095 6.263,-0.021 9.396,-0.021 z"
       id="path126" /><path
       style="fill:none;stroke:#231f20;stroke-miterlimit:10"
       inkscape:connector-curvature="0"
       stroke-miterlimit="10"
       d="m 736.29566,667.70404 c -9.147,0.087 -10.931,-1.771 -9.128,-10.073 4.852,-22.361 12.062,-44.174 15.615,-66.852 1.329,-8.465 8.032,-6.191 13.541,-5.658 6.767,0.65 5.341,5.201 4.359,9.436 -5.046,21.752 -10.209,43.476 -15.098,65.261 -1.26,5.608 -3.949,8.6 -9.289,7.886 z"
       id="path128" /><path
       style="fill:none;stroke:#231f20;stroke-miterlimit:10"
       inkscape:connector-curvature="0"
       stroke-miterlimit="10"
       d="m 337.18866,674.09204 c -4.367,0.615 -6.376,-2.502 -8.389,-5.717 -12.347,-19.717 -23.885,-39.889 -34.436,-60.6 -1.444,-2.834 -5.684,-6.748 -0.418,-9.348 4.729,-2.339 10.407,-4.096 15.102,0.629 1.766,1.776 2.992,4.141 4.245,6.345 10.613,18.745 21.211,37.485 31.738,56.269 5.222,9.322 3.391,12.218 -7.842,12.422 z"
       id="path130" /><path
       style="fill:none;stroke:#231f20;stroke-miterlimit:10"
       inkscape:connector-curvature="0"
       stroke-miterlimit="10"
       d="m 478.87566,506.31204 c 5.104,-0.332 7.948,2.045 8.49,7.764 1.464,15.498 3.123,30.971 4.962,46.432 0.78,6.578 -1.239,10.84 -8.338,10.697 -4.625,-0.107 -8.009,6.65 -12.077,3.152 -3.334,-2.869 -1.88,-8.596 -2.536,-13.027 -1.956,-13.169 -3.303,-26.415 -5.078,-39.611 -1.703,-12.645 0.931,-15.623 14.577,-15.407 z"
       id="path132" /><path
       style="fill:none;stroke:#231f20;stroke-miterlimit:10"
       inkscape:connector-curvature="0"
       stroke-miterlimit="10"
       d="m 361.80966,589.49804 c 5.51,-0.953 8.657,2.121 10.54,7.789 7.053,21.238 14.31,42.41 25.018,62.211 1.304,2.416 3.176,5.94 -0.6,7.273 -5.111,1.807 -10.968,2.527 -15.121,-2.18 -4.528,-5.127 -7.7,-11.247 -10.195,-17.596 -6.112,-15.557 -12.095,-31.168 -17.978,-46.809 -3.519,-9.366 -2.428,-10.76 8.336,-10.688 z"
       id="path134" /><path
       style="fill:none;stroke:#231f20;stroke-miterlimit:10"
       inkscape:connector-curvature="0"
       stroke-miterlimit="10"
       d="m 684.16466,31.288044 c 4.587,-0.146 8.252,1.611 11.416,4.889 15.493,16.043 24.724,35.864 34.284,55.498 1.411,2.896 -0.113,3.704 -2.541,5.422 -2.06,1.382 -13.087,9.990996 -14.918,9.254996 -4.213,-1.692 -3.453,-8.665996 -4.941,-13.217996 -6.483,-19.815 -16.666,-37.861 -26.916,-55.884 -0.928,-1.631 -3.349,-3.075 -1.976,-5.177 1.259,-1.928 3.686,-0.695 5.592,-0.785 z"
       id="path136" /><path
       style="fill:none;stroke:#231f20;stroke-miterlimit:10"
       inkscape:connector-curvature="0"
       stroke-miterlimit="10"
       d="m 918.27166,281.59904 c 5.855,20.226 6.681,38.218 7.14,56.25 0.073,2.714 -1.57,4.136 -4.368,4.023 -0.851,-0.032 -1.694,-0.21 -2.545,-0.298 -23.282,-2.469 -29.637,-11.606 -24.146,-34.543 0.797,-3.341 2.907,-5.377 5.65,-7.077 6.78,-4.204 13.604,-8.36 18.269,-18.355 z"
       id="path138" /><path
       style="fill:none;stroke:#231f20;stroke-miterlimit:10"
       inkscape:connector-curvature="0"
       stroke-miterlimit="10"
       d="m 315.50066,173.47204 c -3.028,6.274 -5.048,11.182 -7.672,15.746 -6.663,11.587 -13.033,23.274 -17.58,35.893 -1.946,5.401 -19.184,16.326 -24.73,16.297 -3.474,-0.02 -2.896,-2.289 -2.16,-4.087 7.405,-18.143 14.616,-36.548 27.438,-51.674 5.573,-6.577 14.165,-9.864 24.704,-12.175 z"
       id="path140" /><path
       style="fill:none;stroke:#231f20;stroke-miterlimit:10"
       inkscape:connector-curvature="0"
       stroke-miterlimit="10"
       d="m 334.55966,593.09204 c 6.844,15.121 13.713,30.24 20.524,45.379 3.247,7.223 6.61,14.398 9.46,21.773 1.22,3.15 5.881,7.367 -0.229,9.939 -5.016,2.117 -10.153,1.516 -13.198,-4.154 -2.812,-5.232 -5.736,-10.402 -8.517,-15.652 -6.089,-11.484 -12.184,-22.979 -18.126,-34.547 -1.493,-2.904 -3.852,-6.744 1.969,-7.686 7.515,-1.219 8.52,-5.303 6.041,-11.502 -0.36,-0.905 -1.187,-2.113 -1.187,-3.161 0.709,-0.141 2.555,-0.247 3.263,-0.389 z"
       id="path142" /><path
       style="fill:none;stroke:#231f20;stroke-miterlimit:10"
       inkscape:connector-curvature="0"
       stroke-miterlimit="10"
       d="m 351.61266,743.09904 c -20.647,-16.587 -39.188,-35.192 -55.027,-56.39 23.505,-6.613 17.372,-8.188 32.344,10.604 9.152,11.488 18.098,22.158 28.168,33.61 7.399,8.591 5.699,6.921 -1.853,10.03 -1.233,0.51 -2.425,1.408 -3.632,2.146 z"
       id="path144" /><path
       style="fill:none;stroke:#231f20;stroke-miterlimit:10"
       inkscape:connector-curvature="0"
       stroke-miterlimit="10"
       d="m 245.57166,605.93404 c -9.902,-18.628 -16.096,-35.489 -21.934,-55.721 3.86,-3.337 7.613,-6.805 11.61,-9.975 3.368,-2.667 6.341,-2.688 7.431,2.304 3.747,17.182 10.017,33.557 16.372,49.9 1.498,3.846 2.291,5.426 -3.136,7.928 -3.636,1.683 -6.514,2.829 -10.343,5.564 z"
       id="path146" /><path
       style="fill:none;stroke:#231f20;stroke-miterlimit:10"
       inkscape:connector-curvature="0"
       stroke-miterlimit="10"
       d="m 326.09466,670.15804 c 0.514,3.045 -0.491,4.304 -2.23,5.02 -3.16,1.287 -6.418,1.313 -8.608,-1.468 -3.139,-4.001 -5.953,-8.28 -8.63,-12.604 -10.428,-16.849 -21.295,-33.469 -28.887,-51.879 -1.285,-3.115 -3.444,-6.377 1.151,-8.678 4.346,-2.173 7.009,0.006 9.03,3.617 9.541,17.043 18.994,34.135 28.654,51.105 3.068,5.392 6.68,10.475 9.52,14.887 z"
       id="path148" /><path
       style="fill:none;stroke:#231f20;stroke-miterlimit:10"
       inkscape:connector-curvature="0"
       stroke-miterlimit="10"
       d="m 574.82866,650.14504 c 0.344,5.428 2.81,13.093 -6.118,13.134 -5.413,0.025 -4.676,-2.372 -5.667,-14.039 -1.533,-18.043 -2.42,-36.142 -3.507,-54.225 -0.136,-2.258 -0.023,-4.533 0.041,-6.803 0.1,-3.796 1.3,-6.809 5.802,-6.853 4.438,-0.048 5.823,2.828 6.023,6.669 0.592,11.309 1.188,22.617 1.81,33.924 0.496,9.044 1.034,18.085 1.616,28.193 z"
       id="path150" /><path
       style="fill:none;stroke:#231f20;stroke-miterlimit:10"
       inkscape:connector-curvature="0"
       stroke-miterlimit="10"
       d="m 298.59466,174.95804 c 22.585,-29.683 49.204,-52.669 77.469,-74.866 -20.822,27.118 -33.38,36.669 -39.979,48.136 -8.29,14.409 -20.696,21.965 -37.49,26.73 z"
       id="path152" /><path
       style="fill:none;stroke:#231f20;stroke-miterlimit:10"
       inkscape:connector-curvature="0"
       stroke-miterlimit="10"
       d="m 460.37666,133.63704 c -1.146,0.093 -2.106,0.279 -3.374,0.56 2.306,-8.947 6.562,-20.383 6.063,-22.889 -5.744,5.206 -8.029,15.281 -11.567,23.231 -2.23,0 -3.094,0.237 -5.597,0.523 0.22,-2.275 21.231,-57.769996 74.251,-98.817996 10e-4,10e-4 -40.757,38.876 -59.776,97.392996 z"
       id="path154" /><path
       style="fill:none;stroke:#231f20;stroke-miterlimit:10"
       inkscape:connector-curvature="0"
       stroke-miterlimit="10"
       d="m 939.73766,580.81304 c -7.173,0.181 -10.195,-3.071 -8.261,-9.415 3.475,-11.389 7.491,-22.613 11.188,-33.938 2.394,-7.326 7.746,-5.004 12.694,-3.961 5.71,1.197 5.33,5.188 3.905,9.234 -3.763,10.701 -7.681,21.355 -11.632,31.986 -1.386,3.736 -3.848,6.301 -7.894,6.094 z"
       id="path156" /><path
       style="fill:none;stroke:#231f20;stroke-miterlimit:10"
       inkscape:connector-curvature="0"
       stroke-miterlimit="10"
       d="m 976.25366,543.02704 c -1.62,4.725 -3.556,10.648 -5.681,16.502 -4.156,11.451 -8.439,22.859 -12.62,34.306 -1.656,4.535 -4.615,6.223 -9.338,4.64 -4.853,-1.627 -4.8,-5.107 -3.313,-8.914 6.383,-16.377 12.842,-32.732 19.309,-49.08 1.268,-3.201 3.216,-5.461 7.161,-4.043 2.512,0.902 4.785,2.066 4.482,6.589 z"
       id="path158" /><path
       style="fill:none;stroke:#231f20;stroke-miterlimit:10"
       inkscape:connector-curvature="0"
       stroke-miterlimit="10"
       d="m 878.56866,316.80804 c -0.14,2.521 0.542,5.311 -1.504,6.654 -2.922,1.913 -3.416,-1.252 -5.188,-2.248 -0.734,-0.416 -1.929,-1.886 -2.291,-1.647 -6.225,4.125 -11.967,-0.581 -17.886,-0.62 -2.654,-0.018 -4.837,0.295 -7.035,-1.398 -2.168,-1.671 -4.934,-2.49 -7.167,-0.749 -3.39,2.646 -5.56,2.714 -8.324,-1.002 -2.014,-2.702 -5.562,-2.829 -8.588,-1.055 -2.427,1.427 -5.076,2.856 -6.253,-0.681 -1.421,-4.278 -2.006,-8.997 0.551,-13.127 0.882,-1.427 2.524,-0.323 3.33,1.045 0.715,1.219 1.144,2.702 2.115,3.653 6.072,5.939 9.226,-3.23 13.093,-2.691 3.706,0.519 4.358,11.16 11.864,4.408 0.632,-0.566 1.208,-1.189 1.81,-1.786 3.497,7.971 12.165,-0.748 16.294,4.945 2.222,3.062 5.262,4.074 8.143,2.008 7.004,-5.033 6.637,0.125 7.036,4.291 z"
       id="path160" /><path
       style="fill:none;stroke:#231f20;stroke-miterlimit:10"
       inkscape:connector-curvature="0"
       stroke-miterlimit="10"
       d="m 406.86466,145.96204 c -2.381,10.858 -14.962,57.041 -16.336,59.165 -5.51,1.917 -4.642,2.032 -12.784,1.879 -0.123,-0.396 16.342,-57.479 20.564,-59.102 3.2,-1.229 8.556,-1.942 8.556,-1.942 z"
       id="path162" /><path
       style="fill:none;stroke:#231f20;stroke-miterlimit:10"
       inkscape:connector-curvature="0"
       stroke-miterlimit="10"
       d="m 617.05966,371.15604 c 1.553,-0.068 3.623,-1.093 5.675,0.168 0.796,7.472 -1.386,121.741 -1.515,122.862 -0.185,1.623 0.164,3.979 -1.919,4.23 -2.902,0.346 -2.65,-2.4 -2.869,-4.209 -0.267,-2.242 -1.789,-116.7 0.628,-123.051 z"
       id="path164" /><path
       style="fill:none;stroke:#231f20;stroke-miterlimit:10"
       inkscape:connector-curvature="0"
       stroke-miterlimit="10"
       d="m 955.73166,339.58904 c 10e-4,0.848 0.107,1.711 -0.019,2.541 -0.318,2.066 0.562,5.266 -2.616,5.303 -2.512,0.031 -2.179,-2.894 -2.405,-4.756 -1.139,-9.248 -2.092,-18.515 -3.304,-27.75 -3.16,-24.115 -7.012,-48.086 -14.788,-71.272 -0.798,-2.378 -3.295,-6.029 0.487,-7.337 3.15,-1.087 3.564,2.905 4.288,5.141 10.291,31.934 14.674,64.97 18.357,98.13 z"
       id="path166" /><path
       style="fill:none;stroke:#231f20;stroke-miterlimit:10"
       inkscape:connector-curvature="0"
       stroke-miterlimit="10"
       d="m 757.29966,89.318044 c -3.988,0.308 -6.816,0.352 -10.973,1.242 -11.438,-20.401 -22.689,-40.113 -39.685,-56.77 22.579,13.552 40.947,30.55 50.658,55.528 z"
       id="path168" /><path
       style="fill:none;stroke:#231f20;stroke-miterlimit:10"
       inkscape:connector-curvature="0"
       stroke-miterlimit="10"
       d="m 563.57366,26.974044 c -8.403,12.655 -16.533,22.821 -23.134,35.086 -9.292,17.262 -13.77,35.921 -18.203,54.716996 -0.885,3.756 -0.312,11.383 -6.363,9.76 -4.871,-1.306 -1.02,-7.505 -0.142,-11.275 7.471,-32.025996 21.499,-60.390996 41.713,-86.237996 0.689,-0.883 1.134,-0.938 2.022,-1.622 0.069,-0.053 0,0 4.107,-0.428 z"
       id="path170" /><path
       style="fill:none;stroke:#231f20;stroke-miterlimit:10"
       inkscape:connector-curvature="0"
       stroke-miterlimit="10"
       d="m 813.45866,99.227044 c -9.005,-3.503 -11.277,-4.13 -21.119,-5.88 -9.333,-14.141 -16.768,-24.173 -44.37,-47.069 20.83,6.12 52.421,30.817 65.489,52.949 z"
       id="path172" /><path
       style="fill:none;stroke:#231f20;stroke-miterlimit:10"
       inkscape:connector-curvature="0"
       stroke-miterlimit="10"
       d="m 652.39866,654.84204 c 1.73,-23.25 3.345,-45.271 5.048,-67.289 0.205,-2.676 -0.156,-6.737 3.711,-6.445 3.874,0.285 2.908,4.348 2.699,6.945 -1.757,22.016 -3.594,44.025 -5.651,66.006 -0.283,3.016 -0.394,8.215 -3.467,8.215 -3.431,-10e-4 -2.331,-4.72 -2.34,-7.432 z"
       id="path174" /><path
       style="fill:none;stroke:#231f20;stroke-miterlimit:10"
       inkscape:connector-curvature="0"
       stroke-miterlimit="10"
       d="m 748.52266,730.40204 c 3.959,-10.595 10.339,-26.997 14.4,-37.551 1.924,-5.01 4.715,-14.096 6.709,-19.072 0.457,-1.141 9.692,-0.9 9.503,-0.42 -5.662,14.786 -16.259,43.021 -21.951,57.794 -0.42,1.092 -8.985,0.114 -8.661,-0.751 z"
       id="path176" /><path
       style="fill:none;stroke:#231f20;stroke-miterlimit:10"
       inkscape:connector-curvature="0"
       stroke-miterlimit="10"
       d="m 659.02466,545.14604 c -0.462,-9.35 0.3,-20.873 1.715,-32.365 0.234,-1.883 0.029,-4.627 2.643,-4.537 2.515,0.098 2.406,2.801 2.439,4.717 0.347,19.17 0.161,38.318 -1.734,57.426 -0.17,1.689 -0.392,3.732 -2.6,3.66 -2.173,-0.078 -2.418,-2.164 -2.433,-3.842 -0.069,-7.611 -0.03,-15.222 -0.03,-25.059 z"
       id="path178" /><path
       style="fill:none;stroke:#231f20;stroke-miterlimit:10"
       inkscape:connector-curvature="0"
       stroke-miterlimit="10"
       d="m 871.06366,136.01404 c -5.198,-4.431 -32.792,-24.111 -37.992,-28.542 -16.312,-19.937996 -24.75,-27.790996 -48.938,-46.994996 41.985,26.281 66.288,44.662996 86.93,75.536996 z"
       id="path180" /><path
       style="fill:none;stroke:#231f20;stroke-miterlimit:10"
       inkscape:connector-curvature="0"
       stroke-miterlimit="10"
       d="m 267.06166,596.57004 c -9.602,-15.967 -18.463,-41.174 -22.562,-59.207 4.101,-2.5 5.172,-2.437 8.958,-2.461 5.941,17.918 15.665,49.701 20.837,59.627 -3.176,0.889 -3.406,0.959 -7.233,2.041 z"
       id="path182" /><path
       style="fill:none;stroke:#231f20;stroke-miterlimit:10"
       inkscape:connector-curvature="0"
       stroke-miterlimit="10"
       d="m 674.50766,197.07804 c 5.899,-0.282 7.823,-0.564 11.86,-0.44 1.324,18.888 5.048,100.938 5.048,119.86 -4.794,0 -7.113,-0.126 -12.808,0.328 -3.611,-38.338 -1.945,-81.4 -4.1,-119.748 z"
       id="path184" /><path
       style="fill:none;stroke:#231f20;stroke-miterlimit:10"
       inkscape:connector-curvature="0"
       stroke-miterlimit="10"
       d="m 773.65066,89.410044 c -2.373,-0.237 -4.965,-0.5 -7.284,-0.457 -8.728,-17.386 -21.513,-31.088 -34.202,-45.552 9.945,6.241 28.323,17.623 41.486,46.009 z"
       id="path186" /><path
       style="fill:none;stroke:#231f20;stroke-miterlimit:10"
       inkscape:connector-curvature="0"
       stroke-miterlimit="10"
       d="m 466.34666,132.70004 c 9.977,-31.199 25.348,-63.261996 51.063,-85.878996 -19.744,20.153 -34.997,61.401996 -44.124,84.409996 -2.332,0.403 -3.539,0.553 -6.939,1.469 z"
       id="path188" /><path
       style="fill:none;stroke:#231f20;stroke-miterlimit:10"
       inkscape:connector-curvature="0"
       stroke-miterlimit="10"
       d="m 483.08166,65.318044 c -23.589,27.374 -30.194,45.019996 -42.521,69.874996 -1.897,0.584 -2.843,0.424 -5.177,1.038 8.007,-28.257 25.852,-53.650996 46.888,-74.457996 1.072,1.197 1.917,2.354 0.81,3.545 z"
       id="path190" /><path
       style="fill:none;stroke:#231f20;stroke-miterlimit:10"
       inkscape:connector-curvature="0"
       stroke-miterlimit="10"
       d="m 338.42366,221.84804 c -5.568,18.775 -14.802,85.553 -16.873,114.279 -4.015,0.196 -4.805,0.188 -10.208,1.305 1.815,-28.016 10.733,-86.605 19.176,-113.62 1.66,-0.703 7.599,-2.73 7.905,-1.964 z"
       id="path192" /><path
       style="fill:none;stroke:#231f20;stroke-miterlimit:10"
       inkscape:connector-curvature="0"
       stroke-miterlimit="10"
       d="m 733.20966,730.40204 c 3.96,-10.595 10.339,-26.997 14.4,-37.551 1.925,-5.01 4.715,-14.096 6.71,-19.072 0.456,-1.141 9.688,-0.9 9.503,-0.42 -5.663,14.786 -16.26,43.021 -21.951,57.794 -0.421,1.092 -8.986,0.114 -8.662,-0.751 z"
       id="path194" /><path
       style="fill:none;stroke:#231f20;stroke-miterlimit:10"
       inkscape:connector-curvature="0"
       stroke-miterlimit="10"
       d="m 760.41066,731.09104 c 3.961,-10.585 21.203,-52.194 23.197,-57.177 0.457,-1.142 9.928,0.049 9.741,0.529 -5.663,14.782 -18.583,42.633 -24.275,57.404 -0.42,1.092 -8.985,0.106 -8.663,-0.756 z"
       id="path196" /><path
       style="fill:none;stroke:#231f20;stroke-miterlimit:10"
       inkscape:connector-curvature="0"
       stroke-miterlimit="10"
       d="m 424.86166,142.07104 c -2.38,10.858 -14.96,57.042 -16.336,59.165 -5.51,1.914 -4.642,2.029 -12.783,1.876 -0.124,-0.397 16.341,-57.479 20.563,-59.1 3.202,-1.23 8.556,-1.941 8.556,-1.941 z"
       id="path198" /><path
       style="fill:none;stroke:#231f20;stroke-miterlimit:10"
       inkscape:connector-curvature="0"
       stroke-miterlimit="10"
       d="m 389.24266,150.57204 c -4.134,10.859 -15.63,56.016 -18.017,58.14 -9.566,1.915 -10.167,3.742 -24.306,3.589 -0.215,-0.396 17.06,-56.104 24.39,-57.727 5.56,-1.227 17.933,-4.002 17.933,-4.002 z"
       id="path200" /><path
       style="fill:none;stroke:#231f20;stroke-miterlimit:10"
       inkscape:connector-curvature="0"
       stroke-miterlimit="10"
       d="m 788.36666,110.64804 c 69.708,13.613 106.427,74.878 113.69,105.465 2.06,10.314 2.111,20.939 -1.969,30.862 -7.208,17.529 -21.586,25.119 -39.828,26.359 -28.015,1.905 -52.567,-8.071 -75.349,-22.915 -20.37,-13.27 -36.893,-30.335 -48.498,-51.82 -7.617,-14.102 -11.985,-29.031 -10.513,-45.094 0.483,-25.638 17.086,-51.098 62.467,-42.857 z"
       id="path202" /><path
       style="fill:none;stroke:#231f20;stroke-miterlimit:10"
       inkscape:connector-curvature="0"
       stroke-miterlimit="10"
       d="m 811.49766,167.11804 c 20.911,4.084 31.928,22.463 34.108,31.638 0.616,3.095 0.632,6.284 -0.592,9.261 -2.162,5.258 -6.475,7.536 -11.948,7.908 -8.403,0.572 -15.769,-2.422 -22.605,-6.875 -6.111,-3.98 -11.067,-9.101 -14.548,-15.547 -2.286,-4.231 -3.596,-8.708 -3.154,-13.527 0.143,-7.695 5.123,-15.331 18.739,-12.858 z"
       id="path204" /><path
       style="fill:none;stroke:#0000ff;stroke-miterlimit:10;stroke-opacity:1"
       inkscape:connector-curvature="0"
       stroke-miterlimit="10"
       d="m 815.41966,180.52504 c 10.457,2.042 15.965,11.232 17.056,15.819 0.308,1.548 0.315,3.142 -0.295,4.63 -1.083,2.63 -3.238,3.769 -5.977,3.955 -4.2,0.286 -7.883,-1.212 -11.3,-3.437 -3.057,-1.992 -5.534,-4.552 -7.276,-7.773 -1.143,-2.116 -1.797,-4.355 -1.578,-6.765 0.074,-3.846 2.563,-7.665 9.37,-6.429 z"
       id="path206" /><line
       style="fill:none;stroke:#231f20;stroke-miterlimit:10"
       stroke-miterlimit="10"
       x1="827.59766"
       y1="215.79305"
       x2="843.95361"
       y2="273.11203"
       id="line208" /><line
       style="fill:none;stroke:#231f20;stroke-miterlimit:10"
       stroke-miterlimit="10"
       x1="828.98163"
       y1="174.97804"
       x2="846.01465"
       y2="136.34605"
       id="line210" /><line
       style="fill:none;stroke:#231f20;stroke-miterlimit:10"
       stroke-miterlimit="10"
       x1="845.60565"
       y1="198.75604"
       x2="900.37164"
       y2="210.11005"
       id="line212" /><path
       style="fill:none;stroke:#231f20;stroke-miterlimit:10"
       inkscape:connector-curvature="0"
       stroke-miterlimit="10"
       d="m 799.97766,167.91404 c -1.083,-1.407 -41.111,-57.506 -41.111,-57.506"
       id="path214" /><line
       style="fill:none;stroke:#231f20;stroke-miterlimit:10"
       stroke-miterlimit="10"
       x1="792.75763"
       y1="179.97505"
       x2="726.96362"
       y2="143.47305"
       id="line216" /><line
       style="fill:none;stroke:#231f20;stroke-miterlimit:10"
       stroke-miterlimit="10"
       x1="806.00763"
       y1="205.77104"
       x2="770.69464"
       y2="240.01205"
       id="line218" /><line
       style="fill:none;stroke:#231f20;stroke-miterlimit:10"
       stroke-miterlimit="10"
       x1="801.07062"
       y1="259.87503"
       x2="794.69763"
       y2="278.46002"
       id="line220" /><line
       style="fill:none;stroke:#231f20;stroke-miterlimit:10"
       stroke-miterlimit="10"
       x1="780.71466"
       y1="247.59004"
       x2="769.50867"
       y2="262.74103"
       id="line222" /><line
       style="fill:none;stroke:#231f20;stroke-miterlimit:10"
       stroke-miterlimit="10"
       x1="736.41461"
       y1="198.60005"
       x2="715.55664"
       y2="200.92505"
       id="line224" /><path
       style="fill:none;stroke:#231f20;stroke-miterlimit:10"
       inkscape:connector-curvature="0"
       stroke-miterlimit="10"
       d="m 725.61666,163.40004 c -2.071,-0.519 -22.227,-7.738 -22.227,-7.738"
       id="path226" /><path
       style="fill:none;stroke:#231f20;stroke-miterlimit:10"
       inkscape:connector-curvature="0"
       stroke-miterlimit="10"
       d="m 717.07466,109.07004 c -0.144,0.163 17.682,16.264 17.682,16.264"
       id="path228" /><line
       style="fill:none;stroke:#231f20;stroke-miterlimit:10"
       stroke-miterlimit="10"
       x1="736.41461"
       y1="95.742043"
       x2="747.96967"
       y2="114.23504"
       id="line230" /><line
       style="fill:none;stroke:#231f20;stroke-miterlimit:10"
       stroke-miterlimit="10"
       x1="784.13263"
       y1="93.981041"
       x2="788.36664"
       y2="110.64804"
       id="line232" /><line
       style="fill:none;stroke:#231f20;stroke-miterlimit:10"
       stroke-miterlimit="10"
       x1="835.61163"
       y1="114.23504"
       x2="832.67865"
       y2="127.47304"
       id="line234" /><line
       style="fill:none;stroke:#231f20;stroke-miterlimit:10"
       stroke-miterlimit="10"
       x1="871.06366"
       y1="159.78305"
       x2="882.94263"
       y2="152.35706"
       id="line236" /><line
       style="fill:none;stroke:#231f20;stroke-miterlimit:10"
       stroke-miterlimit="10"
       x1="879.46063"
       y1="170.36105"
       x2="892.50366"
       y2="163.89005"
       id="line238" /><line
       style="fill:none;stroke:#231f20;stroke-miterlimit:10"
       stroke-miterlimit="10"
       x1="902.05664"
       y1="216.11404"
       x2="923.31665"
       y2="222.89105"
       id="line240" /><line
       style="fill:none;stroke:#231f20;stroke-miterlimit:10"
       stroke-miterlimit="10"
       x1="893.86664"
       y1="257.71503"
       x2="914.15265"
       y2="276.78104"
       id="line242" /><line
       style="fill:none;stroke:#231f20;stroke-miterlimit:10"
       stroke-miterlimit="10"
       x1="890.86261"
       y1="261.06604"
       x2="910.76764"
       y2="280.71002"
       id="line244" /><line
       style="fill:none;stroke:#231f20;stroke-miterlimit:10"
       stroke-miterlimit="10"
       x1="866.72064"
       y1="272.59705"
       x2="879.46063"
       y2="295.99603"
       id="line246" /><line
       style="fill:none;stroke:#231f20;stroke-miterlimit:10"
       stroke-miterlimit="10"
       x1="818.25763"
       y1="203.34904"
       x2="816.75867"
       y2="212.59605"
       id="line248" /><line
       style="fill:none;stroke:#231f20;stroke-miterlimit:10"
       stroke-miterlimit="10"
       x1="808.87762"
       y1="207.97205"
       x2="814.90363"
       y2="201.49205"
       id="line250" /><line
       style="fill:none;stroke:#231f20;stroke-miterlimit:10"
       stroke-miterlimit="10"
       x1="808.27966"
       y1="194.83604"
       x2="797.65765"
       y2="196.43805"
       id="line252" /><line
       style="fill:none;stroke:#231f20;stroke-miterlimit:10"
       stroke-miterlimit="10"
       x1="806.23163"
       y1="189.99905"
       x2="792.94464"
       y2="185.15805"
       id="line254" /><line
       style="fill:none;stroke:#231f20;stroke-miterlimit:10"
       stroke-miterlimit="10"
       x1="806.00763"
       y1="186.50905"
       x2="792.67365"
       y2="179.19405"
       id="line256" /><line
       style="fill:none;stroke:#231f20;stroke-miterlimit:10"
       stroke-miterlimit="10"
       x1="809.31866"
       y1="181.08804"
       x2="798.69366"
       y2="168.57205"
       id="line258" /><line
       style="fill:none;stroke:#231f20;stroke-miterlimit:10"
       stroke-miterlimit="10"
       x1="820.52167"
       y1="169.96504"
       x2="819.77765"
       y2="181.88104"
       id="line260" /><line
       style="fill:none;stroke:#231f20;stroke-miterlimit:10"
       stroke-miterlimit="10"
       x1="828.13763"
       y1="188.26704"
       x2="836.92761"
       y2="182.59305"
       id="line262" /><line
       style="fill:none;stroke:#231f20;stroke-miterlimit:10"
       stroke-miterlimit="10"
       x1="831.32062"
       y1="193.20805"
       x2="844.92664"
       y2="196.43805"
       id="line264" /><line
       style="fill:none;stroke:#231f20;stroke-miterlimit:10"
       stroke-miterlimit="10"
       x1="826.66266"
       y1="204.88506"
       x2="831.32062"
       y2="215.99104"
       id="line266" /><line
       style="fill:none;stroke:#231f20;stroke-miterlimit:10"
       stroke-miterlimit="10"
       x1="832.17963"
       y1="200.97404"
       x2="845.01361"
       y2="208.01605"
       id="line268" /></g><g
     id="Engrave_Drawing"
     display="none" /><g
     id="Engrave_Photo"
     display="none" /><g
     id="Engrave_3D"
     display="none" /></svg>