<?xml version="1.0" encoding="UTF-8" standalone="no"?>
<!-- Created with Inkscape (http://www.inkscape.org/) -->

<svg
   xmlns:dc="http://purl.org/dc/elements/1.1/"
   xmlns:cc="http://creativecommons.org/ns#"
   xmlns:rdf="http://www.w3.org/1999/02/22-rdf-syntax-ns#"
   xmlns:svg="http://www.w3.org/2000/svg"
   xmlns="http://www.w3.org/2000/svg"
   xmlns:sodipodi="http://sodipodi.sourceforge.net/DTD/sodipodi-0.dtd"
   xmlns:inkscape="http://www.inkscape.org/namespaces/inkscape"
   version="1.1"
   id="svg4571"
   width="564"
   height="2271"
   viewBox="0 0 564 2271"
   sodipodi:docname="FigurasSagrada.svg"
   inkscape:version="0.92.1 r15371">
  <metadata
     id="metadata4577">
    <rdf:RDF>
      <cc:Work
         rdf:about="">
        <dc:format>image/svg+xml</dc:format>
        <dc:type
           rdf:resource="http://purl.org/dc/dcmitype/StillImage" />
        <dc:title />
      </cc:Work>
    </rdf:RDF>
  </metadata>
  <defs
     id="defs4575" />
  <sodipodi:namedview
     pagecolor="#ffffff"
     bordercolor="#666666"
     borderopacity="1"
     objecttolerance="10"
     gridtolerance="10"
     guidetolerance="10"
     inkscape:pageopacity="0"
     inkscape:pageshadow="2"
     inkscape:window-width="1920"
     inkscape:window-height="1051"
     id="namedview4573"
     showgrid="false"
     inkscape:zoom="2.1695818"
     inkscape:cx="336.31871"
     inkscape:cy="548.96046"
     inkscape:window-x="0"
     inkscape:window-y="0"
     inkscape:window-maximized="1"
     inkscape:current-layer="svg4571" />
  <path
     style="fill:none;stroke:#000000;stroke-width:0.94488192;stroke-linecap:butt;stroke-linejoin:miter;stroke-miterlimit:4;stroke-dasharray:none;stroke-dashoffset:0;stroke-opacity:1"
     d="m 314.78533,1814.9335 132.55318,-0.088 67.10621,-114.7961 -66.75267,-116.2944 -133.64488,-0.4524 -65.80054,116.382 z"
     id="path4581"
     inkscape:connector-curvature="0" />
  <path
     style="fill:none;stroke:#000000;stroke-width:0.94488192;stroke-linecap:butt;stroke-linejoin:miter;stroke-miterlimit:4;stroke-dasharray:none;stroke-dashoffset:0;stroke-opacity:1"
     d="m 327.79066,1746.0955 8.72583,-46.1335 -9.36872,-46.5128"
     id="path4617"
     inkscape:connector-curvature="0"
     sodipodi:nodetypes="ccc" />
  <path
     style="fill:none;stroke:#000000;stroke-width:0.94488192;stroke-linecap:butt;stroke-linejoin:miter;stroke-miterlimit:4;stroke-dasharray:none;stroke-dashoffset:0;stroke-opacity:1"
     d="m 336.51649,1699.962 44.19918,0.129 23.10944,-39.2655 -36.48009,-30.9741"
     id="path4619"
     inkscape:connector-curvature="0" />
  <path
     style="fill:none;stroke:#000000;stroke-width:0.94488192;stroke-linecap:butt;stroke-linejoin:miter;stroke-miterlimit:4;stroke-dasharray:none;stroke-dashoffset:0;stroke-opacity:1"
     d="m 448.95692,1677.3102 -45.13181,-16.4847"
     id="path4621"
     inkscape:connector-curvature="0" />
  <path
     style="fill:none;stroke:#000000;stroke-width:0.94488192;stroke-linecap:butt;stroke-linejoin:miter;stroke-miterlimit:4;stroke-dasharray:none;stroke-dashoffset:0;stroke-opacity:1"
     d="m 380.71567,1700.091 21.73375,37.6439 -35.51254,30.4455"
     id="path4623"
     inkscape:connector-curvature="0"
     sodipodi:nodetypes="ccc" />
  <path
     style="fill:none;stroke:#000000;stroke-width:0.94488192;stroke-linecap:butt;stroke-linejoin:miter;stroke-miterlimit:4;stroke-dasharray:none;stroke-dashoffset:0;stroke-opacity:1"
     d="m 402.44942,1737.7349 45.57151,-14.253"
     id="path4625"
     inkscape:connector-curvature="0" />
  <path
     style="fill:none;stroke:#000000;stroke-width:0.94488192;stroke-linecap:butt;stroke-linejoin:miter;stroke-miterlimit:4;stroke-dasharray:none;stroke-dashoffset:0;stroke-opacity:1"
     d="m 248.24663,1699.6851 199.09188,115.1609 0.35354,-231.0905 z"
     id="path4627"
     inkscape:connector-curvature="0" />
  <path
     style="fill:none;stroke:#000000;stroke-width:0.94488192;stroke-linecap:butt;stroke-linejoin:miter;stroke-miterlimit:4;stroke-dasharray:none;stroke-dashoffset:0;stroke-opacity:1"
     d="m 314.78533,1814.9335 -0.73816,-231.6304 200.39755,116.7468 z"
     id="path4629"
     inkscape:connector-curvature="0" />
  <path
     style="fill:none;stroke:#000000;stroke-width:0.94488192;stroke-linecap:butt;stroke-linejoin:miter;stroke-miterlimit:4;stroke-dasharray:none;stroke-dashoffset:0;stroke-opacity:1"
     d="m 447.69205,1583.7555 -133.79899,115.4699 133.44545,115.6206 -32.65377,-173.4228 -166.43811,58.2619 165.86777,58.2906 z"
     id="path4631"
     inkscape:connector-curvature="0" />
  <path
     style="fill:none;stroke:#000000;stroke-width:0.94488192;stroke-linecap:butt;stroke-linejoin:miter;stroke-miterlimit:4;stroke-dasharray:none;stroke-dashoffset:0;stroke-opacity:1"
     d="M 514.44472,1700.0499 403.82511,1660.8255"
     id="path4633"
     inkscape:connector-curvature="0" />
  <path
     style="fill:none;stroke:#000000;stroke-width:0.94488192;stroke-linecap:butt;stroke-linejoin:miter;stroke-miterlimit:4;stroke-dasharray:none;stroke-dashoffset:0;stroke-opacity:1"
     d="m 447.69205,1583.7555 -132.90672,231.178"
     id="path4635"
     inkscape:connector-curvature="0" />
  <path
     style="fill:none;stroke:#000000;stroke-width:0.94488192;stroke-linecap:butt;stroke-linejoin:miter;stroke-miterlimit:4;stroke-dasharray:none;stroke-dashoffset:0;stroke-opacity:1"
     d="M 447.33851,1814.846 314.04717,1583.3031"
     id="path4637"
     inkscape:connector-curvature="0" />
  <path
     style="fill:none;stroke:#000000;stroke-width:0.94488192;stroke-linecap:butt;stroke-linejoin:miter;stroke-miterlimit:4;stroke-dasharray:none;stroke-dashoffset:0;stroke-opacity:1"
     d="m 248.24663,1699.6851 266.19809,0.3648"
     id="path4639"
     inkscape:connector-curvature="0" />
  <path
     style="fill:none;stroke:#000000;stroke-width:0.94488192;stroke-linecap:butt;stroke-linejoin:miter;stroke-miterlimit:4;stroke-dasharray:none;stroke-dashoffset:0;stroke-opacity:1"
     d="m 314.04717,1583.3031 22.46932,116.6589"
     id="path4641"
     inkscape:connector-curvature="0" />
  <path
     style="fill:none;stroke:#000000;stroke-width:0.94488192;stroke-linecap:butt;stroke-linejoin:miter;stroke-miterlimit:4;stroke-dasharray:none;stroke-dashoffset:0;stroke-opacity:1"
     d="M 314.78533,1814.9335 336.51649,1699.962"
     id="path4643"
     inkscape:connector-curvature="0" />
  <path
     style="color:#000000;font-style:normal;font-variant:normal;font-weight:normal;font-stretch:normal;font-size:medium;line-height:normal;font-family:sans-serif;font-variant-ligatures:normal;font-variant-position:normal;font-variant-caps:normal;font-variant-numeric:normal;font-variant-alternates:normal;font-feature-settings:normal;text-indent:0;text-align:start;text-decoration:none;text-decoration-line:none;text-decoration-style:solid;text-decoration-color:#000000;letter-spacing:normal;word-spacing:normal;text-transform:none;writing-mode:lr-tb;direction:ltr;text-orientation:mixed;dominant-baseline:auto;baseline-shift:baseline;text-anchor:start;white-space:normal;shape-padding:0;clip-rule:nonzero;display:inline;overflow:visible;visibility:visible;opacity:1;isolation:auto;mix-blend-mode:normal;color-interpolation:sRGB;color-interpolation-filters:linearRGB;solid-color:#000000;solid-opacity:1;vector-effect:none;fill:#ff0000;fill-opacity:1;fill-rule:nonzero;stroke:none;stroke-width:1.88976383;stroke-linecap:butt;stroke-linejoin:miter;stroke-miterlimit:4;stroke-dasharray:none;stroke-dashoffset:0;stroke-opacity:1;color-rendering:auto;image-rendering:auto;shape-rendering:auto;text-rendering:auto;enable-background:accumulate"
     d="m 346.5498,1641.3627 0.44174,118.855 1.40722,-0.8009 101.50778,-57.8162 z m 1.90061,3.296 97.67039,56.9239 -97.25027,55.3897 z"
     id="path4645"
     inkscape:connector-curvature="0" />
  <path
     style="fill:none;stroke:#000000;stroke-width:0.94488192;stroke-linecap:butt;stroke-linejoin:miter;stroke-miterlimit:4;stroke-dasharray:none;stroke-dashoffset:0;stroke-opacity:1"
     d="m 314.78533,1814.9335 87.66409,-77.1986 111.9953,-37.685"
     id="path4647"
     inkscape:connector-curvature="0" />
  <path
     style="fill:none;stroke:#000000;stroke-width:0.94488192;stroke-linecap:butt;stroke-linejoin:miter;stroke-miterlimit:4;stroke-dasharray:none;stroke-dashoffset:0;stroke-opacity:1"
     d="m 314.04717,1583.3031 89.77794,77.5224"
     id="path4649"
     inkscape:connector-curvature="0" />
  <path
     style="color:#000000;font-style:normal;font-variant:normal;font-weight:normal;font-stretch:normal;font-size:medium;line-height:normal;font-family:sans-serif;font-variant-ligatures:normal;font-variant-position:normal;font-variant-caps:normal;font-variant-numeric:normal;font-variant-alternates:normal;font-feature-settings:normal;text-indent:0;text-align:start;text-decoration:none;text-decoration-line:none;text-decoration-style:solid;text-decoration-color:#000000;letter-spacing:normal;word-spacing:normal;text-transform:none;writing-mode:lr-tb;direction:ltr;text-orientation:mixed;dominant-baseline:auto;baseline-shift:baseline;text-anchor:start;white-space:normal;shape-padding:0;clip-rule:nonzero;display:inline;overflow:visible;visibility:visible;opacity:1;isolation:auto;mix-blend-mode:normal;color-interpolation:sRGB;color-interpolation-filters:linearRGB;solid-color:#000000;solid-opacity:1;vector-effect:none;fill:#00ff00;fill-opacity:1;fill-rule:nonzero;stroke:none;stroke-width:1.88976383;stroke-linecap:butt;stroke-linejoin:miter;stroke-miterlimit:4;stroke-dasharray:3.77952766, 1.88976383;stroke-dashoffset:0;stroke-opacity:1;color-rendering:auto;image-rendering:auto;shape-rendering:auto;text-rendering:auto;enable-background:accumulate"
     d="m 229.02523,1672.105 -0.0203,0.012 -0.0203,0.012 -0.79381,0.5391 1.06418,1.562 0.75422,-0.514 1.38848,-0.849 1.00569,-0.5471 -0.90468,-1.6608 -1.02599,0.5589 -0.0203,0.012 -0.0203,0.012 z m 5.03023,-0.6038 0.16261,-0.078 0.005,-0 1.44137,-0.6089 1.49762,-0.5467 0.009,-0 0.27219,-0.083 -0.55988,-1.8057 -0.31509,0.099 -0.0253,0 -0.0186,0.011 -1.50704,0.5499 -0.0203,0.012 -0.0203,0.012 -1.49098,0.6285 -0.0203,0.012 -0.0203,0.012 -0.2052,0.098 z m -7.7491,2.5547 -0.0203,0.012 -0.0186,0.011 -1.22973,1.0302 -0.0203,0.012 -0.0153,0.02 -1.1689,1.0808 -0.0136,0.019 -0.0153,0.02 -0.12434,0.1284 1.34993,1.3225 0.0931,-0.096 0.0152,-0.01 1.11899,-1.0384 0.0152,-0.01 1.21471,-1.0172 0.002,-10e-4 0.28465,-0.2139 -1.14048,-1.5067 z m 12.90559,-4.393 0.87718,-0.2267 0.0236,-0 0.0253,-0 1.44787,-0.2969 0.0101,-0.01 1.23033,-0.1894 -0.2889,-1.8675 -1.24236,0.1919 -0.0236,0 -0.0236,0 -1.53858,0.3155 -0.0236,0 -0.0253,0 -0.92123,0.2363 z m -17.58738,8.9362 -0.0136,0.02 -0.0136,0.019 -0.97863,1.219 -0.0136,0.019 -0.0136,0.019 -0.66602,0.9168 1.52804,1.1114 0.63925,-0.881 0.0101,-0.01 0.94102,-1.1748 0.0119,-0.018 0.0153,-0.02 0.6877,-0.7737 -1.41239,-1.255 z m 22.98755,-9.8641 1.47278,-0.086 0.0169,0 1.4833,-0.013 0.0239,0 0.0219,-0 0.66757,0.027 0.073,-1.8892 -0.71041,-0.027 -0.0239,-0 -0.0219,0 -1.54457,0.012 -0.0219,0 -0.0246,4e-4 -1.51905,0.088 z m -25.8146,13.7449 -0.0109,0.02 -0.0136,0.019 -0.78119,1.3306 -0.0136,0.019 -0.008,0.021 -0.71805,1.3618 -0.0109,0.02 -0.008,0.021 -0.25964,0.5581 1.71215,0.7975 0.26065,-0.5563 0.67379,-1.2822 0.0102,-0.018 0.0116,-0.023 0.74798,-1.2709 0.0349,-0.049 -1.58122,-1.0356 z m 31.34002,-13.6941 0.42482,0.037 1.50943,0.2043 0.0119,0 1.41571,0.2607 0.0151,0 0.22287,0.054 0.4303,-1.8406 -0.23793,-0.057 -0.0222,-0 -0.0232,-0.01 -1.5042,-0.2773 -0.0215,-0.01 -0.0222,-0 -1.51915,-0.2054 -0.0222,-0 -0.0229,-7e-4 -0.47066,-0.042 z m -34.15382,19.3556 -0.008,0.021 -0.007,0.023 -0.512,1.4413 -0.007,0.023 -0.008,0.021 -0.44068,1.4632 -0.006,0.022 -0.006,0.022 -0.0398,0.1537 1.83376,0.4614 0.0256,-0.1118 0.005,-0.019 0.43838,-1.4438 0.4821,-1.3564 0.21206,-0.5194 -1.74934,-0.7175 z m 39.54051,-18.3498 0.84219,0.24 0.0137,0 1.38971,0.4695 1.24111,0.4856 0.6889,-1.7599 -1.24106,-0.4855 -0.0209,-0.01 -0.0209,-0.01 -1.44773,-0.488 -0.0199,-0.01 -0.0225,-0.01 -0.88485,-0.2514 z m -41.21856,24.4043 -0.005,0.023 -0.003,0.022 -0.22878,1.51 -0.003,0.022 -0.003,0.022 -0.12676,1.2414 1.8798,0.1934 0.12489,-1.229 0.002,-0.013 0.2236,-1.4643 0.18938,-0.9415 -1.8537,-0.3708 z m 46.34681,-22.4711 1.20213,0.6095 0.0102,0.01 1.28773,0.7382 0.002,-10e-4 0.70965,0.4518 1.01572,-1.5923 -0.74971,-0.4782 -0.0187,-0.012 -0.0211,-0.013 -1.33092,-0.7584 -0.0201,-0.011 -0.0196,-0.011 -1.21209,-0.6151 z m -46.84123,28.7397 0.002,0.024 -1.3e-4,0.023 0.0667,1.5334 0.002,0.023 0.002,0.024 0.0728,0.7901 1.88129,-0.1751 -0.0692,-0.7448 -8e-4,-0.013 -0.0657,-1.4732 0.002,-0 0.006,-1.4468 -1.88896,-0.01 z m 51.57453,-25.8929 0.23502,0.1688 0.008,0.01 1.13969,0.8959 0.007,0.01 1.12986,0.9804 0.007,0.01 0.27299,0.2619 1.31035,-1.3632 -0.27858,-0.2677 -0.0167,-0.017 -0.0179,-0.015 -1.17149,-1.0174 -0.0189,-0.017 -0.0174,-0.014 -1.21409,-0.9544 -0.0197,-0.014 -0.0197,-0.014 -0.24132,-0.1719 z m -51.13453,30.6277 0.004,0.022 0.005,0.025 0.29701,1.5223 0.004,0.023 0.005,0.024 0.37519,1.5132 0.005,0.025 0.008,0.022 0.0767,0.2578 1.8092,-0.546 -0.0767,-0.2579 -0.35132,-1.421 v 0 l -0.2948,-1.5145 -0.003,-0.01 -0.0498,-0.3479 -1.87048,0.268 z m 55.23198,-27.0034 0.56742,0.6039 1.00579,1.1874 0.78832,1.0334 1.50101,-1.1463 -0.81679,-1.071 -0.0137,-0.02 -0.0167,-0.017 -1.02192,-1.2075 -0.015,-0.018 -0.0167,-0.017 -0.5842,-0.6212 z m -53.52646,33.2152 0.008,0.022 0.009,0.023 0.6124,1.4709 0.0103,0.022 0.0108,0.023 0.5162,1.0777 1.7045,-0.8172 -0.5113,-1.0692 -0.005,-0.01 -0.58892,-1.4145 -0.004,-0.011 -0.31839,-0.8874 -1.77922,0.637 z m 56.90909,-28.9188 0.81971,1.3378 0.74154,1.3625 0.005,0.013 0.66906,1.3932 v 0 l 0.20767,0.5003 1.74489,-0.7278 -0.20967,-0.5037 -0.01,-0.021 -0.01,-0.021 -0.6945,-1.4529 -0.01,-0.021 -0.012,-0.021 -0.77699,-1.4278 -0.83116,0.4511 0.80716,-0.4926 -0.83141,-1.3581 z m -54.76576,33.4007 0.0115,0.02 0.0125,0.022 0.84801,1.3868 0.0137,0.02 0.0132,0.019 0.90931,1.3289 0.0132,0.019 0.0132,0.019 0.24029,0.3146 1.5027,-1.1472 -0.21073,-0.2752 -0.005,-0.01 -0.89662,-1.3069 -0.009,-0.011 -0.80926,-1.3235 -0.06,-0.112 -1.66013,0.9019 z m 3.28158,4.6683 0.57351,0.6769 0.0155,0.019 0.0167,0.017 1.07492,1.1431 0.015,0.018 0.0184,0.016 0.9528,0.9159 1.30961,-1.3606 -0.91846,-0.8837 -1.0581,-1.1257 -0.55842,-0.6586 z m 54.84082,-31.0715 0.4458,1.4791 0.34293,1.383 1.83306,-0.4539 -0.35354,-1.4287 -0.005,-0.024 -0.008,-0.022 -0.45247,-1.5024 -0.006,-0.023 -0.009,-0.023 -0.24992,-0.6946 -1.77921,0.637 z m -50.68327,35.1866 1.13506,0.8917 0.0207,0.016 0.0192,0.013 1.25573,0.8899 0.0197,0.014 0.0182,0.012 0.67149,0.4287 1.01646,-1.5949 -0.67154,-0.4288 -1.17891,-0.8349 -0.002,10e-4 -1.13241,-0.8911 z m 51.98536,-29.3259 0.002,0.011 0.14042,1.5088 0.002,0.015 0.0382,0.8982 1.88777,-0.082 -0.041,-0.946 -8.4e-4,-0.022 -0.002,-0.024 -0.14276,-1.5325 -0.002,-0.023 -0.003,-0.026 -0.1845,-1.2805 -1.87048,0.268 z m -47.18288,32.5815 0.32981,0.1885 0.0201,0.011 0.0201,0.011 1.36455,0.6916 0.0196,0.011 0.0209,0.01 1.39383,0.6252 0.0214,0.01 0.0209,0.01 0.31817,0.1253 0.69058,-1.7609 -0.31184,-0.1221 -0.0102,-0.01 -1.31102,-0.5871 -0.0219,-0.011 -0.0191,-0.01 -1.31239,-0.6676 -0.0102,-0.01 -0.28996,-0.1663 z m 47.38223,-28.1229 -9.3e-4,0.014 -0.0772,1.4678 -0.001,0.022 -0.002,0.024 -0.14702,1.429 -2e-4,0.012 -0.072,0.4769 1.86858,0.2834 0.0732,-0.4866 0.003,-0.022 0.002,-0.023 0.15555,-1.5197 0.003,-0.022 6.3e-4,-0.022 0.0833,-1.5275 1.3e-4,-0.023 1.4e-4,-0.023 0.002,-0.2311 -1.8906,-0.01 z m -42.0401,30.4851 0.77882,0.2631 0.022,0.01 0.0215,0.01 1.468,0.4176 0.022,0.01 0.0215,0.01 1.39418,0.3249 0.43125,-1.839 -1.38014,-0.324 -0.0151,-0 -1.42096,-0.4065 -0.002,10e-4 -0.73517,-0.2499 z m 41.29453,-24.5812 -0.004,0.014 -0.35037,1.3931 -0.004,0.014 -0.42397,1.4063 -0.0103,0.029 -0.004,0.014 -0.002,0.013 1.78099,0.6316 0.0164,-0.05 0.008,-0.021 0.007,-0.023 0.44169,-1.4616 0.007,-0.023 0.005,-0.023 0.37231,-1.4802 0.006,-0.022 0.003,-0.022 0.13201,-0.6581 -1.85205,-0.3719 z m -35.61906,25.9662 1.25711,0.1695 0.0222,0 0.0239,0 1.52875,0.1323 0.0222,0 0.0229,6e-4 0.97623,0.039 0.073,-1.8892 -0.92876,-0.035 -0.0151,-0 -1.51566,-0.133 -1.21395,-0.1651 z m 33.77914,-20.364 -0.01,0.022 -0.008,0.021 -0.61092,1.3091 -0.002,0.013 -0.52007,0.986 1.67259,0.8813 0.52293,-0.9965 0.0109,-0.02 0.008,-0.021 0.64985,-1.3901 0.01,-0.022 0.008,-0.021 0.42343,-1.0361 -1.74839,-0.7158 z m -27.99362,20.7246 0.21778,-0 0.0246,-4e-4 0.0219,-0 1.54614,-0.088 0.0236,-0 0.0219,-10e-4 1.54779,-0.163 0.0236,-0 0.0236,-0 0.45074,-0.071 -0.28883,-1.8675 -0.43869,0.068 -0.0101,0.01 -1.4565,0.153 -0.0246,4e-4 -0.0219,0 -1.45629,0.083 -0.0169,-0 -0.20223,0 z m 25.91018,-16.759 -0.0143,0.022 -0.0102,0.018 -0.80011,1.2197 -0.0119,0.018 -0.0126,0.021 -0.86079,1.1848 -0.0101,0.01 -0.37123,0.4625 1.47286,1.1838 0.37948,-0.4716 0.0136,-0.019 0.0136,-0.019 0.91498,-1.259 0.0119,-0.018 0.0136,-0.019 0.84895,-1.2952 0.0136,-0.019 0.0109,-0.02 0.0343,-0.058 -1.62744,-0.9594 z m -20.10334,16.0902 0.77014,-0.1583 0.0236,-0 0.0253,-0 1.53054,-0.392 0.0253,-0 0.0236,-0 1.34872,-0.4179 -0.55892,-1.804 -1.30324,0.4029 -1.48648,0.3824 -0.77188,0.1591 z m 16.39921,-11.252 -1.07438,1.0961 -1.11079,1.0292 1.28456,1.3851 1.1448,-1.0601 0.0136,-0.019 0.0153,-0.02 1.10474,-1.1295 0.0153,-0.02 0.0136,-0.019 0.42379,-0.4768 -1.41408,-1.254 z m -10.79568,9.5865 1.39448,-0.5886 0.0203,-0.012 0.0203,-0.012 1.47386,-0.7089 0.0203,-0.012 0.0203,-0.012 0.55434,-0.3016 -0.90373,-1.6591 -0.51275,0.2799 -0.0135,0.01 -1.45769,0.7017 -1.35094,0.5703 z m 6.17792,-5.5222 -1.33829,0.9125 -0.0135,0.01 -0.62699,0.3828 0.98661,1.6112 0.66539,-0.4061 0.022,-0.013 0.0203,-0.012 1.34917,-0.9209 0.0203,-0.012 0.0203,-0.012 1.08719,-0.824 -1.14048,-1.5066 z"
     id="path4651"
     inkscape:connector-curvature="0" />
  <path
     style="color:#000000;font-style:normal;font-variant:normal;font-weight:normal;font-stretch:normal;font-size:medium;line-height:normal;font-family:sans-serif;font-variant-ligatures:normal;font-variant-position:normal;font-variant-caps:normal;font-variant-numeric:normal;font-variant-alternates:normal;font-feature-settings:normal;text-indent:0;text-align:start;text-decoration:none;text-decoration-line:none;text-decoration-style:solid;text-decoration-color:#000000;letter-spacing:normal;word-spacing:normal;text-transform:none;writing-mode:lr-tb;direction:ltr;text-orientation:mixed;dominant-baseline:auto;baseline-shift:baseline;text-anchor:start;white-space:normal;shape-padding:0;clip-rule:nonzero;display:inline;overflow:visible;visibility:visible;opacity:1;isolation:auto;mix-blend-mode:normal;color-interpolation:sRGB;color-interpolation-filters:linearRGB;solid-color:#000000;solid-opacity:1;vector-effect:none;fill:#00ff00;fill-opacity:1;fill-rule:nonzero;stroke:none;stroke-width:1.88976383;stroke-linecap:butt;stroke-linejoin:miter;stroke-miterlimit:4;stroke-dasharray:3.77952766, 1.88976383;stroke-dashoffset:0;stroke-opacity:1;color-rendering:auto;image-rendering:auto;shape-rendering:auto;text-rendering:auto;enable-background:accumulate"
     d="m 366.05091,1672.1215 -1.40878,0.8607 -0.0203,0.012 -0.0203,0.012 -0.79281,0.5409 1.06488,1.5593 0.77959,-0.5287 0.0135,-0.01 1.34888,-0.8238 1.00739,-0.5481 -0.90374,-1.6591 -1.02768,0.5598 -0.0203,0.012 z m 3.62144,0.2569 0.16162,-0.079 0.0101,-0.01 1.47206,-0.6222 h 0.007 l 1.41974,-0.5175 0.31509,-0.099 -0.55893,-1.8041 -0.3161,0.097 h -0.0236 l -0.0203,0.012 -1.50709,0.5498 -0.0203,0.012 -0.0203,0.012 -1.49098,0.6285 -0.0203,0.012 -0.0203,0.012 -0.20421,0.099 z m -7.74741,2.5538 -0.0203,0.012 -0.0203,0.012 -1.22969,1.0302 -0.0203,0.012 -0.0136,0.019 -1.16796,1.0825 -0.0203,0.012 -0.0136,0.019 -0.12605,0.1293 1.34993,1.3225 0.0931,-0.096 0.0135,-0.01 1.15732,-1.0697 1.15805,-0.9708 0.002,-0 0.31956,-0.2434 -1.14048,-1.5066 z m 12.90295,-4.3936 0.91079,-0.235 0.0101,-0.01 1.47476,-0.3011 h 0.0219 l 1.19566,-0.1829 -0.28883,-1.8675 -1.24074,0.1908 h -0.0236 -0.0236 l -1.54033,0.3165 h -0.0236 -0.0236 l -0.92289,0.2374 z m -17.58737,8.9362 -0.0136,0.019 -0.0136,0.019 -0.97863,1.219 -0.0136,0.019 -0.0136,0.019 -0.66602,0.9168 1.52804,1.1115 0.65808,-0.9032 0.009,-0.016 0.9208,-1.1473 0.0119,-0.019 0.70485,-0.7948 -1.41409,-1.2539 z m 22.98754,-9.8641 1.50859,-0.086 h 0.0137 l 1.49736,-0.012 0.66753,0.027 0.0756,-1.8886 -0.71306,-0.028 -0.0229,-6e-4 -0.0229,-7e-4 -1.54358,0.014 -0.0229,-6e-4 -0.0219,10e-4 -1.5217,0.087 z m -25.81364,13.7465 -0.0119,0.018 -0.0109,0.02 -0.78387,1.3298 -0.0109,0.02 -0.0109,0.02 -0.71805,1.3618 -0.008,0.021 -0.0109,0.02 -0.25965,0.5581 1.71315,0.7993 0.24021,-0.5175 0.004,-0.014 0.68772,-1.3127 0.0119,-0.018 0.01,-0.022 0.73867,-1.2518 0.005,-0.014 0.0156,-0.027 0.0208,-0.031 -1.58123,-1.0356 z m 31.33902,-13.6958 0.42481,0.037 h 0.0222 0.0239 l 1.42922,0.1942 0.002,-10e-4 1.50156,0.2765 0.19522,0.045 0.43123,-1.839 -0.23955,-0.056 -0.0215,-0.01 -0.0233,-0.01 -1.5042,-0.2772 h -0.0222 -0.0222 l -1.51915,-0.2054 h -0.0222 -0.0222 l -0.46966,-0.04 z m -34.15282,19.3573 -0.008,0.021 -0.008,0.021 -0.512,1.4413 -0.007,0.023 -0.006,0.022 -0.44336,1.4626 -0.006,0.022 -0.006,0.022 -0.0388,0.1555 1.83276,0.4596 0.0266,-0.1101 0.004,-0.016 0.42497,-1.4046 0.51126,-1.4387 0.002,-10e-4 0.19701,-0.4791 -1.7494,-0.7175 z m 39.5405,-18.3498 0.84124,0.2383 0.0147,0.01 1.39046,0.4669 0.0235,0.01 0.0199,0.01 1.19814,0.4697 0.68989,-1.7582 -1.24206,-0.4872 -0.0209,-0.01 -0.0225,-0.01 -1.44504,-0.4873 -0.0225,-0.01 -0.0215,-0.01 -0.88489,-0.2514 z m -41.21955,24.4025 -0.005,0.023 -0.003,0.022 -0.22873,1.5101 -0.003,0.022 -0.002,0.024 -0.12676,1.2414 1.8788,0.1917 0.12702,-1.2371 h 0.003 l 0.21415,-1.4181 0.004,-0.021 0.004,-0.025 0.19033,-0.9399 -1.853,-0.3736 z m 46.3468,-22.4711 1.20313,0.6113 0.0102,0.01 1.25027,0.7124 0.008,0.01 0.74243,0.4734 1.01476,-1.5939 -0.74975,-0.4783 -0.0187,-0.012 -0.0201,-0.012 -1.33092,-0.7583 -0.0187,-0.012 -0.0214,-0.01 -1.21306,-0.6167 z m -46.83853,28.7405 -1.3e-4,0.023 -1.4e-4,0.023 0.0693,1.5342 -6.3e-4,0.022 0.002,0.024 0.0738,0.7918 1.88303,-0.176 -0.0719,-0.7456 -8.1e-4,-0.013 -0.0654,-1.5116 -0.002,-0.011 0.009,-1.4031 -1.8906,-0.01 z m 51.57189,-25.8936 0.23497,0.1687 0.008,0.01 1.16449,0.9154 0.0132,0.011 1.12554,0.9807 0.009,0.01 0.24425,0.2357 1.30967,-1.3605 -0.27959,-0.2694 -0.0162,-0.016 -0.0184,-0.016 -1.16979,-1.0183 -0.0179,-0.015 -0.0202,-0.015 -1.21409,-0.9544 -0.0174,-0.014 -0.0197,-0.014 -0.243,-0.1709 z m -51.1329,30.6266 0.003,0.025 0.004,0.023 0.29701,1.5222 0.005,0.024 0.006,0.022 0.37449,1.5158 0.005,0.021 0.007,0.024 0.0785,0.2569 1.80915,-0.5462 -0.0651,-0.2104 -0.005,-0.016 -0.36015,-1.452 -0.004,-0.014 -0.28561,-1.4635 -0.003,-0.017 -0.0543,-0.3792 -1.86953,0.2697 z m 55.23299,-27.0016 0.57032,0.6089 0.0125,0.014 0.95954,1.1307 0.0112,0.015 0.80536,1.055 1.5027,-1.1472 -0.8168,-1.071 -0.0155,-0.019 -0.015,-0.018 -1.02262,-1.2048 -0.015,-0.018 -0.0172,-0.018 -0.58245,-0.6221 z m -53.52916,33.2145 0.008,0.022 0.009,0.023 0.61415,1.4699 0.009,0.024 0.01,0.021 0.5162,1.0777 1.7055,-0.8155 -0.51425,-1.0743 v 0 l -0.58501,-1.4078 -0.009,-0.02 -0.31674,-0.8884 -1.77821,0.6387 z m 56.91179,-28.9181 0.81611,1.3353 0.74249,1.3643 0.005,0.013 0.67002,1.3948 0.005,0.01 0.20836,0.4977 1.7432,-0.7268 -0.20966,-0.5037 -0.009,-0.024 -0.01,-0.021 -0.69518,-1.4502 -0.0108,-0.023 -0.0115,-0.02 -0.77526,-1.4288 -0.83117,0.4511 0.80667,-0.4935 -0.83041,-1.3563 z m -54.76845,33.4 0.012,0.021 0.0125,0.022 0.84974,1.3858 0.0115,0.02 0.0142,0.021 0.90831,1.3272 0.0132,0.019 0.016,0.02 0.24029,0.3146 1.501,-1.1463 -0.21173,-0.2769 v 0 l -0.89782,-1.3129 -0.009,-0.011 -0.81186,-1.3242 -0.059,-0.1103 -1.65914,0.9037 z m 3.28157,4.6682 0.57526,0.676 0.015,0.018 0.0172,0.018 1.07418,1.1457 0.0167,0.017 0.0162,0.016 0.95375,0.9176 1.31131,-1.3616 -0.94352,-0.9076 -0.0105,-0.01 -1.02941,-1.0994 -0.0115,-0.012 -0.54334,-0.6403 z m 54.8342,-31.0947 0.006,0.018 0.43639,1.4394 0.004,0.014 0.35006,1.4149 1.83476,-0.4549 -0.35349,-1.4287 -0.006,-0.022 -0.006,-0.023 -0.45512,-1.5031 -0.007,-0.024 -0.008,-0.022 -0.24827,-0.6957 -1.77922,0.6371 z m -50.67496,35.2089 1.13606,0.8934 0.0179,0.015 0.0197,0.014 1.25569,0.8898 0.0192,0.013 0.0201,0.012 0.67154,0.4287 1.01472,-1.594 -0.65957,-0.4197 -0.0112,-0.01 -1.17985,-0.8366 -0.002,10e-4 -1.13146,-0.8894 z m 51.98367,-29.325 0.003,0.01 0.14145,1.5263 0.0382,0.8981 1.88951,-0.083 -0.0427,-0.9452 1.3e-4,-0.023 -0.002,-0.023 -0.14271,-1.5323 -0.002,-0.024 -0.004,-0.023 -0.18376,-1.2831 -1.86953,0.2697 z m -47.18288,32.5816 0.32981,0.1884 0.0201,0.012 0.0219,0.01 1.36285,0.6925 0.0201,0.012 0.0219,0.01 1.39284,0.6234 0.0219,0.01 0.0209,0.01 0.31981,0.1242 0.68889,-1.7599 -0.27589,-0.1068 -0.008,-0.01 -1.34697,-0.6026 -0.0219,-0.01 -0.0191,-0.01 -1.31239,-0.6676 -0.0102,-0.01 -0.29002,-0.1664 z m 47.38228,-28.1229 0.002,0.011 -0.0787,1.4731 -10e-4,0.021 -0.002,0.024 -0.14697,1.429 -2e-4,0.012 -0.072,0.4768 1.86858,0.2833 0.0749,-0.4874 0.003,-0.022 0.002,-0.024 0.15653,-1.518 1.4e-4,-0.023 0.002,-0.024 0.0817,-1.5266 0.002,-0.024 -10e-4,-0.022 0.002,-0.2311 -1.88891,-0.01 z m -42.03746,30.4858 0.77613,0.2623 0.0225,0.01 0.0215,0.01 1.46901,0.4193 0.0215,0.01 0.0215,0.01 1.39517,0.3266 0.4303,-1.8406 -1.37918,-0.3224 h -0.0161 l -1.37994,-0.394 h -0.0137 l -0.76452,-0.2578 z m 41.29189,-24.5819 -0.004,0.014 -0.35042,1.3931 -0.42758,1.4195 -0.018,0.051 1.78099,0.6317 0.019,-0.049 0.007,-0.023 0.006,-0.022 0.44336,-1.4625 0.006,-0.022 0.006,-0.022 0.37131,-1.4818 0.006,-0.022 0.005,-0.023 0.13201,-0.6581 -1.85374,-0.3709 z m -35.61741,25.9651 1.25711,0.1696 h 0.0222 0.0222 l 1.52971,0.1339 0.0229,7e-4 h 0.0222 l 0.97524,0.037 0.074,-1.8875 -0.96313,-0.039 h -0.0137 l -1.43906,-0.1254 h -0.0239 -0.0222 l -1.21128,-0.1644 z m 33.77744,-20.3629 -0.008,0.021 -0.01,0.022 -0.61097,1.3089 -0.004,0.014 -0.51743,0.9866 1.67159,0.8796 0.52394,-0.9948 0.01,-0.022 0.0109,-0.02 0.64889,-1.3917 0.008,-0.021 0.008,-0.021 0.42613,-1.0354 -1.74939,-0.7175 z m -27.99192,20.7236 h 0.21777 l 0.0229,6e-4 h 0.0219 l 1.5479,-0.089 0.0229,6e-4 h 0.0236 l 1.54608,-0.162 h 0.0236 0.0236 l 0.45174,-0.069 -0.28884,-1.8675 -0.40573,0.063 -0.0185,-8e-4 -1.48602,0.1566 -0.0246,3e-4 h -0.0219 l -1.48947,0.084 h -0.0137 l -0.17324,7e-4 z m 25.90849,-16.758 -0.004,0.014 -0.81768,1.2479 -0.0119,0.018 -0.0126,0.021 -0.87794,1.2059 -0.0102,0.017 -0.35275,0.4359 1.47285,1.1839 0.38118,-0.4727 0.0136,-0.019 0.0119,-0.018 0.91499,-1.2589 0.0136,-0.019 0.0109,-0.02 0.85059,-1.2962 0.0119,-0.018 0.0109,-0.02 0.036,-0.059 -1.62908,-0.9583 z m -20.10334,16.0901 0.77282,-0.1575 h 0.0236 0.0236 l 1.53224,-0.3929 h 0.0236 l 0.0203,-0.012 1.34704,-0.4169 -0.55724,-1.805 -1.33324,0.4134 -0.0135,0.01 -1.47195,0.3763 -0.0119,0.01 -0.72713,0.1469 z m 16.43226,-11.2846 -0.0101,0.01 -1.06354,1.0876 -0.0135,0.01 -1.13321,1.0489 1.28287,1.3861 1.14479,-1.0602 0.0203,-0.012 0.0136,-0.019 1.10644,-1.1304 0.0136,-0.019 0.0136,-0.019 0.42375,-0.4769 -1.41235,-1.2549 z m -10.82704,9.6181 1.39447,-0.5885 0.0203,-0.012 0.0203,-0.012 1.47118,-0.7097 0.0203,-0.012 0.0203,-0.012 0.55603,-0.3026 -0.90368,-1.659 -0.51443,0.2809 -0.0135,0.01 -1.41415,0.6834 h -0.007 l -1.38671,0.5864 z m 6.14434,-5.4983 h -0.007 l -1.29895,0.883 -0.0135,0.01 -0.62699,0.3828 0.98492,1.6121 0.66657,-0.4079 0.0203,-0.012 0.0203,-0.012 1.35018,-0.9193 0.0203,-0.012 0.0203,-0.012 1.08818,-0.8222 -1.14143,-1.5083 z"
     id="path4651-3"
     inkscape:connector-curvature="0" />
  <path
     style="color:#000000;font-style:normal;font-variant:normal;font-weight:normal;font-stretch:normal;font-size:medium;line-height:normal;font-family:sans-serif;font-variant-ligatures:normal;font-variant-position:normal;font-variant-caps:normal;font-variant-numeric:normal;font-variant-alternates:normal;font-feature-settings:normal;text-indent:0;text-align:start;text-decoration:none;text-decoration-line:none;text-decoration-style:solid;text-decoration-color:#000000;letter-spacing:normal;word-spacing:normal;text-transform:none;writing-mode:lr-tb;direction:ltr;text-orientation:mixed;dominant-baseline:auto;baseline-shift:baseline;text-anchor:start;white-space:normal;shape-padding:0;clip-rule:nonzero;display:inline;overflow:visible;visibility:visible;opacity:1;isolation:auto;mix-blend-mode:normal;color-interpolation:sRGB;color-interpolation-filters:linearRGB;solid-color:#000000;solid-opacity:1;vector-effect:none;fill:#00ff00;fill-opacity:1;fill-rule:nonzero;stroke:none;stroke-width:1.88976383;stroke-linecap:butt;stroke-linejoin:miter;stroke-miterlimit:4;stroke-dasharray:3.77952766, 1.88976383;stroke-dashoffset:0;stroke-opacity:1;color-rendering:auto;image-rendering:auto;shape-rendering:auto;text-rendering:auto;enable-background:accumulate"
     d="m 432.07386,1554.0494 -1.40878,0.8607 -0.0203,0.012 -0.0203,0.012 -0.79382,0.5391 1.06414,1.5619 0.78128,-0.5296 0.0135,-0.01 1.34889,-0.8238 1.00569,-0.5471 -0.90303,-1.6617 -1.02668,0.5615 -0.0203,0.012 z m 3.62044,0.2552 0.16262,-0.078 0.005,-0 1.44141,-0.6089 1.49758,-0.5468 0.009,-0 0.27219,-0.083 -0.55988,-1.8057 -0.31509,0.099 -0.0253,0 -0.0186,0.011 -1.50709,0.5498 -0.0203,0.012 -0.0203,0.012 -1.48997,0.6302 -0.0203,0.012 -0.0203,0.012 -0.20421,0.099 z m -7.7491,2.5547 -0.0203,0.012 -0.0186,0.011 -1.22969,1.0303 -0.0203,0.012 -0.0153,0.02 -1.16891,1.0808 -0.0136,0.02 -0.0153,0.02 -0.12435,0.1284 1.34998,1.3226 0.0931,-0.096 0.0152,-0.01 1.11899,-1.0384 0.0152,-0.01 1.21478,-1.0171 0.002,-10e-4 0.28466,-0.214 -1.14048,-1.5066 z m 12.90565,-4.3929 0.87713,-0.2268 0.0236,-0 0.0253,-0 1.47475,-0.3011 0.0219,-0 1.19573,-0.1828 -0.28884,-1.8675 -1.24073,0.1908 -0.0236,0 -0.0253,0 -1.53864,0.3154 -0.0236,0 -0.0253,0 -0.92125,0.2364 z m -17.58738,8.9362 -0.0136,0.02 -0.0136,0.019 -0.97862,1.219 -0.0136,0.019 -0.0136,0.019 -0.66602,0.9167 1.52804,1.1115 0.63925,-0.881 0.0101,-0.01 0.94102,-1.1748 0.0119,-0.018 0.70479,-0.7949 -1.41404,-1.2538 z m 22.98748,-9.8641 1.47379,-0.084 0.0169,0 1.4823,-0.015 0.0256,0 0.0202,-2e-4 0.66754,0.027 0.0739,-1.8875 -0.71137,-0.029 -0.0229,-7e-4 -0.0229,-6e-4 -1.54358,0.014 -0.0229,-6e-4 -0.0236,0 -1.52006,0.086 z m -25.81358,13.7465 -0.0119,0.018 -0.0109,0.02 -0.78387,1.3298 -0.0109,0.02 -0.0109,0.02 -0.71805,1.3617 -0.0109,0.02 -0.008,0.021 -0.25964,0.5581 1.71221,0.7977 0.24115,-0.5159 0.007,-0 0.68846,-1.3154 0.0119,-0.018 0.01,-0.022 0.73866,-1.2518 0.005,-0.014 0.0156,-0.028 0.0208,-0.03 -1.58123,-1.0356 z m 31.33902,-13.6958 0.42482,0.037 0.0222,0 0.0239,0 1.46364,0.1992 0.0119,0 1.4157,0.2606 0.0151,0 0.22288,0.054 0.43125,-1.839 -0.23788,-0.056 -0.0232,-0.01 -0.0215,-0.01 -1.50421,-0.2773 -0.0222,-0 -0.0232,-0 -1.51815,-0.2038 -0.0232,-0.01 -0.0229,-7e-4 -0.46897,-0.043 z m -34.15383,19.3556 -0.007,0.023 -0.008,0.021 -0.51201,1.4413 -0.007,0.023 -0.006,0.022 -0.44337,1.4625 -0.006,0.022 -0.006,0.022 -0.0388,0.1556 1.83276,0.4596 0.0381,-0.1529 0.002,-10e-4 0.43022,-1.4189 0.4821,-1.3563 0.002,-0.013 0.20993,-0.5114 -1.74939,-0.7175 z m 39.54152,-18.348 0.84118,0.2382 0.0147,0.01 1.38876,0.4679 1.24106,0.4855 0.69154,-1.7592 -1.24202,-0.4872 -0.0225,-0.01 -0.0209,-0.01 -1.44673,-0.4863 -0.0209,-0.01 -0.0215,-0.01 -0.88585,-0.2531 z m -41.21957,24.4025 -0.005,0.023 -0.003,0.022 -0.22878,1.51 -0.003,0.022 -0.003,0.022 -0.12675,1.2414 1.8798,0.1934 0.12162,-1.1956 2e-4,-0.012 0.22761,-1.5003 0.18936,-0.9415 -1.85373,-0.3709 z m 46.34682,-22.4711 1.20313,0.6112 0.0102,0.01 1.28678,0.7366 0.002,-10e-4 0.70965,0.4518 1.01573,-1.5923 -0.74971,-0.4782 -0.0187,-0.012 -0.0196,-0.011 -1.33191,-0.7601 -0.0201,-0.012 -0.0201,-0.011 -1.21205,-0.615 z m -46.83854,28.7405 -6.4e-4,0.022 -1.3e-4,0.023 0.0666,1.5334 0.002,0.023 0.002,0.024 0.0738,0.7918 1.88034,-0.1767 -0.0692,-0.7448 -8.1e-4,-0.013 -0.0657,-1.4731 0.002,-0 0.006,-1.4468 -1.88891,-0.01 z m 51.57183,-25.8937 0.23503,0.1688 0.008,0.01 1.13969,0.8959 0.007,0.01 1.13086,0.9821 0.27859,0.2677 1.31135,-1.3615 -0.27958,-0.2694 -0.0162,-0.016 -0.0184,-0.016 -1.17148,-1.0173 -0.0167,-0.017 -0.0197,-0.014 -1.21409,-0.9544 -0.0192,-0.013 -0.0197,-0.014 -0.24131,-0.1718 z m -51.13453,30.6277 0.004,0.023 0.005,0.024 0.297,1.5223 0.005,0.024 0.004,0.023 0.37619,1.5149 0.005,0.021 0.006,0.023 0.0768,0.258 1.80915,-0.5462 -0.0634,-0.2114 -0.002,-0.011 -0.36311,-1.4571 -0.004,-0.014 -0.29307,-1.4998 -0.002,-0.011 -0.0481,-0.3489 -1.87217,0.2691 z m 55.23199,-27.0034 0.56742,0.6039 1.00578,1.1874 0.78833,1.0334 1.5027,-1.1473 -0.81849,-1.07 -0.0132,-0.019 -0.0167,-0.017 -1.02187,-1.2075 -0.0155,-0.019 -0.0167,-0.017 -0.5832,-0.6195 z m -53.52646,33.2152 0.008,0.022 0.008,0.022 0.61409,1.4699 0.009,0.024 0.0103,0.022 0.51619,1.0777 1.70451,-0.8173 -0.5113,-1.0692 -0.005,-0.01 -0.58891,-1.4146 -0.004,-0.011 -0.31844,-0.8875 -1.77921,0.6371 z m 56.90909,-28.9188 0.81971,1.3378 0.74154,1.3626 0.005,0.013 0.66901,1.3931 v 0 l 0.20766,0.5003 1.7449,-0.7277 -0.20962,-0.5037 -0.0103,-0.022 -0.01,-0.021 -0.6935,-1.4512 -0.0108,-0.023 -0.012,-0.021 -0.77699,-1.4278 -0.83117,0.451 0.80667,-0.4934 -0.83041,-1.3564 z m -54.76576,33.4007 0.012,0.021 0.0125,0.022 0.848,1.3868 0.0137,0.02 0.0142,0.021 0.90831,1.3271 0.0132,0.019 0.0155,0.019 0.24024,0.3146 1.50201,-1.1446 -0.21173,-0.2769 -0.005,-0.01 -0.87833,-1.2791 -0.83799,-1.3654 -0.059,-0.1103 -1.66014,0.9019 z m 3.28157,4.6683 0.57357,0.677 0.0167,0.017 0.015,0.018 1.07493,1.1431 0.0167,0.017 0.0172,0.018 0.95369,0.9175 1.30867,-1.3623 -0.94082,-0.9068 -0.0105,-0.01 -1.0255,-1.0926 -0.55842,-0.6586 z m 54.84083,-31.0715 0.008,0.022 0.42683,1.4111 0.004,0.014 0.35006,1.415 1.83476,-0.4549 -0.35518,-1.4277 -0.005,-0.025 -0.006,-0.023 -0.45417,-1.5015 -0.006,-0.023 -0.008,-0.022 -0.24828,-0.6957 -1.77921,0.637 z m -50.68158,35.1856 1.13435,0.8945 0.0197,0.014 0.0197,0.014 1.25569,0.8898 0.0192,0.013 0.0187,0.012 0.67318,0.4277 1.01477,-1.594 -0.65961,-0.4198 -0.0112,-0.01 -1.17986,-0.8365 -0.002,10e-4 -1.13242,-0.8911 z m 51.98367,-29.3249 0.002,0.011 0.1422,1.5236 0.0382,0.8981 1.88781,-0.082 -0.0411,-0.9461 -0.001,-0.022 -0.002,-0.023 -0.14272,-1.5323 -0.002,-0.024 -0.002,-0.024 -0.18545,-1.2821 -1.87052,0.2679 z m -47.18289,32.5815 0.32982,0.1885 0.0201,0.012 0.0196,0.011 1.36454,0.6915 0.0201,0.011 0.0204,0.01 1.39384,0.6251 0.0219,0.011 0.0209,0.01 0.31986,0.1244 0.68889,-1.76 -0.31184,-0.1221 -0.0102,-0.01 -1.30933,-0.5881 -1.32305,-0.6705 v 0 l -0.33051,-0.1857 z m 47.38224,-28.1229 -9.3e-4,0.014 -0.0773,1.4676 -0.001,0.022 -0.002,0.023 -0.14702,1.4289 -1.9e-4,0.012 -0.072,0.4768 1.86859,0.2834 0.0732,-0.4866 0.005,-0.023 1.3e-4,-0.023 0.15554,-1.5196 0.003,-0.022 0.002,-0.024 0.0817,-1.5265 6.3e-4,-0.022 1.3e-4,-0.023 0.002,-0.2311 -1.8906,-0.01 z m -42.03916,30.4868 0.77787,0.2614 0.0225,0.01 0.0215,0.01 1.46895,0.4193 0.0215,0.01 0.0215,0.01 1.39419,0.325 0.43129,-1.8389 -1.35082,-0.3163 -0.002,10e-4 -1.46267,-0.4162 -0.002,10e-4 -0.73516,-0.2499 z m 41.29364,-24.5828 -0.004,0.014 -0.35038,1.3931 -0.004,0.014 -0.42396,1.4063 -0.0103,0.029 -0.004,0.014 -0.002,0.013 1.78098,0.6316 0.018,-0.051 0.007,-0.02 0.007,-0.023 0.44168,-1.4615 0.007,-0.023 0.006,-0.022 0.37135,-1.4818 0.006,-0.022 0.003,-0.022 0.13201,-0.6581 -1.85204,-0.3719 z m -35.61742,25.9651 1.25542,0.1705 0.0222,0 0.0239,0 1.52974,0.134 0.0213,0 0.0229,6e-4 0.97624,0.039 0.074,-1.8875 -0.96319,-0.039 -0.0137,-0 -1.4849,-0.1306 -1.21228,-0.1661 z m 33.77745,-20.363 -0.01,0.022 -0.008,0.021 -0.61093,1.3091 -0.002,0.013 -0.52007,0.986 1.67259,0.8814 0.52294,-0.9966 0.0109,-0.02 0.009,-0.019 0.64885,-1.3917 0.01,-0.022 0.008,-0.021 0.42442,-1.0344 -1.74939,-0.7176 z m -27.99362,20.7246 0.21947,-0 0.0229,7e-4 0.0219,-0 1.54615,-0.088 0.0236,-0 0.0219,-0 1.54777,-0.1629 0.0236,-0 0.0236,-0 0.45174,-0.069 -0.28884,-1.8675 -0.43869,0.068 -0.0151,-0 -1.45649,0.153 -0.0246,4e-4 -0.0219,0 -1.48952,0.084 -0.0137,-0 -0.17324,8e-4 z m 25.91018,-16.7589 -0.0143,0.022 -0.0102,0.018 -0.82105,1.2498 -0.007,0 -0.87625,1.2049 -0.0102,0.017 -0.35271,0.4359 1.47285,1.1839 0.38118,-0.4726 0.0119,-0.018 0.0136,-0.019 0.91498,-1.259 0.0136,-0.019 0.0119,-0.018 0.84895,-1.2952 0.0136,-0.019 0.0109,-0.02 0.0342,-0.058 -1.62738,-0.9593 z m -20.10334,16.0901 0.77113,-0.1565 0.0236,-0 0.0253,-0 1.52954,-0.3937 0.0253,-0 0.0186,-0.011 1.34873,-0.4178 -0.55894,-1.8041 -1.33154,0.4125 -0.0135,0.01 -1.44173,0.37 -0.0219,0 -0.75301,0.1528 z m 16.41417,-11.2651 -0.0119,0.018 -1.05869,1.0804 -0.0136,0.019 -1.11174,1.0275 1.28457,1.3851 1.14479,-1.0601 0.0186,-0.011 0.0153,-0.02 1.10574,-1.1278 0.0153,-0.02 0.0136,-0.019 0.4228,-0.4786 -1.41409,-1.254 z m -10.80895,9.5986 1.39447,-0.5886 0.0186,-0.011 0.0203,-0.012 1.47386,-0.7089 0.0203,-0.012 0.0203,-0.012 0.55434,-0.3016 -0.90373,-1.6591 -0.51274,0.2798 -0.0135,0.01 -1.41415,0.6835 -0.007,0 -1.38671,0.5864 z m 6.14434,-5.4983 -0.007,0 -1.30064,0.884 -0.0135,0.01 -0.6258,0.3809 0.98497,1.6122 0.66658,-0.4079 0.0203,-0.012 0.0203,-0.012 1.34917,-0.921 0.0203,-0.012 0.0203,-0.012 1.08718,-0.824 -1.14047,-1.5066 z"
     id="path4651-6"
     inkscape:connector-curvature="0" />
  <path
     style="color:#000000;font-style:normal;font-variant:normal;font-weight:normal;font-stretch:normal;font-size:medium;line-height:normal;font-family:sans-serif;font-variant-ligatures:normal;font-variant-position:normal;font-variant-caps:normal;font-variant-numeric:normal;font-variant-alternates:normal;font-feature-settings:normal;text-indent:0;text-align:start;text-decoration:none;text-decoration-line:none;text-decoration-style:solid;text-decoration-color:#000000;letter-spacing:normal;word-spacing:normal;text-transform:none;writing-mode:lr-tb;direction:ltr;text-orientation:mixed;dominant-baseline:auto;baseline-shift:baseline;text-anchor:start;white-space:normal;shape-padding:0;clip-rule:nonzero;display:inline;overflow:visible;visibility:visible;opacity:1;isolation:auto;mix-blend-mode:normal;color-interpolation:sRGB;color-interpolation-filters:linearRGB;solid-color:#000000;solid-opacity:1;vector-effect:none;fill:#00ff00;fill-opacity:1;fill-rule:nonzero;stroke:none;stroke-width:1.88976383;stroke-linecap:butt;stroke-linejoin:miter;stroke-miterlimit:4;stroke-dasharray:3.77952766, 1.88976383;stroke-dashoffset:0;stroke-opacity:1;color-rendering:auto;image-rendering:auto;shape-rendering:auto;text-rendering:auto;enable-background:accumulate"
     d="m 498.87142,1671.0977 -1.40878,0.8607 -0.0203,0.012 -0.0203,0.012 -0.79281,0.5409 1.06318,1.5602 0.78128,-0.5296 0.0135,-0.01 1.34889,-0.8238 1.00738,-0.5481 -0.90373,-1.6591 -1.02769,0.5598 -0.0203,0.012 z m 3.62144,0.2569 0.16161,-0.079 0.0101,-0.01 1.47206,-0.6222 0.007,-0 1.41974,-0.5175 0.31509,-0.099 -0.55994,-1.8058 -0.31508,0.099 -0.0236,0 -0.0203,0.012 -1.50703,0.5499 -0.0203,0.012 -0.0203,0.012 -1.49098,0.6284 -0.0203,0.012 -0.0203,0.012 -0.20421,0.1 z m -7.74742,2.5538 -0.0203,0.012 -0.0203,0.012 -1.22974,1.0302 -0.0203,0.012 -0.0153,0.02 -1.16627,1.0816 -0.0203,0.012 -0.0136,0.019 -0.12604,0.1293 1.34994,1.3225 0.0931,-0.097 0.0135,-0.01 1.15733,-1.0696 1.15803,-0.9708 0.002,-10e-4 0.31956,-0.2434 -1.14217,-1.5056 z m 12.90296,-4.3936 0.91079,-0.235 0.0101,-0.01 1.47475,-0.3011 0.0219,-0 1.19567,-0.1829 -0.28884,-1.8675 -1.24073,0.1908 -0.0236,0 -0.0236,0 -1.54032,0.3165 -0.0236,0 -0.0236,0 -0.92289,0.2374 z m -17.58737,8.9362 -0.0136,0.019 -0.0136,0.019 -0.97862,1.219 -0.0136,0.019 -0.0136,0.019 -0.66603,0.9168 1.52805,1.1115 0.65808,-0.9032 0.009,-0.016 0.92081,-1.1474 0.0119,-0.018 0.70484,-0.7948 -1.41409,-1.2539 z m 22.98753,-9.8641 1.47374,-0.084 0.0169,0 1.48231,-0.015 0.0256,0 0.0202,-10e-5 0.66753,0.027 0.0757,-1.8885 -0.7131,-0.028 -0.0229,-7e-4 -0.0229,-6e-4 -1.54362,0.014 -0.0229,-7e-4 -0.0236,0 -1.52,0.086 z m -25.81363,13.7465 -0.0119,0.018 -0.0109,0.02 -0.78382,1.3299 -0.0109,0.02 -0.0109,0.02 -0.71805,1.3617 -0.008,0.021 -0.0109,0.02 -0.25965,0.5581 1.71317,0.7993 0.2402,-0.5175 0.004,-0.014 0.68772,-1.3127 0.0119,-0.018 0.01,-0.022 0.73867,-1.2519 0.005,-0.014 0.0156,-0.027 0.0208,-0.03 -1.58123,-1.0357 z m 31.33901,-13.6958 0.42482,0.037 0.0223,0 0.0239,0 1.46095,0.1984 0.0137,0 1.45742,0.2704 0.002,-10e-4 0.19352,0.046 0.43299,-1.8399 -0.23962,-0.056 -0.0232,-0 -0.0215,-0.01 -1.50422,-0.2772 -0.0222,-0 -0.0222,-0 -1.51914,-0.2054 -0.0222,-0 -0.0223,-0 -0.47066,-0.042 z m -34.15282,19.3573 -0.008,0.021 -0.008,0.021 -0.51201,1.4413 -0.007,0.023 -0.006,0.022 -0.44338,1.4626 -0.006,0.022 -0.006,0.022 -0.0388,0.1554 1.83277,0.4596 0.0266,-0.1101 0.004,-0.016 0.42496,-1.4046 0.49522,-1.4001 0.004,-0.014 0.20925,-0.5087 -1.7494,-0.7175 z m 39.54052,-18.3498 0.84123,0.2383 0.0137,0 1.43267,0.4854 1.19984,0.4688 0.68989,-1.7582 -1.24206,-0.4873 -0.0225,-0.01 -0.0209,-0.01 -1.44673,-0.4863 -0.0209,-0.01 -0.0215,-0.01 -0.88484,-0.2513 z m -41.21957,24.4025 -0.005,0.023 -0.003,0.022 -0.22873,1.5101 -0.003,0.022 -0.003,0.022 -0.12575,1.2431 1.87886,0.1918 0.12157,-1.1957 1.9e-4,-0.012 0.21979,-1.4553 0.004,-0.021 0.004,-0.025 0.19032,-0.9399 -1.853,-0.3735 z m 46.34682,-22.4711 1.20313,0.6113 0.0102,0.01 1.28675,0.7365 0.002,-10e-4 0.70965,0.4518 1.01571,-1.5923 -0.74975,-0.4783 -0.0187,-0.012 -0.0201,-0.011 -1.33091,-0.7584 -0.0211,-0.013 -0.0191,-0.01 -1.21306,-0.6167 z m -46.83855,28.7405 -1.3e-4,0.023 -1.3e-4,0.023 0.0676,1.5352 0.001,0.022 0.002,0.023 0.0738,0.7919 1.88129,-0.1751 -0.0702,-0.7465 -8e-4,-0.013 -0.0654,-1.5117 -0.002,-0.011 0.009,-1.4032 -1.8906,-0.01 z m 51.57189,-25.8936 0.23498,0.1687 0.008,0.01 1.16449,0.9154 0.0132,0.011 1.12189,0.9783 0.0132,0.011 0.2426,0.2366 1.31136,-1.3615 -0.27958,-0.2694 -0.0157,-0.015 -0.0189,-0.017 -1.1698,-1.0183 -0.0179,-0.015 -0.0202,-0.015 -1.21409,-0.9544 -0.0179,-0.015 -0.0197,-0.014 -0.243,-0.1709 z m -51.13459,30.6276 0.005,0.024 0.004,0.023 0.297,1.5222 0.005,0.025 0.004,0.022 0.37619,1.5148 0.006,0.022 0.007,0.024 0.0767,0.2579 1.80915,-0.5462 -0.0634,-0.2114 -0.002,-0.011 -0.36312,-1.457 -0.004,-0.014 -0.28562,-1.4635 -0.003,-0.017 -0.0543,-0.3791 -1.87048,0.268 z m 55.23469,-27.0026 0.54964,0.5848 0.015,0.018 0.97731,1.1498 0.0117,0.016 0.80536,1.0551 1.5027,-1.1472 -0.81849,-1.07 -0.0132,-0.019 -0.0155,-0.019 -1.02261,-1.2049 -0.015,-0.018 -0.0167,-0.017 -0.5825,-0.6222 z m -53.52916,33.2145 0.009,0.023 0.008,0.022 0.61414,1.4699 0.009,0.024 0.01,0.021 0.5162,1.0777 1.70551,-0.8155 -0.51425,-1.0743 v 0 l -0.58501,-1.4078 -0.009,-0.02 -0.31673,-0.8885 -1.77917,0.6372 z m 56.9101,-28.9171 0.81871,1.336 0.74153,1.3626 0.005,0.013 0.67001,1.3949 0.005,0.01 0.20837,0.4977 1.74221,-0.7285 -0.20962,-0.5036 -0.01,-0.021 -0.0103,-0.022 -0.6935,-1.4512 -0.0108,-0.023 -0.0115,-0.02 -0.77526,-1.4288 -0.83118,0.451 0.80668,-0.4934 -0.83041,-1.3563 z m -54.76677,33.399 0.012,0.021 0.0125,0.022 0.84801,1.3868 0.0132,0.019 0.0142,0.021 0.90832,1.3272 0.0137,0.02 0.015,0.018 0.24124,0.3162 1.50101,-1.1462 -0.21174,-0.277 v 0 l -0.88026,-1.2825 -0.83799,-1.3654 -0.059,-0.1102 -1.65913,0.9036 z m 3.28158,4.6682 0.57356,0.677 0.0167,0.017 0.0155,0.019 1.07589,1.1447 0.0157,0.015 0.0172,0.018 0.95374,0.9176 1.30866,-1.3623 -0.94087,-0.9069 -0.0105,-0.01 -1.0301,-1.0967 -0.0125,-0.014 -0.54165,-0.6413 z m 54.8342,-31.0947 0.006,0.018 0.4364,1.4394 0.004,0.014 0.35007,1.4149 1.83476,-0.4549 -0.35349,-1.4287 -0.007,-0.024 -0.005,-0.021 -0.45512,-1.5031 -0.007,-0.024 -0.008,-0.022 -0.24829,-0.6957 -1.77921,0.6371 z m -50.67496,35.2089 1.13605,0.8934 0.0174,0.014 0.0197,0.014 1.25569,0.8897 0.0197,0.014 0.0182,0.011 0.67324,0.4278 1.01471,-1.594 -0.65957,-0.4197 -0.0112,-0.01 -1.17987,-0.8366 -0.002,10e-4 -1.13146,-0.8894 z m 51.98368,-29.325 0.002,0.011 0.1432,1.5254 0.0381,0.898 1.88952,-0.083 -0.0428,-0.9452 6.3e-4,-0.022 -0.002,-0.024 -0.14272,-1.5324 -0.002,-0.024 -0.004,-0.022 -0.18376,-1.2831 -1.87121,0.2706 z m -47.18289,32.5816 0.32981,0.1884 0.0201,0.012 0.0214,0.01 1.3629,0.6926 0.0196,0.011 0.0219,0.011 1.39283,0.6234 0.0219,0.01 0.0209,0.01 0.31981,0.1243 0.68889,-1.76 -0.31184,-0.1221 -0.0102,-0.01 -1.30937,-0.5882 -1.32306,-0.6705 v 0 l -0.33056,-0.1858 z m 47.38227,-28.1229 0.002,0.011 -0.0787,1.4731 -0.001,0.021 -0.002,0.023 -0.14697,1.429 -2e-4,0.012 -0.072,0.4768 1.8686,0.2834 0.0732,-0.4865 0.005,-0.023 1.3e-4,-0.023 0.15653,-1.5179 0.002,-0.024 0.002,-0.023 0.0816,-1.5266 6.3e-4,-0.022 1.4e-4,-0.023 0.002,-0.2311 -1.88892,-0.01 z m -42.03745,30.4858 0.77613,0.2623 0.0225,0.01 0.0215,0.01 1.469,0.4193 0.0215,0.01 0.0215,0.01 1.39518,0.3266 0.43029,-1.8406 -1.35077,-0.3162 -0.002,10e-4 -1.46267,-0.4162 -0.002,10e-4 -0.73515,-0.2499 z m 41.2919,-24.5819 -0.004,0.014 -0.35043,1.393 -0.005,0.015 -0.006,0.029 -0.41616,1.3768 -0.018,0.051 1.78098,0.6316 0.019,-0.049 0.006,-0.022 0.007,-0.023 0.44168,-1.4616 0.007,-0.023 0.006,-0.022 0.37131,-1.4819 0.006,-0.022 0.003,-0.022 0.1337,-0.659 -1.85369,-0.3709 z m -35.61743,25.9651 1.25543,0.1705 0.0239,0 0.0222,0 1.52969,0.1339 0.0229,7e-4 0.0212,0 0.97619,0.038 0.074,-1.8874 -0.96313,-0.039 -0.0137,-0 -1.48491,-0.1305 -1.21127,-0.1644 z m 33.77745,-20.3629 -0.01,0.022 -0.008,0.021 -0.61097,1.3089 -0.004,0.014 -0.51744,0.9866 1.67159,0.8796 0.523,-0.9965 0.0109,-0.02 0.0109,-0.02 0.6489,-1.3918 0.008,-0.021 0.008,-0.021 0.42442,-1.0344 -1.74939,-0.7175 z m -27.99192,20.7236 0.21776,-0 0.0229,6e-4 0.0219,-0 1.5462,-0.088 0.0236,-0 0.0236,-0 1.54608,-0.1619 0.0236,-0 0.0236,-0 0.45174,-0.069 -0.28884,-1.8675 -0.40573,0.063 -0.0185,-9e-4 -1.48603,0.1566 -0.0246,4e-4 -0.0219,0 -1.48947,0.084 -0.0137,-0 -0.17324,7e-4 z m 25.90849,-16.758 -0.0143,0.022 -0.0102,0.017 -0.79841,1.2187 -0.0119,0.018 -0.0126,0.021 -0.87794,1.2059 -0.0102,0.018 -0.35276,0.4358 1.47285,1.1839 0.38118,-0.4726 0.0136,-0.019 0.0119,-0.018 0.91498,-1.259 0.0136,-0.019 0.0119,-0.018 0.8489,-1.2953 0.0136,-0.019 0.0109,-0.02 0.0343,-0.058 -1.62738,-0.9594 z m -20.10335,16.0901 0.77114,-0.1565 0.0253,-0 0.0236,-0 1.53223,-0.393 0.0236,-0 0.0203,-0.012 1.34704,-0.4169 -0.55893,-1.804 -1.33155,0.4124 -0.0135,0.01 -1.44167,0.3702 -0.0219,10e-4 -0.75127,0.1519 z m 16.43227,-11.2846 -0.0119,0.01 -1.06185,1.0866 -0.0135,0.01 -1.13322,1.0489 1.28288,1.3861 1.14479,-1.0601 0.0203,-0.012 0.0136,-0.019 1.10644,-1.1305 0.0136,-0.019 0.0136,-0.019 0.4228,-0.4787 -1.41239,-1.2549 z m -10.82705,9.6181 1.39448,-0.5885 0.0203,-0.012 0.0203,-0.012 1.47122,-0.7096 0.0203,-0.012 0.0203,-0.012 0.55434,-0.3016 -0.90368,-1.659 -0.51275,0.2798 -0.0135,0.01 -1.41414,0.6835 -0.007,0 -1.38672,0.5864 z m 6.14435,-5.4983 -0.007,0 -1.29895,0.883 -0.0135,0.01 -0.62699,0.3828 0.98491,1.6121 0.66708,-0.4071 0.0203,-0.012 0.0203,-0.012 1.35013,-0.9193 0.0203,-0.012 0.0203,-0.012 1.08723,-0.8239 -1.14047,-1.5066 z"
     id="path4651-7"
     inkscape:connector-curvature="0" />
  <path
     style="color:#000000;font-style:normal;font-variant:normal;font-weight:normal;font-stretch:normal;font-size:medium;line-height:normal;font-family:sans-serif;font-variant-ligatures:normal;font-variant-position:normal;font-variant-caps:normal;font-variant-numeric:normal;font-variant-alternates:normal;font-feature-settings:normal;text-indent:0;text-align:start;text-decoration:none;text-decoration-line:none;text-decoration-style:solid;text-decoration-color:#000000;letter-spacing:normal;word-spacing:normal;text-transform:none;writing-mode:lr-tb;direction:ltr;text-orientation:mixed;dominant-baseline:auto;baseline-shift:baseline;text-anchor:start;white-space:normal;shape-padding:0;clip-rule:nonzero;display:inline;overflow:visible;visibility:visible;opacity:1;isolation:auto;mix-blend-mode:normal;color-interpolation:sRGB;color-interpolation-filters:linearRGB;solid-color:#000000;solid-opacity:1;vector-effect:none;fill:#00ff00;fill-opacity:1;fill-rule:nonzero;stroke:none;stroke-width:1.88976383;stroke-linecap:butt;stroke-linejoin:miter;stroke-miterlimit:4;stroke-dasharray:3.77952766, 1.88976383;stroke-dashoffset:0;stroke-opacity:1;color-rendering:auto;image-rendering:auto;shape-rendering:auto;text-rendering:auto;enable-background:accumulate"
     d="m 430.49134,1789.0154 -0.0203,0.012 -0.0203,0.012 -0.79281,0.5409 1.06588,1.561 0.77859,-0.5303 0.0135,-0.01 1.34888,-0.8238 1.00739,-0.5482 -0.90369,-1.659 -1.02599,0.5589 -0.0203,0.012 -0.022,0.013 z m 5.03023,-0.6038 0.20471,-0.098 1.40562,-0.5927 0.003,-0 1.48917,-0.5418 0.0135,-0.01 0.2695,-0.084 -0.55888,-1.804 -0.31609,0.097 -0.0186,0.011 -0.0203,0.012 -1.50704,0.5499 -0.0203,0.012 -0.0203,0.012 -1.49097,0.6285 -0.0203,0.012 -0.0203,0.012 -0.20522,0.098 z m -7.74741,2.5538 -0.0203,0.012 -0.0203,0.012 -1.22974,1.0302 -0.0203,0.012 -0.0186,0.011 -1.16795,1.0825 -0.0153,0.02 -0.0136,0.019 -0.12604,0.1293 1.34993,1.3226 0.0931,-0.097 0.0152,-0.01 1.12063,-1.0395 0.009,-0.01 1.22222,-1.0237 0.28366,-0.2157 -1.14048,-1.5066 z m 12.9046,-4.3947 0.91013,-0.2322 0.0101,-0.01 1.47471,-0.3012 0.0219,-0 1.19472,-0.1846 -0.28883,-1.8675 -1.23979,0.1925 -0.0236,0 -0.0236,0 -1.54032,0.3164 -0.0236,0 -0.0236,0 -0.92388,0.2357 z m -17.58807,8.9389 -0.0136,0.019 -0.0136,0.019 -0.97957,1.2174 -0.0136,0.019 -0.0136,0.019 -0.66603,0.9167 1.52805,1.1115 0.65803,-0.9033 0.009,-0.016 0.9218,-1.1456 0.0119,-0.018 0.70485,-0.7948 -1.41409,-1.254 z m 22.98654,-9.8658 1.50864,-0.086 0.0137,0 1.45447,-0.012 0.0256,0 0.0202,-10e-5 0.66489,0.027 0.0756,-1.8885 -0.71307,-0.028 -0.0229,-6e-4 -0.0229,-7e-4 -1.54357,0.014 -0.0229,-6e-4 -0.0219,10e-4 -1.52006,0.086 z m -25.8136,13.7466 -0.0119,0.018 -0.0109,0.02 -0.78387,1.3298 -0.0109,0.02 -0.0109,0.02 -0.71541,1.3624 -0.0109,0.02 -0.01,0.022 -0.26059,0.5564 1.71315,0.7993 0.24021,-0.5175 0.004,-0.014 0.68873,-1.311 0.0119,-0.018 0.01,-0.022 0.73767,-1.2536 0.007,-0 0.0403,-0.059 -1.58123,-1.0356 z m 31.33997,-13.6942 0.42387,0.035 0.0249,0 0.0212,0 1.42921,0.1942 0.002,-10e-4 1.45816,0.2678 0.0161,0 0.0276,0 0.19617,0.047 0.43028,-1.8406 -0.23955,-0.056 -0.0215,-0.01 -0.0222,-0 -1.5042,-0.2773 -0.0232,-0.01 -0.0222,-0 -1.51914,-0.2054 -0.0222,-0 -0.0222,-0 -0.46966,-0.04 z m -34.15377,19.3557 -0.008,0.021 -0.007,0.023 -0.512,1.4413 -0.008,0.021 -0.006,0.022 -0.44241,1.4642 -0.007,0.02 -0.005,0.023 -0.0398,0.1538 1.83276,0.4596 0.0391,-0.1511 0.002,-10e-4 0.41616,-1.3768 0.01,-0.026 0.004,-0.016 0.49716,-1.3967 0.002,-10e-4 0.19701,-0.4791 -1.74844,-0.7159 z m 39.54051,-18.3498 0.84119,0.2382 0.0147,0.01 1.39051,0.467 0.023,0.01 0.0199,0.01 1.1991,0.4714 0.68889,-1.7599 -1.24106,-0.4855 -0.0209,-0.01 -0.0225,-0.01 -1.44604,-0.489 -0.0215,-0.01 -0.0225,-0.01 -0.88489,-0.2514 z m -41.21856,24.4042 -0.005,0.023 -0.003,0.023 -0.22974,1.5083 -0.002,0.024 -0.003,0.022 -0.12671,1.2414 1.8798,0.1935 0.12822,-1.2311 2e-4,-0.012 0.21313,-1.4199 0.004,-0.021 0.004,-0.024 0.19032,-0.9399 -1.85199,-0.3718 z m 46.34681,-22.471 1.20213,0.6095 0.0102,0.01 1.25132,0.7143 0.74876,0.4765 1.01472,-1.594 -0.74707,-0.4775 -0.0211,-0.013 -0.0196,-0.011 -1.32927,-0.7594 -0.0196,-0.011 -0.0219,-0.011 -1.21211,-0.6151 z m -46.83953,28.7387 -6.3e-4,0.022 8.6e-4,0.025 0.0684,1.5325 3.6e-4,0.024 0.001,0.022 0.0737,0.7918 1.88304,-0.176 -0.0709,-0.7439 -0.0666,-1.5334 0.008,-1.4049 -1.8906,-0.01 z m 51.57283,-25.892 0.20364,0.1418 0.008,0.01 1.20411,0.9488 0.002,-0 1.12458,0.9791 0.009,0.01 0.24425,0.2357 1.30967,-1.3606 -0.27859,-0.2676 -0.0172,-0.018 -0.0179,-0.015 -1.17074,-1.0199 -0.0179,-0.015 -0.0192,-0.013 -1.21409,-0.9544 -0.0179,-0.015 -0.0192,-0.013 -0.24305,-0.171 z m -51.13289,30.6267 0.002,0.023 0.004,0.023 0.29796,1.5239 0.004,0.023 0.007,0.024 0.3735,1.5141 0.006,0.023 0.007,0.024 0.0785,0.2569 1.80914,-0.5461 -0.0727,-0.2354 -0.006,-0.022 -0.35228,-1.4227 -0.004,-0.014 -0.28462,-1.4618 0.002,-10e-4 -0.0567,-0.3911 -1.87052,0.2679 z m 55.23204,-27.0033 0.55059,0.5865 0.015,0.018 0.97731,1.1498 0.009,0.011 0.80825,1.0601 1.50275,-1.1472 -0.81684,-1.071 -0.016,-0.02 -0.015,-0.018 -1.02262,-1.2048 -0.015,-0.018 -0.0172,-0.018 -0.58245,-0.6221 z m -53.52916,33.2145 0.008,0.022 0.009,0.024 0.61414,1.47 0.008,0.022 0.0108,0.023 0.5162,1.0777 1.70455,-0.8172 -0.49518,-1.0335 v 0 l -0.60797,-1.4554 -0.005,-0.013 -0.31669,-0.8884 -1.77922,0.6371 z m 56.91179,-28.9181 0.81706,1.337 0.74249,1.3642 0.005,0.013 0.68518,1.429 0.005,0.01 0.19019,0.4585 1.7432,-0.7268 -0.20961,-0.5037 -0.008,-0.022 -0.0108,-0.023 -0.69518,-1.4502 -0.0103,-0.022 -0.0125,-0.022 -0.77526,-1.4288 -0.83017,0.4528 0.80717,-0.4926 -0.83141,-1.358 z m -54.76745,33.4017 0.0115,0.02 0.0115,0.02 0.84974,1.3858 0.0125,0.022 0.0137,0.02 0.9083,1.3271 0.0142,0.021 0.015,0.018 0.24029,0.3146 1.501,-1.1463 -0.23661,-0.3122 v 0 l -0.87198,-1.276 -0.009,-0.011 -0.81021,-1.3251 -0.059,-0.1103 -1.66183,0.9029 z m 3.28057,4.6665 0.5762,0.6777 0.015,0.018 0.0172,0.018 1.07318,1.144 0.0172,0.018 0.0167,0.017 0.95275,0.9158 1.31135,-1.3615 -0.93696,-0.9002 -0.0157,-0.015 -1.00873,-1.0753 -0.015,-0.018 -0.56011,-0.6577 z m 54.84183,-31.0698 0.008,0.022 0.42687,1.4113 0.005,0.021 0.34691,1.4055 1.83575,-0.4532 -0.35353,-1.4287 -0.006,-0.023 -0.007,-0.024 -0.45412,-1.5014 -0.007,-0.024 -0.008,-0.022 -0.24828,-0.6957 -1.77917,0.6372 z m -50.68164,35.1856 1.1351,0.8919 0.0174,0.014 0.0197,0.014 1.25569,0.8897 0.0197,0.014 0.0211,0.013 0.67049,0.427 1.01572,-1.5923 -0.6715,-0.4287 -1.17985,-0.8366 -0.002,0 -1.13146,-0.8894 z m 51.98874,-29.2849 -0.002,10e-4 0.13455,1.4401 0.0428,0.9451 1.88682,-0.084 -0.0418,-0.9434 -8.6e-4,-0.025 -0.002,-0.024 -0.14271,-1.5324 -0.002,-0.024 -0.004,-0.022 -0.18282,-1.2815 -1.87047,0.268 z m -47.18795,32.5415 0.32986,0.1886 0.0201,0.011 0.0219,0.01 1.3629,0.6926 0.0219,0.011 0.0191,0.01 1.39384,0.6252 0.0209,0.01 0.0204,0.01 0.31987,0.1243 0.68989,-1.7582 -0.27689,-0.1085 -0.0102,-0.01 -1.38481,-0.6213 -1.30875,-0.6652 -0.0129,-0.01 -0.29097,-0.168 z m 47.38228,-28.1229 -2e-4,0.012 -0.0789,1.4687 -0.15537,1.5083 -2e-4,0.012 -0.0671,0.4424 1.86759,0.2816 0.0749,-0.4875 0.003,-0.022 0.003,-0.023 0.15554,-1.5196 0.003,-0.023 1.4e-4,-0.023 0.0816,-1.5267 0.002,-0.024 1.3e-4,-0.023 1.4e-4,-0.2302 -1.88986,-0.012 z m -42.03846,30.4842 0.77713,0.264 0.0215,0.01 0.0225,0.01 1.46801,0.4177 0.0215,0.01 0.0215,0.01 1.39517,0.3267 0.43025,-1.8408 -1.34978,-0.3144 -0.002,0 -1.42265,-0.4055 -0.0137,-0 -0.76451,-0.2578 z m 41.29194,-24.5818 -0.004,0.014 -0.36015,1.4348 -0.002,10e-4 -0.41611,1.3769 -0.006,0.017 -0.0126,0.033 1.78193,0.6333 0.018,-0.051 0.008,-0.021 0.006,-0.022 0.44237,-1.4643 0.006,-0.022 0.006,-0.022 0.3723,-1.4801 0.005,-0.023 0.006,-0.022 0.13201,-0.6581 -1.85469,-0.3725 z m -35.61741,25.965 1.25806,0.1712 0.0222,0 0.0212,0 1.52975,0.134 0.0239,0 0.0229,6e-4 0.97455,0.04 0.073,-1.8892 -0.92971,-0.036 -1.48396,-0.1289 -1.25706,-0.1695 z m 33.75895,-20.3207 -0.63036,1.3496 -0.50355,0.9559 1.67164,0.8798 0.52394,-0.9949 0.0109,-0.02 0.01,-0.022 0.64885,-1.3918 0.009,-0.019 0.008,-0.021 0.42518,-1.037 -1.7484,-0.7158 z m -27.97248,20.683 0.21782,-0 0.0219,-0 0.0229,7e-4 1.5479,-0.089 0.0219,-10e-4 0.0236,-0 1.54609,-0.162 0.0236,-0 0.0236,-0 0.45079,-0.071 -0.28885,-1.8675 -0.40477,0.064 -0.0202,2e-4 -1.48339,0.1572 -0.0246,4e-4 -0.0219,0 -1.48953,0.084 -0.0137,-0 -0.17324,8e-4 z m 25.89647,-16.7397 -0.81111,1.2396 -0.0119,0.018 -0.0126,0.021 -0.87788,1.206 -0.0102,0.017 -0.35272,0.4359 1.47456,1.1829 0.37943,-0.4717 0.0136,-0.019 0.0136,-0.019 0.9133,-1.258 0.0136,-0.019 0.0119,-0.018 0.85059,-1.2963 0.0109,-0.02 0.0119,-0.018 0.0349,-0.061 -1.62908,-0.9583 z m -20.09132,16.0719 0.77187,-0.1592 0.0236,-0 0.0236,-0 1.53219,-0.393 0.0236,-0 0.0253,-0 1.34704,-0.4169 -0.55824,-1.8067 -1.33325,0.4134 -0.0135,0.01 -1.47364,0.3772 -0.0101,0.01 -0.72613,0.1485 z m 16.4313,-11.2862 -0.0101,0.01 -1.06354,1.0876 -0.0135,0.01 -1.13321,1.0489 1.28386,1.3878 1.1448,-1.0601 0.0153,-0.02 0.0136,-0.019 1.10649,-1.1304 0.0136,-0.019 0.0136,-0.019 0.42376,-0.477 -1.41235,-1.2548 z m -10.82703,9.6181 1.39542,-0.587 0.0203,-0.012 0.0203,-0.012 1.47123,-0.7096 0.0203,-0.012 0.0203,-0.012 0.55604,-0.3025 -0.90473,-1.6609 -0.55603,0.3026 -1.42794,0.6869 -0.002,10e-4 -1.35193,0.5685 z m 6.17722,-5.5195 -1.31053,0.8941 -0.66708,0.4071 0.98596,1.614 0.66659,-0.408 0.0203,-0.012 0.0203,-0.012 1.35012,-0.9193 0.0203,-0.012 0.0203,-0.012 1.08724,-0.8239 -1.14048,-1.5066 z"
     id="path4651-5"
     inkscape:connector-curvature="0" />
  <path
     style="color:#000000;font-style:normal;font-variant:normal;font-weight:normal;font-stretch:normal;font-size:medium;line-height:normal;font-family:sans-serif;font-variant-ligatures:normal;font-variant-position:normal;font-variant-caps:normal;font-variant-numeric:normal;font-variant-alternates:normal;font-feature-settings:normal;text-indent:0;text-align:start;text-decoration:none;text-decoration-line:none;text-decoration-style:solid;text-decoration-color:#000000;letter-spacing:normal;word-spacing:normal;text-transform:none;writing-mode:lr-tb;direction:ltr;text-orientation:mixed;dominant-baseline:auto;baseline-shift:baseline;text-anchor:start;white-space:normal;shape-padding:0;clip-rule:nonzero;display:inline;overflow:visible;visibility:visible;opacity:1;isolation:auto;mix-blend-mode:normal;color-interpolation:sRGB;color-interpolation-filters:linearRGB;solid-color:#000000;solid-opacity:1;vector-effect:none;fill:#00ff00;fill-opacity:1;fill-rule:nonzero;stroke:none;stroke-width:1.88976383;stroke-linecap:butt;stroke-linejoin:miter;stroke-miterlimit:4;stroke-dasharray:3.77952766, 1.88976383;stroke-dashoffset:0;stroke-opacity:1;color-rendering:auto;image-rendering:auto;shape-rendering:auto;text-rendering:auto;enable-background:accumulate"
     d="m 297.04182,1787.6241 -1.41046,0.8617 -0.0203,0.012 -0.0203,0.012 -0.79113,0.5399 1.06318,1.5602 0.7796,-0.5286 0.0135,-0.01 1.35058,-0.8248 1.00569,-0.5471 -0.90373,-1.6592 -1.026,0.5589 -0.0203,0.012 z m 3.61975,0.2579 0.16162,-0.08 0.0101,-0.01 1.47814,-0.6234 0.002,-10e-4 1.41974,-0.5175 0.3151,-0.099 -0.55993,-1.8058 -0.31341,0.098 -0.0253,0 -0.0203,0.012 -1.50703,0.5499 -0.0203,0.012 -0.0203,0.012 -1.49098,0.6285 -0.0203,0.012 -0.0203,0.012 -0.20252,0.098 z m -7.7474,2.5537 -0.0203,0.012 -0.0203,0.012 -1.22974,1.0302 -0.0203,0.012 -0.0136,0.019 -1.16795,1.0825 -0.0203,0.012 -0.0136,0.019 -0.12604,0.1294 1.35162,1.3215 0.0915,-0.096 0.0152,-0.01 1.15564,-1.0687 1.15804,-0.9708 0.007,-0 0.31548,-0.2387 -1.14047,-1.5066 z m 12.90464,-4.3946 0.87718,-0.2267 0.0236,-0 0.0253,-0 1.47306,-0.3001 0.0219,-0 1.19567,-0.183 -0.28884,-1.8674 -1.24073,0.1908 -0.0236,0 -0.0236,0 -1.53863,0.3155 -0.0253,0 -0.0236,0 -0.92288,0.2374 z m -17.58906,8.9372 -0.0136,0.019 -0.0136,0.019 -0.97863,1.2191 -0.0136,0.019 -0.0119,0.018 -0.66772,0.9177 1.52804,1.1115 0.65808,-0.9032 0.009,-0.016 0.92081,-1.1473 0.0119,-0.018 0.70484,-0.7948 -1.41408,-1.254 z m 22.98754,-9.8641 1.50859,-0.086 0.0137,0 1.45346,-0.014 0.0256,0 0.0203,-10e-5 0.66752,0.027 0.074,-1.8875 -0.7131,-0.028 -0.0229,-7e-4 -0.0229,-6e-4 -1.54361,0.014 -0.0229,-7e-4 -0.0219,0 -1.52,0.086 z m -25.81195,13.7455 -0.0136,0.019 -0.0109,0.02 -0.78382,1.3299 -0.0109,0.02 -0.0109,0.02 -0.71636,1.3608 -0.01,0.022 -0.0109,0.02 -0.25965,0.5581 1.71316,0.7993 0.24021,-0.5176 0.004,-0.014 0.68942,-1.3138 0.0102,-0.017 0.0116,-0.023 0.75693,-1.2827 0.007,-0 0.019,-0.03 -1.57953,-1.0366 z m 31.33732,-13.6948 0.47066,0.042 1.46095,0.1984 0.0137,0 1.46012,0.2712 0.1952,0.045 0.4313,-1.839 -0.23962,-0.056 -0.0215,-0.01 -0.0232,-0 -1.5042,-0.2773 -0.0222,-0 -0.0222,-0 -1.51745,-0.2064 -0.0239,-0 -0.0222,-0 -0.47066,-0.042 z m -34.15282,19.3573 -0.008,0.021 -0.008,0.021 -0.51201,1.4413 -0.007,0.023 -0.006,0.022 -0.44168,1.4615 -0.007,0.023 -0.006,0.022 -0.0388,0.1555 1.83276,0.4596 0.0284,-0.1111 0.42757,-1.4196 0.49521,-1.4001 0.004,-0.014 0.20924,-0.5087 -1.74939,-0.7175 z m 39.5422,-18.3507 0.88052,0.2516 0.002,-10e-4 1.36109,0.4591 0.0235,0.01 0.0199,0.01 1.19813,0.4698 0.6899,-1.7582 -1.24206,-0.4873 -0.0209,-0.01 -0.0225,-0.01 -1.44504,-0.4873 -0.0225,-0.01 -0.0215,-0.01 -0.88316,-0.2523 z m -41.22125,24.4034 -0.003,0.023 -0.005,0.023 -0.22704,1.5091 -0.005,0.023 -0.001,0.021 -0.12745,1.2441 1.87885,0.1918 0.12327,-1.1967 2e-4,-0.012 0.21708,-1.456 0.004,-0.021 0.004,-0.025 0.19032,-0.9399 -1.85299,-0.3736 z m 46.3485,-22.472 1.17157,0.5956 1.29012,0.7346 0.008,0.01 0.74148,0.4718 1.0174,-1.5933 -0.74976,-0.4783 -0.0201,-0.011 -0.0201,-0.012 -1.32923,-0.7593 -0.0211,-0.013 -0.0209,-0.01 -1.21305,-0.6167 z m -46.84022,28.7414 -1.3e-4,0.023 0.001,0.022 0.0677,1.5352 -1.3e-4,0.023 0.002,0.023 0.0755,0.791 1.8813,-0.1752 -0.0738,-0.7918 -0.0629,-1.4409 0.002,-10e-4 0.006,-1.4468 -1.88892,-0.01 z m 51.57188,-25.8936 0.20459,0.1434 0.007,0.01 1.19658,0.9397 0.0132,0.011 1.12553,0.9807 0.009,0.01 0.24425,0.2356 1.30966,-1.3605 -0.27789,-0.2703 -0.0174,-0.014 -0.0189,-0.017 -1.1698,-1.0184 -0.0179,-0.015 -0.0184,-0.016 -1.21578,-0.9535 -0.0179,-0.015 -0.0197,-0.014 -0.24131,-0.1718 z m -51.13289,30.6267 0.003,0.025 0.004,0.023 0.297,1.5223 0.005,0.025 0.005,0.021 0.3745,1.5159 0.006,0.022 0.007,0.024 0.0784,0.2569 1.80916,-0.5461 -0.0651,-0.2104 -0.005,-0.016 -0.36022,-1.452 -0.004,-0.014 -0.28563,-1.4635 -0.003,-0.017 -0.0543,-0.3792 -1.87047,0.268 z m 55.23298,-27.0017 0.56643,0.6022 0.97562,1.1508 0.0117,0.016 0.80536,1.0551 1.5027,-1.1473 -0.8168,-1.071 -0.015,-0.018 -0.0155,-0.019 -1.02092,-1.2058 -0.0167,-0.017 -0.015,-0.018 -0.58419,-0.6212 z m -53.52915,33.2145 0.009,0.023 0.01,0.021 0.61244,1.471 0.0108,0.023 0.01,0.021 0.51455,1.0787 1.70551,-0.8156 -0.49613,-1.0351 -0.005,-0.01 -0.60313,-1.447 -0.008,-0.018 -0.31674,-0.8884 -1.77917,0.6371 z m 56.91179,-28.9181 0.81775,1.3344 0.76351,1.4085 0.67053,1.4035 v 0 l 0.19124,0.4603 1.74221,-0.7285 -0.20962,-0.5037 -0.008,-0.022 -0.0103,-0.022 -0.69519,-1.4502 -0.0108,-0.023 -0.01,-0.021 -0.77699,-1.4278 -0.82947,0.4501 0.80497,-0.4925 -0.83041,-1.3563 z m -54.76846,33.4 0.012,0.021 0.0125,0.022 0.84974,1.3858 0.0115,0.02 0.0142,0.021 0.91001,1.3262 0.0137,0.02 0.0132,0.019 0.24124,0.3162 1.5027,-1.1472 -0.23734,-0.3095 -0.005,-0.01 -0.87299,-1.2777 -0.009,-0.011 -0.80927,-1.3235 -0.06,-0.1119 -1.66083,0.9046 z m 3.28328,4.6673 0.57355,0.677 0.015,0.018 0.0172,0.018 1.07419,1.1457 0.0157,0.015 0.0172,0.018 0.95374,0.9175 1.31035,-1.3632 -0.94256,-0.906 -0.0105,-0.01 -1.0284,-1.0977 -0.0125,-0.014 -0.54166,-0.6413 z m 54.83419,-31.0947 0.006,0.017 0.43471,1.4405 0.004,0.014 0.35008,1.4149 1.83475,-0.4549 -0.35349,-1.4287 -0.007,-0.024 -0.005,-0.021 -0.45342,-1.5041 -0.009,-0.023 -0.006,-0.023 -0.24997,-0.6947 -1.77921,0.637 z m -50.67664,35.2098 1.13605,0.8935 0.0174,0.014 0.0197,0.014 1.25569,0.8898 0.0197,0.014 0.0196,0.011 0.67154,0.4288 1.01472,-1.594 -0.63139,-0.4022 -1.25109,-0.8857 -0.007,-0.01 -1.09837,-0.8634 z m 51.98968,-29.2832 -0.002,10e-4 0.13453,1.44 8.1e-4,0.013 0.0409,0.9303 1.88782,-0.082 -0.0427,-0.9451 6.3e-4,-0.022 -0.002,-0.024 -0.14271,-1.5323 -0.002,-0.024 -0.004,-0.022 -0.18376,-1.2831 -1.86953,0.2697 z m -47.1889,32.5398 0.3315,0.1875 0.0201,0.012 0.0196,0.011 1.36289,0.6926 0.0214,0.01 0.0219,0.011 1.39284,0.6234 0.0201,0.012 0.0225,0.01 0.31812,0.1253 0.6889,-1.76 -0.30915,-0.1214 -0.0102,-0.01 -1.31107,-0.5873 -0.0214,-0.01 -0.0191,-0.01 -1.31239,-0.6677 -0.0102,-0.01 -0.29001,-0.1664 z m 47.38053,-28.079 v 0 l -0.0809,1.481 -0.14527,1.4281 -1.9e-4,0.012 -0.0727,0.4796 1.87029,0.2823 0.0732,-0.4864 0.003,-0.023 0.002,-0.024 0.15654,-1.518 0.002,-0.024 6.3e-4,-0.022 0.0816,-1.5266 0.002,-0.023 1.3e-4,-0.023 2e-4,-0.2301 -1.88891,-0.01 z m -42.03571,30.442 0.77783,0.2613 0.0209,0.01 0.0215,0.01 1.469,0.4194 0.0215,0.01 0.0232,0.01 1.39349,0.3276 0.4303,-1.8406 -1.35078,-0.3162 -0.0296,-0.01 -0.0137,-0 -1.38162,-0.393 -0.0137,-0 -0.76547,-0.2594 z m 41.29881,-24.6129 -0.37231,1.4801 -0.41616,1.3769 -0.0132,0.043 -0.005,0 1.7793,0.6326 0.019,-0.049 0.007,-0.023 0.006,-0.022 0.44337,-1.4625 0.006,-0.022 0.006,-0.022 0.3713,-1.4819 0.006,-0.022 0.005,-0.023 0.13201,-0.6581 -1.85199,-0.3718 z m -35.62433,25.9961 1.2571,0.1695 0.0222,0 0.0222,0 1.52969,0.1339 0.0229,6e-4 0.0229,6e-4 0.97449,0.04 0.074,-1.8875 -0.96313,-0.039 -0.0137,-0 -1.43908,-0.1254 -0.0239,-0 -0.0222,-0 -1.21126,-0.1644 z m 33.77744,-20.363 -0.62941,1.3513 -0.004,0.014 -0.51743,0.9866 1.67329,0.8787 0.52298,-0.9965 0.009,-0.019 0.0109,-0.02 0.6489,-1.3917 0.008,-0.021 0.01,-0.022 0.42443,-1.0344 -1.74939,-0.7176 z m -27.99193,20.7236 0.21778,-0 0.0229,6e-4 0.0236,-0 1.5462,-0.088 0.0219,-0 0.0236,-0 1.54779,-0.1629 0.0219,-0 0.0236,-0 0.45174,-0.069 -0.28883,-1.8675 -0.40574,0.063 -0.0185,-8e-4 -1.48603,0.1566 -0.0246,3e-4 -0.0219,0 -1.4546,0.082 -0.0169,-0 -0.20224,0 z m 25.9085,-16.758 -0.004,0.014 -0.81767,1.2478 -0.0119,0.018 -0.0126,0.021 -0.87963,1.207 -0.009,0.016 -0.35108,0.4349 1.47287,1.1839 0.37948,-0.4716 0.0136,-0.019 0.0136,-0.019 0.91329,-1.258 0.0136,-0.019 0.0119,-0.018 0.85059,-1.2963 0.0119,-0.018 0.0109,-0.02 0.0359,-0.059 -1.62908,-0.9583 z m -20.10335,16.0902 0.77283,-0.1576 0.0236,-0 0.0236,-0 1.53223,-0.393 0.0236,-0 0.0203,-0.012 1.34873,-0.4178 -0.55893,-1.8041 -1.33325,0.4135 -0.0135,0.01 -1.47195,0.3762 -0.0119,0.01 -0.72707,0.1469 z m 16.41587,-11.2661 -0.0119,0.018 -1.04137,1.0634 -0.0135,0.01 -1.13322,1.049 1.28288,1.386 1.14479,-1.0601 0.0203,-0.012 0.0136,-0.019 1.10643,-1.1305 0.0136,-0.019 0.0153,-0.02 0.42281,-0.4787 -1.41409,-1.2539 z m -10.81065,9.5996 1.39448,-0.5886 0.0203,-0.012 0.0203,-0.012 1.47123,-0.7096 0.0203,-0.012 0.0203,-0.012 0.55603,-0.3025 -0.90369,-1.6591 -0.51444,0.2809 -0.0135,0.01 -1.41415,0.6834 -0.007,0 -1.38671,0.5864 z m 6.14434,-5.4983 -0.007,0 -1.29895,0.883 -0.0135,0.01 -0.62698,0.3827 0.98492,1.6122 0.66708,-0.4071 0.0203,-0.012 0.0203,-0.012 1.35012,-0.9194 0.0203,-0.012 0.0203,-0.012 1.08722,-0.8238 -1.14047,-1.5067 z"
     id="path4651-35"
     inkscape:connector-curvature="0" />
  <g
     id="g4776"
     transform="rotate(-30,381.33986,1699.8591)">
    <path
       style="color:#000000;font-style:normal;font-variant:normal;font-weight:normal;font-stretch:normal;font-size:medium;line-height:normal;font-family:sans-serif;font-variant-ligatures:normal;font-variant-position:normal;font-variant-caps:normal;font-variant-numeric:normal;font-variant-alternates:normal;font-feature-settings:normal;text-indent:0;text-align:start;text-decoration:none;text-decoration-line:none;text-decoration-style:solid;text-decoration-color:#000000;letter-spacing:normal;word-spacing:normal;text-transform:none;writing-mode:lr-tb;direction:ltr;text-orientation:mixed;dominant-baseline:auto;baseline-shift:baseline;text-anchor:start;white-space:normal;shape-padding:0;clip-rule:nonzero;display:inline;overflow:visible;visibility:visible;opacity:1;isolation:auto;mix-blend-mode:normal;color-interpolation:sRGB;color-interpolation-filters:linearRGB;solid-color:#000000;solid-opacity:1;vector-effect:none;fill:#0000fc;fill-opacity:1;fill-rule:nonzero;stroke:none;stroke-width:5.6692915;stroke-linecap:butt;stroke-linejoin:miter;stroke-miterlimit:4;stroke-dasharray:none;stroke-dashoffset:0;stroke-opacity:1;color-rendering:auto;image-rendering:auto;shape-rendering:auto;text-rendering:auto;enable-background:accumulate"
       d="m 404.98828,1629.3926 -48.14258,0.3496 -0.64648,0.3711 -20.72266,11.9297 -25.68359,41.8769 -0.80078,29.9453 23.62109,39.9922 25.70899,16.2364 47.93554,-0.3497 23.57813,-15.375 24.16797,-39.4257 0.0898,-30.7129 -23.85352,-39.9532 z m -1.52734,5.6816 22.65429,13.3516 22.30469,37.3594 -0.0801,27.5507 -22.66992,36.9825 -21.11523,13.7675 -44.61133,0.3262 -23.14453,-14.6172 -22.09571,-37.4082 0.7168,-26.7969 24.13672,-39.3535 18.82227,-10.8359 z"
       id="path4615"
       inkscape:connector-curvature="0" />
    <path
       style="color:#000000;font-style:normal;font-variant:normal;font-weight:normal;font-stretch:normal;font-size:medium;line-height:normal;font-family:sans-serif;font-variant-ligatures:normal;font-variant-position:normal;font-variant-caps:normal;font-variant-numeric:normal;font-variant-alternates:normal;font-feature-settings:normal;text-indent:0;text-align:start;text-decoration:none;text-decoration-line:none;text-decoration-style:solid;text-decoration-color:#000000;letter-spacing:normal;word-spacing:normal;text-transform:none;writing-mode:lr-tb;direction:ltr;text-orientation:mixed;dominant-baseline:auto;baseline-shift:baseline;text-anchor:start;white-space:normal;shape-padding:0;clip-rule:nonzero;display:inline;overflow:visible;visibility:visible;opacity:1;isolation:auto;mix-blend-mode:normal;color-interpolation:sRGB;color-interpolation-filters:linearRGB;solid-color:#000000;solid-opacity:1;vector-effect:none;fill:#0000ff;fill-opacity:1;fill-rule:nonzero;stroke:none;stroke-width:3.77952766;stroke-linecap:butt;stroke-linejoin:miter;stroke-miterlimit:4;stroke-dasharray:none;stroke-dashoffset:0;stroke-opacity:1;color-rendering:auto;image-rendering:auto;shape-rendering:auto;text-rendering:auto;enable-background:accumulate"
       d="m 355.82227,1631.9688 -15.02539,44.6152 -30.38282,35.3105 2.86524,2.4649 30.86328,-35.8692 15.26172,-45.3164 z"
       id="path4752"
       inkscape:connector-curvature="0" />
    <path
       style="color:#000000;font-style:normal;font-variant:normal;font-weight:normal;font-stretch:normal;font-size:medium;line-height:normal;font-family:sans-serif;font-variant-ligatures:normal;font-variant-position:normal;font-variant-caps:normal;font-variant-numeric:normal;font-variant-alternates:normal;font-feature-settings:normal;text-indent:0;text-align:start;text-decoration:none;text-decoration-line:none;text-decoration-style:solid;text-decoration-color:#000000;letter-spacing:normal;word-spacing:normal;text-transform:none;writing-mode:lr-tb;direction:ltr;text-orientation:mixed;dominant-baseline:auto;baseline-shift:baseline;text-anchor:start;white-space:normal;shape-padding:0;clip-rule:nonzero;display:inline;overflow:visible;visibility:visible;opacity:1;isolation:auto;mix-blend-mode:normal;color-interpolation:sRGB;color-interpolation-filters:linearRGB;solid-color:#000000;solid-opacity:1;vector-effect:none;fill:#0000fe;fill-opacity:1;fill-rule:nonzero;stroke:none;stroke-width:3.77952766;stroke-linecap:butt;stroke-linejoin:miter;stroke-miterlimit:4;stroke-dasharray:none;stroke-dashoffset:0;stroke-opacity:1;color-rendering:auto;image-rendering:auto;shape-rendering:auto;text-rendering:auto;enable-background:accumulate"
       d="m 380.68945,1741.291 -46.33203,8.6778 0.69727,3.7148 45.62304,-8.5449 46.7168,9.0605 0.71875,-3.7109 z"
       id="path4754"
       inkscape:connector-curvature="0" />
    <path
       style="color:#000000;font-style:normal;font-variant:normal;font-weight:normal;font-stretch:normal;font-size:medium;line-height:normal;font-family:sans-serif;font-variant-ligatures:normal;font-variant-position:normal;font-variant-caps:normal;font-variant-numeric:normal;font-variant-alternates:normal;font-feature-settings:normal;text-indent:0;text-align:start;text-decoration:none;text-decoration-line:none;text-decoration-style:solid;text-decoration-color:#000000;letter-spacing:normal;word-spacing:normal;text-transform:none;writing-mode:lr-tb;direction:ltr;text-orientation:mixed;dominant-baseline:auto;baseline-shift:baseline;text-anchor:start;white-space:normal;shape-padding:0;clip-rule:nonzero;display:inline;overflow:visible;visibility:visible;opacity:1;isolation:auto;mix-blend-mode:normal;color-interpolation:sRGB;color-interpolation-filters:linearRGB;solid-color:#000000;solid-opacity:1;vector-effect:none;fill:#0000ff;fill-opacity:1;fill-rule:nonzero;stroke:none;stroke-width:3.77952766;stroke-linecap:butt;stroke-linejoin:miter;stroke-miterlimit:4;stroke-dasharray:none;stroke-dashoffset:0;stroke-opacity:1;color-rendering:auto;image-rendering:auto;shape-rendering:auto;text-rendering:auto;enable-background:accumulate"
       d="m 406.00391,1631.5977 -3.56055,1.2714 16.2207,45.3829 31.0586,37.1015 2.89843,-2.4277 -30.625,-36.582 z"
       id="path4756"
       inkscape:connector-curvature="0" />
    <path
       style="color:#000000;font-style:normal;font-variant:normal;font-weight:normal;font-stretch:normal;font-size:medium;line-height:normal;font-family:sans-serif;font-variant-ligatures:normal;font-variant-position:normal;font-variant-caps:normal;font-variant-numeric:normal;font-variant-alternates:normal;font-feature-settings:normal;text-indent:0;text-align:start;text-decoration:none;text-decoration-line:none;text-decoration-style:solid;text-decoration-color:#000000;letter-spacing:normal;word-spacing:normal;text-transform:none;writing-mode:lr-tb;direction:ltr;text-orientation:mixed;dominant-baseline:auto;baseline-shift:baseline;text-anchor:start;white-space:normal;shape-padding:0;clip-rule:nonzero;display:inline;overflow:visible;visibility:visible;opacity:1;isolation:auto;mix-blend-mode:normal;color-interpolation:sRGB;color-interpolation-filters:linearRGB;solid-color:#000000;solid-opacity:1;vector-effect:none;fill:#0000ff;fill-opacity:1;fill-rule:nonzero;stroke:none;stroke-width:3.77952766;stroke-linecap:butt;stroke-linejoin:miter;stroke-miterlimit:4;stroke-dasharray:none;stroke-dashoffset:0;stroke-opacity:1;color-rendering:auto;image-rendering:auto;shape-rendering:auto;text-rendering:auto;enable-background:accumulate"
       d="m 419.39844,1675.6523 -38.70313,21.9161 -37.27539,-21.6661 -1.89844,3.2676 39.1504,22.7559 40.58789,-22.9844 z"
       id="path4758"
       inkscape:connector-curvature="0" />
    <path
       style="color:#000000;font-style:normal;font-variant:normal;font-weight:normal;font-stretch:normal;font-size:medium;line-height:normal;font-family:sans-serif;font-variant-ligatures:normal;font-variant-position:normal;font-variant-caps:normal;font-variant-numeric:normal;font-variant-alternates:normal;font-feature-settings:normal;text-indent:0;text-align:start;text-decoration:none;text-decoration-line:none;text-decoration-style:solid;text-decoration-color:#000000;letter-spacing:normal;word-spacing:normal;text-transform:none;writing-mode:lr-tb;direction:ltr;text-orientation:mixed;dominant-baseline:auto;baseline-shift:baseline;text-anchor:start;white-space:normal;shape-padding:0;clip-rule:nonzero;display:inline;overflow:visible;visibility:visible;opacity:1;isolation:auto;mix-blend-mode:normal;color-interpolation:sRGB;color-interpolation-filters:linearRGB;solid-color:#000000;solid-opacity:1;vector-effect:none;fill:#0000ff;fill-opacity:1;fill-rule:nonzero;stroke:none;stroke-width:3.77952766;stroke-linecap:butt;stroke-linejoin:miter;stroke-miterlimit:4;stroke-dasharray:none;stroke-dashoffset:0;stroke-opacity:1;color-rendering:auto;image-rendering:auto;shape-rendering:auto;text-rendering:auto;enable-background:accumulate"
       d="m 378.79297,1699.748 v 43.4668 h 3.7793 v -43.4668 z"
       id="path4760"
       inkscape:connector-curvature="0" />
  </g>
  <path
     style="fill:none;stroke:#000000;stroke-width:1px;stroke-linecap:butt;stroke-linejoin:miter;stroke-opacity:1"
     d="m 414.68474,1641.4232 -0.57034,116.5525"
     id="path4578"
     inkscape:connector-curvature="0" />
  <path
     style="fill:none;stroke:#000000;stroke-width:1px;stroke-linecap:butt;stroke-linejoin:miter;stroke-opacity:1"
     d="m 414.68474,1641.4232 -100.79168,57.8022 100.22134,58.7503"
     id="path4580"
     inkscape:connector-curvature="0" />
  <path
     style="color:#000000;font-style:normal;font-variant:normal;font-weight:normal;font-stretch:normal;font-size:medium;line-height:normal;font-family:sans-serif;font-variant-ligatures:normal;font-variant-position:normal;font-variant-caps:normal;font-variant-numeric:normal;font-variant-alternates:normal;font-feature-settings:normal;text-indent:0;text-align:start;text-decoration:none;text-decoration-line:none;text-decoration-style:solid;text-decoration-color:#000000;letter-spacing:normal;word-spacing:normal;text-transform:none;writing-mode:lr-tb;direction:ltr;text-orientation:mixed;dominant-baseline:auto;baseline-shift:baseline;text-anchor:start;white-space:normal;shape-padding:0;clip-rule:nonzero;display:inline;overflow:visible;visibility:visible;opacity:1;isolation:auto;mix-blend-mode:normal;color-interpolation:sRGB;color-interpolation-filters:linearRGB;solid-color:#000000;solid-opacity:1;vector-effect:none;fill:#00ff00;fill-opacity:1;fill-rule:nonzero;stroke:none;stroke-width:1.88976383;stroke-linecap:butt;stroke-linejoin:miter;stroke-miterlimit:4;stroke-dasharray:3.77952766, 1.88976383;stroke-dashoffset:0;stroke-opacity:1;color-rendering:auto;image-rendering:auto;shape-rendering:auto;text-rendering:auto;enable-background:accumulate"
     d="m 298.94439,1557.7805 -1.40878,0.8607 -0.0203,0.012 -0.0203,0.012 -0.79281,0.5409 1.06488,1.5593 0.77959,-0.5287 0.0135,-0.01 1.34888,-0.8238 1.00739,-0.5481 -0.90374,-1.6591 -1.02768,0.5598 -0.0203,0.012 z m 3.62144,0.2569 0.16162,-0.079 0.0101,-0.01 1.47206,-0.6222 h 0.007 l 1.41974,-0.5175 0.31509,-0.099 -0.55893,-1.8041 -0.3161,0.097 h -0.0236 l -0.0203,0.012 -1.50709,0.5498 -0.0203,0.012 -0.0203,0.012 -1.49098,0.6285 -0.0203,0.012 -0.0203,0.012 -0.20421,0.099 z m -7.74741,2.5538 -0.0203,0.012 -0.0203,0.012 -1.22969,1.0302 -0.0203,0.012 -0.0136,0.019 -1.16796,1.0825 -0.0203,0.012 -0.0136,0.019 -0.12605,0.1293 1.34993,1.3225 0.0931,-0.096 0.0135,-0.01 1.15732,-1.0697 1.15805,-0.9708 h 0.002 l 0.31956,-0.2434 -1.14048,-1.5066 z m 12.90295,-4.3936 0.91079,-0.235 0.0101,-0.01 1.47476,-0.3011 h 0.0219 l 1.19566,-0.1829 -0.28883,-1.8675 -1.24074,0.1908 h -0.0236 -0.0236 l -1.54033,0.3165 h -0.0236 -0.0236 l -0.92289,0.2374 z m -17.58737,8.9362 -0.0136,0.019 -0.0136,0.019 -0.97863,1.219 -0.0136,0.019 -0.0136,0.019 -0.66602,0.9168 1.52804,1.1115 0.65808,-0.9032 0.009,-0.016 0.9208,-1.1473 0.0119,-0.019 0.70485,-0.7948 -1.41409,-1.2539 z m 22.98754,-9.8641 1.50859,-0.086 h 0.0137 l 1.49736,-0.012 0.66753,0.027 0.0756,-1.8886 -0.71306,-0.028 -0.0229,-6e-4 -0.0229,-7e-4 -1.54358,0.014 -0.0229,-6e-4 -0.0219,10e-4 -1.5217,0.087 z m -25.81364,13.7465 -0.0119,0.018 -0.0109,0.02 -0.78387,1.3298 -0.0109,0.02 -0.0109,0.02 -0.71805,1.3618 -0.008,0.021 -0.0109,0.02 -0.25965,0.5581 1.71315,0.7993 0.24021,-0.5175 0.004,-0.014 0.68772,-1.3127 0.0119,-0.018 0.01,-0.022 0.73867,-1.2518 0.005,-0.014 0.0156,-0.027 0.0208,-0.031 -1.58123,-1.0356 z m 31.33902,-13.6958 0.42481,0.037 h 0.0222 0.0239 l 1.42922,0.1942 0.002,-10e-4 1.50156,0.2765 0.19522,0.045 0.43123,-1.839 -0.23955,-0.056 -0.0215,-0.01 -0.0233,-0.01 -1.5042,-0.2772 h -0.0222 -0.0222 l -1.51915,-0.2054 h -0.0222 -0.0222 l -0.46966,-0.04 z m -34.15282,19.3573 -0.008,0.021 -0.008,0.021 -0.512,1.4413 -0.007,0.023 -0.006,0.022 -0.44336,1.4626 -0.006,0.022 -0.006,0.022 -0.0388,0.1555 1.83276,0.4596 0.0266,-0.1101 0.004,-0.016 0.42497,-1.4046 0.51126,-1.4387 0.002,-0 0.19701,-0.4791 -1.7494,-0.7175 z m 39.5405,-18.3498 0.84124,0.2383 0.0147,0.01 1.39046,0.4669 0.0235,0.01 0.0199,0.01 1.19814,0.4697 0.68989,-1.7582 -1.24206,-0.4872 -0.0209,-0.01 -0.0225,-0.01 -1.44504,-0.4873 -0.0225,-0.01 -0.0215,-0.01 -0.88489,-0.2514 z m -41.21955,24.4025 -0.005,0.023 -0.003,0.022 -0.22873,1.5101 -0.003,0.022 -0.002,0.024 -0.12676,1.2414 1.8788,0.1917 0.12702,-1.2371 h 0.003 l 0.21415,-1.4181 0.004,-0.021 0.004,-0.025 0.19033,-0.9399 -1.853,-0.3736 z m 46.3468,-22.4711 1.20313,0.6113 0.0102,0.01 1.25027,0.7124 0.008,0.01 0.74243,0.4734 1.01476,-1.5939 -0.74975,-0.4783 -0.0187,-0.012 -0.0201,-0.012 -1.33092,-0.7583 -0.0187,-0.012 -0.0214,-0.01 -1.21306,-0.6167 z m -46.83853,28.7405 -1.3e-4,0.023 -1.4e-4,0.023 0.0693,1.5342 -6.3e-4,0.022 0.002,0.024 0.0738,0.7918 1.88303,-0.176 -0.0719,-0.7456 -8.1e-4,-0.013 -0.0654,-1.5116 -0.002,-0.011 0.009,-1.4031 -1.8906,-0.01 z m 51.57189,-25.8936 0.23497,0.1687 0.008,0.01 1.16449,0.9154 0.0132,0.011 1.12554,0.9807 0.009,0.01 0.24425,0.2357 1.30967,-1.3605 -0.27959,-0.2694 -0.0162,-0.016 -0.0184,-0.016 -1.16979,-1.0183 -0.0179,-0.015 -0.0202,-0.015 -1.21409,-0.9544 -0.0174,-0.014 -0.0197,-0.014 -0.243,-0.1709 z m -51.1329,30.6266 0.003,0.025 0.004,0.023 0.29701,1.5222 0.005,0.024 0.006,0.022 0.37449,1.5158 0.005,0.021 0.007,0.024 0.0785,0.2569 1.80915,-0.5462 -0.0651,-0.2104 -0.005,-0.016 -0.36015,-1.452 -0.004,-0.014 -0.28561,-1.4635 -0.003,-0.017 -0.0543,-0.3792 -1.86953,0.2697 z m 55.23299,-27.0016 0.57032,0.6089 0.0125,0.014 0.95954,1.1307 0.0112,0.015 0.80536,1.055 1.5027,-1.1472 -0.8168,-1.071 -0.0155,-0.019 -0.015,-0.018 -1.02262,-1.2048 -0.015,-0.018 -0.0172,-0.018 -0.58245,-0.6221 z m -53.52916,33.2145 0.008,0.022 0.009,0.023 0.61415,1.4699 0.009,0.024 0.01,0.021 0.5162,1.0777 1.7055,-0.8155 -0.51425,-1.0743 v 0 l -0.58501,-1.4078 -0.009,-0.02 -0.31674,-0.8884 -1.77821,0.6387 z m 56.91179,-28.9181 0.81611,1.3353 0.74249,1.3643 0.005,0.013 0.67002,1.3948 0.005,0.01 0.20836,0.4977 1.7432,-0.7268 -0.20966,-0.5037 -0.009,-0.024 -0.01,-0.021 -0.69518,-1.4502 -0.0108,-0.023 -0.0115,-0.02 -0.77526,-1.4288 -0.83117,0.4511 0.80667,-0.4935 -0.83041,-1.3563 z m -54.76845,33.4 0.012,0.021 0.0125,0.022 0.84974,1.3858 0.0115,0.02 0.0142,0.021 0.90831,1.3272 0.0132,0.019 0.016,0.02 0.24029,0.3146 1.501,-1.1463 -0.21173,-0.2769 v 0 l -0.89782,-1.3129 -0.009,-0.011 -0.81186,-1.3242 -0.059,-0.1103 -1.65914,0.9037 z m 3.28157,4.6682 0.57526,0.676 0.015,0.018 0.0172,0.018 1.07418,1.1457 0.0167,0.017 0.0162,0.016 0.95375,0.9176 1.31131,-1.3616 -0.94352,-0.9076 -0.0105,-0.01 -1.02941,-1.0994 -0.0115,-0.012 -0.54334,-0.6403 z m 54.8342,-31.0947 0.006,0.018 0.43639,1.4394 0.004,0.014 0.35006,1.4149 1.83476,-0.4549 -0.35349,-1.4287 -0.006,-0.022 -0.006,-0.023 -0.45512,-1.5031 -0.007,-0.024 -0.008,-0.022 -0.24827,-0.6957 -1.77922,0.6371 z m -50.67496,35.2089 1.13606,0.8934 0.0179,0.015 0.0197,0.014 1.25569,0.8898 0.0192,0.013 0.0201,0.012 0.67154,0.4287 1.01472,-1.594 -0.65957,-0.4197 -0.0112,-0.01 -1.17985,-0.8366 -0.002,10e-4 -1.13146,-0.8894 z m 51.98367,-29.325 0.003,0.01 0.14145,1.5263 0.0382,0.8981 1.88951,-0.083 -0.0427,-0.9452 1.3e-4,-0.023 -0.002,-0.023 -0.14271,-1.5323 -0.002,-0.024 -0.004,-0.023 -0.18376,-1.2831 -1.86953,0.2697 z m -47.18288,32.5816 0.32981,0.1884 0.0201,0.012 0.0219,0.01 1.36285,0.6925 0.0201,0.012 0.0219,0.01 1.39284,0.6234 0.0219,0.01 0.0209,0.01 0.31981,0.1242 0.68889,-1.7599 -0.27589,-0.1068 -0.008,-0.01 -1.34697,-0.6026 -0.0219,-0.01 -0.0191,-0.01 -1.31239,-0.6676 -0.0102,-0.01 -0.29002,-0.1664 z m 47.38228,-28.1229 0.002,0.011 -0.0787,1.4731 -10e-4,0.021 -0.002,0.024 -0.14697,1.429 -2e-4,0.012 -0.072,0.4768 1.86858,0.2833 0.0749,-0.4874 0.003,-0.022 0.002,-0.024 0.15653,-1.518 1.4e-4,-0.023 0.002,-0.024 0.0817,-1.5266 0.002,-0.024 -10e-4,-0.022 0.002,-0.2311 -1.88891,-0.01 z m -42.03746,30.4858 0.77613,0.2623 0.0225,0.01 0.0215,0.01 1.46901,0.4193 0.0215,0.01 0.0215,0.01 1.39517,0.3266 0.4303,-1.8406 -1.37918,-0.3224 h -0.0161 l -1.37994,-0.394 h -0.0137 l -0.76452,-0.2578 z m 41.29189,-24.5819 -0.004,0.014 -0.35042,1.3931 -0.42758,1.4195 -0.018,0.051 1.78099,0.6317 0.019,-0.049 0.007,-0.023 0.006,-0.022 0.44336,-1.4625 0.006,-0.022 0.006,-0.022 0.37131,-1.4818 0.006,-0.022 0.005,-0.023 0.13201,-0.6581 -1.85374,-0.3709 z m -35.61741,25.9651 1.25711,0.1696 h 0.0222 0.0222 l 1.52971,0.1339 0.0229,7e-4 h 0.0222 l 0.97524,0.037 0.074,-1.8875 -0.96313,-0.039 h -0.0137 l -1.43906,-0.1254 h -0.0239 -0.0222 l -1.21128,-0.1644 z m 33.77744,-20.3629 -0.008,0.021 -0.01,0.022 -0.61097,1.3089 -0.004,0.014 -0.51743,0.9866 1.67159,0.8796 0.52394,-0.9948 0.01,-0.022 0.0109,-0.02 0.64889,-1.3917 0.008,-0.021 0.008,-0.021 0.42613,-1.0354 -1.74939,-0.7175 z m -27.99192,20.7236 h 0.21777 l 0.0229,6e-4 h 0.0219 l 1.5479,-0.089 0.0229,6e-4 h 0.0236 l 1.54608,-0.162 h 0.0236 0.0236 l 0.45174,-0.069 -0.28884,-1.8675 -0.40573,0.063 -0.0185,-8e-4 -1.48602,0.1566 -0.0246,3e-4 h -0.0219 l -1.48947,0.084 h -0.0137 l -0.17324,7e-4 z m 25.90849,-16.758 -0.004,0.014 -0.81768,1.2479 -0.0119,0.018 -0.0126,0.021 -0.87794,1.2059 -0.0102,0.017 -0.35275,0.4359 1.47285,1.1839 0.38118,-0.4727 0.0136,-0.019 0.0119,-0.018 0.91499,-1.2589 0.0136,-0.019 0.0109,-0.02 0.85059,-1.2962 0.0119,-0.018 0.0109,-0.02 0.036,-0.059 -1.62908,-0.9583 z m -20.10334,16.0901 0.77282,-0.1575 h 0.0236 0.0236 l 1.53224,-0.3929 h 0.0236 l 0.0203,-0.012 1.34704,-0.4169 -0.55724,-1.805 -1.33324,0.4134 -0.0135,0.01 -1.47195,0.3763 -0.0119,0.01 -0.72713,0.1469 z m 16.43226,-11.2846 -0.0101,0.01 -1.06354,1.0876 -0.0135,0.01 -1.13321,1.0489 1.28287,1.3861 1.14479,-1.0602 0.0203,-0.012 0.0136,-0.019 1.10644,-1.1304 0.0136,-0.019 0.0136,-0.019 0.42375,-0.4769 -1.41235,-1.2549 z m -10.82704,9.6181 1.39447,-0.5885 0.0203,-0.012 0.0203,-0.012 1.47118,-0.7097 0.0203,-0.012 0.0203,-0.012 0.55603,-0.3026 -0.90368,-1.659 -0.51443,0.2809 -0.0135,0.01 -1.41415,0.6834 h -0.007 l -1.38671,0.5864 z m 6.14434,-5.4983 h -0.007 l -1.29895,0.883 -0.0135,0.01 -0.62699,0.3828 0.98492,1.6121 0.66657,-0.4079 0.0203,-0.012 0.0203,-0.012 1.35018,-0.9193 0.0203,-0.012 0.0203,-0.012 1.08818,-0.8222 -1.14143,-1.5083 z"
     id="path4651-3-3"
     inkscape:connector-curvature="0" />
</svg>
