<?xml version="1.0" encoding="UTF-8" standalone="no"?>
<!-- Created with Inkscape (http://www.inkscape.org/) -->

<svg
   xmlns:dc="http://purl.org/dc/elements/1.1/"
   xmlns:cc="http://creativecommons.org/ns#"
   xmlns:rdf="http://www.w3.org/1999/02/22-rdf-syntax-ns#"
   xmlns:svg="http://www.w3.org/2000/svg"
   xmlns="http://www.w3.org/2000/svg"
   xmlns:sodipodi="http://sodipodi.sourceforge.net/DTD/sodipodi-0.dtd"
   xmlns:inkscape="http://www.inkscape.org/namespaces/inkscape"
   version="1.1"
   id="svg4539"
   width="705"
   height="678"
   viewBox="0 0 705 678"
   sodipodi:docname="lampara.svg"
   inkscape:version="0.92.1 r15371">
  <metadata
     id="metadata4545">
    <rdf:RDF>
      <cc:Work
         rdf:about="">
        <dc:format>image/svg+xml</dc:format>
        <dc:type
           rdf:resource="http://purl.org/dc/dcmitype/StillImage" />
        <dc:title></dc:title>
      </cc:Work>
    </rdf:RDF>
  </metadata>
  <defs
     id="defs4543" />
  <sodipodi:namedview
     pagecolor="#ffffff"
     bordercolor="#666666"
     borderopacity="1"
     objecttolerance="10"
     gridtolerance="10"
     guidetolerance="10"
     inkscape:pageopacity="0"
     inkscape:pageshadow="2"
     inkscape:window-width="1920"
     inkscape:window-height="1051"
     id="namedview4541"
     showgrid="false"
     inkscape:measure-start="171.258,61.1336"
     inkscape:measure-end="464.323,61.137"
     inkscape:zoom="1.2492625"
     inkscape:cx="243.39425"
     inkscape:cy="221.78057"
     inkscape:window-x="0"
     inkscape:window-y="0"
     inkscape:window-maximized="1"
     inkscape:current-layer="svg4539" />
  <g
     id="g4730"
     transform="matrix(0.85339691,0,0,0.85339691,3.5520352,90.497069)">
    <g
       transform="translate(24.213901,-6.4050887)"
       id="g4706">
      <path
         style="fill:none;stroke:#000000;stroke-width:1px;stroke-linecap:butt;stroke-linejoin:miter;stroke-opacity:1"
         d="M 276.9634,597.1523 H 408.64109 L 525.91027,535.91617 601.15466,428.25266 616.76387,295.7745 571.13695,172.90201 471.87839,85.250295 343.00236,52.831169 216.12751,84.049586 l -99.6588,88.852424 -45.226679,119.27036 14.4085,134.87958 75.244389,108.86422 z"
         id="path4635"
         inkscape:connector-curvature="0" />
      <path
         style="fill:none;stroke:#000000;stroke-width:1px;stroke-linecap:butt;stroke-linejoin:miter;stroke-opacity:1"
         d="M 343.00236,598.75325 207.72255,562.33176 109.6647,465.07438 72.842975,329.39433 110.06494,194.11452 208.52302,95.656434 343.80283,60.035419 477.88194,96.05667 l 98.85832,98.85832 35.62102,134.87958 -35.62102,135.27981 -98.85832,97.25738 z"
         id="path4643"
         inkscape:connector-curvature="0" />
      <path
         style="fill:none;stroke:#000000;stroke-width:1px;stroke-linecap:butt;stroke-linejoin:miter;stroke-opacity:1"
         d="M 268.95868,578.74144 415.4451,580.34238 540.71901,499.89492 602.35537,366.21606 581.14286,219.72963 483.48524,108.06375 343.4026,67.239669 202.51948,108.46399 104.86187,221.33058 84.449823,367.01653 144.48524,497.89374 Z"
         id="path4645"
         inkscape:connector-curvature="0" />
      <path
         style="fill:none;stroke:#000000;stroke-width:1px;stroke-linecap:butt;stroke-linejoin:miter;stroke-opacity:1"
         d="M 343.80283,583.14404 194.11452,535.1157 102.06021,406.63991 101.25974,251.34829 194.11452,123.67296 342.60213,75.244392 491.8902,122.87249 l 92.05431,126.07438 1.20071,157.69304 -91.65407,128.47579 z"
         id="path4647"
         inkscape:connector-curvature="0" />
      <path
         style="fill:none;stroke:#000000;stroke-width:1px;stroke-linecap:butt;stroke-linejoin:miter;stroke-opacity:1"
         d="M 257.75207,558.72963 427.45218,559.93034 555.92798,451.46635 585.14522,287.76978 501.49587,142.08382 343.4026,83.64935 185.70956,142.08382 102.46045,286.16883 130.87721,450.66588 Z"
         id="path4649"
         inkscape:connector-curvature="0" />
      <path
         style="fill:none;stroke:#000000;stroke-width:1px;stroke-linecap:butt;stroke-linejoin:miter;stroke-opacity:1"
         d="M 343.00236,564.73318 177.3046,496.2928 107.26328,330.19481 177.3046,161.29516 343.00236,93.655254 l 167.2987,68.840616 69.24085,167.69894 -69.24085,166.49822 z"
         id="path4651"
         inkscape:connector-curvature="0" />
      <path
         style="fill:none;stroke:#000000;stroke-width:1px;stroke-linecap:butt;stroke-linejoin:miter;stroke-opacity:1"
         d="m 441.06021,532.31405 -198.51712,-0.80047 -119.6706,-150.88902 43.62574,-191.71311 176.1039,-84.04958 178.50531,83.64935 43.62574,190.51239 z"
         id="path4653"
         inkscape:connector-curvature="0" />
      <path
         style="fill:none;stroke:#000000;stroke-width:1px;stroke-linecap:butt;stroke-linejoin:miter;stroke-opacity:1"
         d="M 342.20189,541.51948 525.51004,437.85832 V 223.33176 L 342.60213,116.86895 158.09327,224.13223 l 1.20071,212.12515 z"
         id="path4655"
         inkscape:connector-curvature="0" />
      <path
         style="fill:none;stroke:#000000;stroke-width:1px;stroke-linecap:butt;stroke-linejoin:miter;stroke-opacity:1"
         d="M 460.27155,489.08855 531.91381,266.9575 343.4026,131.27745 155.29162,267.75797 226.93388,489.48878 Z"
         id="path4657"
         inkscape:connector-curvature="0" />
      <path
         style="fill:none;stroke:#000000;stroke-width:1px;stroke-linecap:butt;stroke-linejoin:miter;stroke-opacity:1"
         d="M 342.60213,508.70012 523.10862,328.9941 343.00236,149.28808 163.29634,328.59386 Z"
         id="path4659"
         inkscape:connector-curvature="0" />
      <path
         style="fill:none;stroke:#000000;stroke-width:1px;stroke-linecap:butt;stroke-linejoin:miter;stroke-opacity:1"
         d="M 205.72137,410.64227 481.08383,411.0425 344.60331,170.90083 Z"
         id="path4663"
         inkscape:connector-curvature="0" />
      <path
         style="fill:none;stroke:#000000;stroke-width:0.99598354px;stroke-linecap:butt;stroke-linejoin:miter;stroke-opacity:1"
         d="m 343.40258,452.66698 0.40027,-194.91483"
         id="path4665"
         inkscape:connector-curvature="0" />
      <path
         style="fill:none;stroke:#000000;stroke-width:1px;stroke-linecap:butt;stroke-linejoin:miter;stroke-opacity:1"
         d="m 343.00236,228.93506 0.40024,-23.21369"
         id="path4667"
         inkscape:connector-curvature="0" />
      <circle
         style="fill:none;fill-opacity:1;stroke:#0000ff;stroke-width:1.83831573;stroke-opacity:1"
         id="path4669"
         cx="343.19836"
         cy="199.52066"
         r="6.580842" />
      <circle
         style="fill:none;fill-opacity:1;stroke:#0000f4;stroke-width:0.94931585;stroke-opacity:1"
         id="path4671"
         cx="343.09384"
         cy="242.85184"
         r="14.525342" />
      <circle
         style="fill:none;fill-opacity:1;stroke:#0000ff;stroke-width:1.83831573;stroke-opacity:1"
         id="path4669-3"
         cx="343.8757"
         cy="458.98837"
         r="6.580842" />
    </g>
    <path
       transform="rotate(0.4,368.21725,319.38843)"
       d="M 711.61984,316.98701 541.99823,615.58308 198.59565,617.9845 24.814671,321.78984 194.43627,23.193775 537.83886,20.792358 Z"
       inkscape:randomized="0"
       inkscape:rounded="0"
       inkscape:flatsided="true"
       sodipodi:arg2="0.51660588"
       sodipodi:arg1="-0.006992893"
       sodipodi:r2="297.40265"
       sodipodi:r1="343.41098"
       sodipodi:cy="319.38843"
       sodipodi:cx="368.21725"
       sodipodi:sides="6"
       id="path4710"
       style="fill:none;fill-opacity:1;stroke:#f20000;stroke-opacity:1"
       sodipodi:type="star" />
  </g>
</svg>
